<!DOCTYPE svg PUBLIC "-//W3C//DTD SVG 1.1//EN" "http://www.w3.org/Graphics/SVG/1.1/DTD/svg11.dtd">
<!-- Generated by graphviz version 12.0.0 (0)
 --><!-- Pages: 1 --><svg xmlns="http://www.w3.org/2000/svg" xmlns:xlink="http://www.w3.org/1999/xlink" width="100%" height="100%" viewBox="0.00 0.00 1321.15 850.56">
<g id="doc-flowchart" class="graph" transform="scale(1 1) rotate(0) translate(4 846.56)">
<polygon fill="none" stroke="none" points="-4,4 -4,-846.56 1317.15,-846.56 1317.15,4 -4,4"/>
<!-- DoSomething -->
<g id="doc-flowchart_node1" class="node">
<ellipse fill="#121212" stroke="#cfb87c" stroke-width="2" cx="377.97" cy="-800.84" rx="108.89" ry="41.72"/>
<text text-anchor="middle" x="377.97" y="-816.84" font-family="Verdana" font-size="10.00" fill="white">If penalty occurrences &gt; 0,</text>
<text text-anchor="middle" x="377.97" y="-804.09" font-family="Verdana" font-size="10.00" fill="white">start the timer; at zero,</text>
<text text-anchor="middle" x="377.97" y="-791.34" font-family="Verdana" font-size="10.00" fill="white">reduce penalty occurrences</text>
<text text-anchor="middle" x="377.97" y="-778.59" font-family="Verdana" font-size="10.00" fill="white">by 1, repeating until zero.</text>
</g>
<!-- NS -->
<g id="doc-flowchart_node2" class="node">
<ellipse fill="#121212" stroke="#cfb87c" stroke-width="2" cx="83.97" cy="-692.65" rx="83.97" ry="19.98"/>
<text text-anchor="middle" x="83.97" y="-687.57" font-family="Verdana" font-size="16.00" fill="white">normal state</text>
</g>
<!-- Exceed -->
<g id="doc-flowchart_node3" class="node">
<ellipse fill="#121212" stroke="#cfb87c" stroke-width="2" stroke-dasharray="5,2" cx="377.97" cy="-692.65" rx="138.06" ry="19.98"/>
<text text-anchor="middle" x="377.97" y="-687.57" font-family="Verdana" font-size="16.00" fill="white">Thresholds exceeded?</text>
</g>
<!-- NS&#45;&gt;Exceed -->
<g id="doc-flowchart_edge1" class="edge">
<path fill="none" stroke="#cfb87c" stroke-width="1.5" d="M168.67,-692.65C188.08,-692.65 207.48,-692.65 226.89,-692.65"/>
<polygon fill="#121212" stroke="#cfb87c" stroke-width="1.5" points="226.71,-696.15 236.71,-692.65 226.71,-689.15 226.71,-696.15"/>
</g>
<!-- Exceed&#45;&gt;DoSomething -->
<g id="doc-flowchart_edge2" class="edge">
<path fill="none" stroke="#cfb87c" stroke-width="1.5" d="M377.97,-713.6C377.97,-722.92 377.97,-734.51 377.97,-746.14"/>
<polygon fill="#121212" stroke="#cfb87c" stroke-width="1.5" points="374.47,-745.91 377.97,-755.91 381.47,-745.91 374.47,-745.91"/>
<text text-anchor="middle" x="389.97" y="-730.83" font-family="Times,serif" font-size="14.00" fill="#cfb87c"> &#160;No</text>
</g>
<!-- Badness -->
<g id="doc-flowchart_node4" class="node">
<ellipse fill="#121212" stroke="#cfb87c" stroke-width="2" cx="721.97" cy="-692.65" rx="134.88" ry="19.98"/>
<text text-anchor="middle" x="721.97" y="-687.57" font-family="Verdana" font-size="16.00" fill="white">Badness accumulates</text>
</g>
<!-- Exceed&#45;&gt;Badness -->
<g id="doc-flowchart_edge3" class="edge">
<path fill="none" stroke="#cfb87c" stroke-width="1.5" d="M516.9,-692.65C535.72,-692.65 555.1,-692.65 574.08,-692.65"/>
<polygon fill="#121212" stroke="#cfb87c" stroke-width="1.5" points="573.88,-696.15 583.88,-692.65 573.88,-689.15 573.88,-696.15"/>
<text text-anchor="middle" x="551.56" y="-698.85" font-family="Times,serif" font-size="14.00" fill="#cfb87c">Yes</text>
</g>
<!-- TooBad -->
<g id="doc-flowchart_node5" class="node">
<ellipse fill="#121212" stroke="#cfb87c" stroke-width="2" stroke-dasharray="5,2" cx="788.97" cy="-591.88" rx="89.8" ry="34.29"/>
<text text-anchor="middle" x="788.97" y="-596.93" font-family="Verdana" font-size="16.00" fill="white">Has badness</text>
<text text-anchor="middle" x="788.97" y="-576.68" font-family="Verdana" font-size="16.00" fill="white">reached 100?</text>
</g>
<!-- Badness&#45;&gt;TooBad -->
<g id="doc-flowchart_edge5" class="edge">
<path fill="none" stroke="#cfb87c" stroke-width="1.5" d="M735.21,-672.14C742.25,-661.76 751.2,-648.55 759.77,-635.92"/>
<polygon fill="#121212" stroke="#cfb87c" stroke-width="1.5" points="762.53,-638.09 765.25,-627.85 756.74,-634.16 762.53,-638.09"/>
</g>
<!-- BehFix -->
<g id="doc-flowchart_node6" class="node">
<ellipse fill="#121212" stroke="#cfb87c" stroke-width="2" stroke-dasharray="5,2" cx="547.97" cy="-591.88" rx="115.26" ry="19.98"/>
<text text-anchor="middle" x="547.97" y="-586.8" font-family="Verdana" font-size="16.00" fill="white">Below thresholds?</text>
</g>
<!-- Badness&#45;&gt;BehFix -->
<g id="doc-flowchart_edge4" class="edge">
<path fill="none" stroke="#cfb87c" stroke-width="1.5" d="M688.01,-672.37C660.61,-656.82 621.87,-634.83 592.08,-617.92"/>
<polygon fill="#121212" stroke="#cfb87c" stroke-width="1.5" points="593.95,-614.95 583.52,-613.06 590.49,-621.04 593.95,-614.95"/>
</g>
<!-- Track -->
<g id="doc-flowchart_node7" class="node">
<ellipse fill="#121212" stroke="#cfb87c" stroke-width="2" stroke-dasharray="5,2" cx="1082.97" cy="-591.88" rx="132.76" ry="34.29"/>
<text text-anchor="middle" x="1082.97" y="-596.93" font-family="Verdana" font-size="16.00" fill="white">Do you have &gt;0</text>
<text text-anchor="middle" x="1082.97" y="-576.68" font-family="Verdana" font-size="16.00" fill="white">penalty occurrences?</text>
</g>
<!-- TooBad&#45;&gt;Track -->
<g id="doc-flowchart_edge8" class="edge">
<path fill="none" stroke="#cfb87c" stroke-width="1.5" d="M879.58,-591.88C897.88,-591.88 917.56,-591.88 937.21,-591.88"/>
<polygon fill="#121212" stroke="#cfb87c" stroke-width="1.5" points="937.16,-595.38 947.16,-591.88 937.16,-588.38 937.16,-595.38"/>
<text text-anchor="middle" x="914.49" y="-598.08" font-family="Times,serif" font-size="14.00" fill="#cfb87c">Yes</text>
</g>
<!-- BehFix&#45;&gt;Badness -->
<g id="doc-flowchart_edge6" class="edge">
<path fill="none" stroke="#cfb87c" stroke-width="1.5" d="M559.78,-612.64C569.41,-627.12 584.28,-646.19 601.97,-657.67 610.45,-663.18 619.84,-667.81 629.51,-671.7"/>
<polygon fill="#121212" stroke="#cfb87c" stroke-width="1.5" points="628.24,-674.96 638.83,-675.15 630.66,-668.4 628.24,-674.96"/>
<text text-anchor="middle" x="613.97" y="-644.37" font-family="Times,serif" font-size="14.00" fill="#cfb87c"> &#160;No</text>
</g>
<!-- BadnessFed -->
<g id="doc-flowchart_node13" class="node">
<ellipse fill="#121212" stroke="#cfb87c" stroke-width="2" cx="443.97" cy="-133.88" rx="100.41" ry="34.29"/>
<text text-anchor="middle" x="443.97" y="-138.93" font-family="Verdana" font-size="16.00" fill="white">Badness begins</text>
<text text-anchor="middle" x="443.97" y="-118.68" font-family="Verdana" font-size="16.00" fill="white">to reduce</text>
</g>
<!-- BehFix&#45;&gt;BadnessFed -->
<g id="doc-flowchart_edge7" class="edge">
<path fill="none" stroke="#cfb87c" stroke-width="1.5" d="M536.69,-571.16C525.17,-549.13 508.97,-512.06 508.97,-477.79 508.97,-477.79 508.97,-477.79 508.97,-247.97 508.97,-222.21 496.13,-197.01 481.86,-176.96"/>
<polygon fill="#121212" stroke="#cfb87c" stroke-width="1.5" points="484.74,-174.96 475.93,-169.07 479.15,-179.17 484.74,-174.96"/>
<text text-anchor="middle" x="522.09" y="-357.83" font-family="Times,serif" font-size="14.00" fill="#cfb87c"> &#160;Yes</text>
</g>
<!-- Penalty1 -->
<g id="doc-flowchart_node8" class="node">
<ellipse fill="#121212" stroke="#cfb87c" stroke-width="2" cx="1082.97" cy="-476.79" rx="93.51" ry="34.29"/>
<text text-anchor="middle" x="1082.97" y="-481.84" font-family="Verdana" font-size="16.00" fill="white">penalty1 state</text>
<text text-anchor="middle" x="1082.97" y="-461.59" font-family="Verdana" font-size="16.00" fill="white">assigned</text>
</g>
<!-- Track&#45;&gt;Penalty1 -->
<g id="doc-flowchart_edge9" class="edge">
<path fill="none" stroke="#cfb87c" stroke-width="1.5" d="M1082.97,-556.64C1082.97,-546.34 1082.97,-534.87 1082.97,-523.94"/>
<polygon fill="#121212" stroke="#cfb87c" stroke-width="1.5" points="1086.47,-524.18 1082.97,-514.18 1079.47,-524.18 1086.47,-524.18"/>
<text text-anchor="middle" x="1093.09" y="-529.28" font-family="Times,serif" font-size="14.00" fill="#cfb87c"> No</text>
</g>
<!-- NextPen -->
<g id="doc-flowchart_node9" class="node">
<ellipse fill="#121212" stroke="#cfb87c" stroke-width="2" cx="857.97" cy="-476.79" rx="95.64" ry="34.29"/>
<text text-anchor="middle" x="857.97" y="-481.84" font-family="Verdana" font-size="16.00" fill="white">Penalty state</text>
<text text-anchor="middle" x="857.97" y="-461.59" font-family="Verdana" font-size="16.00" fill="white">increased by 1</text>
</g>
<!-- Track&#45;&gt;NextPen -->
<g id="doc-flowchart_edge10" class="edge">
<path fill="none" stroke="#cfb87c" stroke-width="1.5" d="M1022.38,-560.42C991.99,-545.15 955.13,-526.62 924.02,-510.99"/>
<polygon fill="#121212" stroke="#cfb87c" stroke-width="1.5" points="925.81,-507.97 915.3,-506.61 922.66,-514.22 925.81,-507.97"/>
<text text-anchor="middle" x="994.22" y="-529.28" font-family="Times,serif" font-size="14.00" fill="#cfb87c"> Yes</text>
</g>
<!-- SentEmail -->
<g id="doc-flowchart_node10" class="node">
<ellipse fill="#121212" stroke="#cfb87c" stroke-width="2" cx="857.97" cy="-362.88" rx="173.59" ry="48.61"/>
<text text-anchor="middle" x="857.97" y="-378.06" font-family="Verdana" font-size="16.00" fill="white">Warning email sent, penalty</text>
<text text-anchor="middle" x="857.97" y="-357.81" font-family="Verdana" font-size="16.00" fill="white">occurrences increases by 1,</text>
<text text-anchor="middle" x="857.97" y="-337.56" font-family="Verdana" font-size="16.00" fill="white">and resources throttled</text>
</g>
<!-- Penalty1&#45;&gt;SentEmail -->
<g id="doc-flowchart_edge11" class="edge">
<path fill="none" stroke="#cfb87c" stroke-width="1.5" d="M1027.64,-448.27C1005.32,-437.17 978.92,-424.04 953.67,-411.48"/>
<polygon fill="#121212" stroke="#cfb87c" stroke-width="1.5" points="955.48,-408.47 944.97,-407.15 952.37,-414.74 955.48,-408.47"/>
</g>
<!-- NextPen&#45;&gt;SentEmail -->
<g id="doc-flowchart_edge12" class="edge">
<path fill="none" stroke="#cfb87c" stroke-width="1.5" d="M857.97,-441.61C857.97,-436.11 857.97,-430.28 857.97,-424.39"/>
<polygon fill="#121212" stroke="#cfb87c" stroke-width="1.5" points="861.47,-424.55 857.97,-414.55 854.47,-424.55 861.47,-424.55"/>
</g>
<!-- DurationTimer -->
<g id="doc-flowchart_node11" class="node">
<ellipse fill="#121212" stroke="#cfb87c" stroke-width="2" cx="1207.97" cy="-362.88" rx="105.18" ry="34.29"/>
<text text-anchor="middle" x="1207.97" y="-367.93" font-family="Verdana" font-size="16.00" fill="white">Penalty duration</text>
<text text-anchor="middle" x="1207.97" y="-347.68" font-family="Verdana" font-size="16.00" fill="white">timer starts</text>
</g>
<!-- SentEmail&#45;&gt;DurationTimer -->
<g id="doc-flowchart_edge13" class="edge">
<path fill="none" stroke="#cfb87c" stroke-width="1.5" d="M1032.29,-362.88C1051.42,-362.88 1070.56,-362.88 1089.7,-362.88"/>
<polygon fill="#121212" stroke="#cfb87c" stroke-width="1.5" points="1089.67,-366.38 1099.67,-362.88 1089.67,-359.38 1089.67,-366.38"/>
</g>
<!-- DurationEnded -->
<g id="doc-flowchart_node12" class="node">
<ellipse fill="#121212" stroke="#cfb87c" stroke-width="2" stroke-dasharray="5,2" cx="918.97" cy="-248.97" rx="104.65" ry="34.29"/>
<text text-anchor="middle" x="918.97" y="-254.02" font-family="Verdana" font-size="16.00" fill="white">Has the penalty</text>
<text text-anchor="middle" x="918.97" y="-233.77" font-family="Verdana" font-size="16.00" fill="white">duration ended?</text>
</g>
<!-- DurationTimer&#45;&gt;DurationEnded -->
<g id="doc-flowchart_edge14" class="edge">
<path fill="none" stroke="#cfb87c" stroke-width="1.5" d="M1140.58,-335.79C1097.92,-319.27 1042.59,-297.84 997.89,-280.53"/>
<polygon fill="#121212" stroke="#cfb87c" stroke-width="1.5" points="999.17,-277.28 988.59,-276.93 996.65,-283.81 999.17,-277.28"/>
</g>
<!-- DurationEnded&#45;&gt;BadnessFed -->
<g id="doc-flowchart_edge15" class="edge">
<path fill="none" stroke="#cfb87c" stroke-width="1.5" d="M834.6,-227.89C751.34,-208.06 624.31,-177.82 537.88,-157.24"/>
<polygon fill="#121212" stroke="#cfb87c" stroke-width="1.5" points="538.71,-153.84 528.18,-154.93 537.09,-160.65 538.71,-153.84"/>
<text text-anchor="middle" x="720.22" y="-186.38" font-family="Times,serif" font-size="14.00" fill="#cfb87c"> Yes</text>
</g>
<!-- BadnessFed&#45;&gt;Exceed -->
<g id="doc-flowchart_edge17" class="edge">
<path fill="none" stroke="#cfb87c" stroke-width="1.5" d="M412.9,-167.18C395.78,-188.4 377.97,-217.74 377.97,-247.97 377.97,-592.88 377.97,-592.88 377.97,-592.88 377.97,-615.28 377.97,-640.53 377.97,-659.9"/>
<polygon fill="#121212" stroke="#cfb87c" stroke-width="1.5" points="374.47,-659.7 377.97,-669.7 381.47,-659.7 374.47,-659.7"/>
</g>
<!-- BadAtZero -->
<g id="doc-flowchart_node14" class="node">
<ellipse fill="#121212" stroke="#cfb87c" stroke-width="2" stroke-dasharray="5,2" cx="211.97" cy="-34.29" rx="72.83" ry="34.29"/>
<text text-anchor="middle" x="211.97" y="-39.34" font-family="Verdana" font-size="16.00" fill="white">Is badness</text>
<text text-anchor="middle" x="211.97" y="-19.09" font-family="Verdana" font-size="16.00" fill="white">at zero?</text>
</g>
<!-- BadnessFed&#45;&gt;BadAtZero -->
<g id="doc-flowchart_edge16" class="edge">
<path fill="none" stroke="#cfb87c" stroke-width="1.5" d="M380.88,-106.35C348.71,-92.82 309.64,-76.38 277.17,-62.72"/>
<polygon fill="#121212" stroke="#cfb87c" stroke-width="1.5" points="278.66,-59.55 268.08,-58.9 275.94,-66 278.66,-59.55"/>
</g>
<!-- BadAtZero&#45;&gt;NS -->
<g id="doc-flowchart_edge18" class="edge">
<path fill="none" stroke="#cfb87c" stroke-width="1.5" d="M201.1,-68.79C195.98,-87.45 190.97,-111.22 190.97,-132.88 190.97,-592.88 190.97,-592.88 190.97,-592.88 190.97,-626.39 162.28,-651.68 134.61,-668.28"/>
<polygon fill="#121212" stroke="#cfb87c" stroke-width="1.5" points="133.07,-665.13 126.09,-673.1 136.52,-671.22 133.07,-665.13"/>
<text text-anchor="middle" x="204.09" y="-357.83" font-family="Times,serif" font-size="14.00" fill="#cfb87c"> &#160;Yes</text>
</g>
</g>
</svg>