<!DOCTYPE svg PUBLIC "-//W3C//DTD SVG 1.1//EN" "http://www.w3.org/Graphics/SVG/1.1/DTD/svg11.dtd">
<!-- Generated by graphviz version 12.0.0 (0)
 --><!-- Pages: 1 --><svg xmlns="http://www.w3.org/2000/svg" xmlns:xlink="http://www.w3.org/1999/xlink" width="100%" height="100%" viewBox="0.00 0.00 864.85 837.43">
<g id="doc-flowchart" class="graph" transform="scale(1 1) rotate(0) translate(4 833.43)">
<polygon fill="none" stroke="none" points="-4,4 -4,-833.43 860.85,-833.43 860.85,4 -4,4"/>
<!-- DoSomething -->
<g id="doc-flowchart_node1" class="node">
<ellipse fill="#121212" stroke="#cfb87c" stroke-width="2" cx="377.97" cy="-787.71" rx="108.89" ry="41.72"/>
<text text-anchor="middle" x="377.97" y="-803.71" font-family="Verdana" font-size="10.00" fill="white">If penalty occurrences &gt; 0,</text>
<text text-anchor="middle" x="377.97" y="-790.96" font-family="Verdana" font-size="10.00" fill="white">start the timer; at zero,</text>
<text text-anchor="middle" x="377.97" y="-778.21" font-family="Verdana" font-size="10.00" fill="white">reduce penalty occurrences</text>
<text text-anchor="middle" x="377.97" y="-765.46" font-family="Verdana" font-size="10.00" fill="white">by 1, repeating until zero.</text>
</g>
<!-- NS -->
<g id="doc-flowchart_node2" class="node">
<ellipse fill="#121212" stroke="#cfb87c" stroke-width="2" cx="83.97" cy="-679.51" rx="83.97" ry="19.98"/>
<text text-anchor="middle" x="83.97" y="-674.44" font-family="Verdana" font-size="16.00" fill="white">normal state</text>
</g>
<!-- Exceed -->
<g id="doc-flowchart_node3" class="node">
<ellipse fill="#121212" stroke="#cfb87c" stroke-width="2" stroke-dasharray="5,2" cx="377.97" cy="-679.51" rx="138.06" ry="19.98"/>
<text text-anchor="middle" x="377.97" y="-674.44" font-family="Verdana" font-size="16.00" fill="white">Thresholds exceeded?</text>
</g>
<!-- NS&#45;&gt;Exceed -->
<g id="doc-flowchart_edge1" class="edge">
<path fill="none" stroke="#cfb87c" stroke-width="1.5" d="M168.67,-679.51C188.08,-679.51 207.48,-679.51 226.89,-679.51"/>
<polygon fill="#121212" stroke="#cfb87c" stroke-width="1.5" points="226.71,-683.01 236.71,-679.51 226.71,-676.01 226.71,-683.01"/>
</g>
<!-- Exceed&#45;&gt;DoSomething -->
<g id="doc-flowchart_edge2" class="edge">
<path fill="none" stroke="#cfb87c" stroke-width="1.5" d="M377.97,-700.47C377.97,-709.79 377.97,-721.38 377.97,-733"/>
<polygon fill="#121212" stroke="#cfb87c" stroke-width="1.5" points="374.47,-732.77 377.97,-742.77 381.47,-732.77 374.47,-732.77"/>
<text text-anchor="middle" x="389.97" y="-717.69" font-family="Times,serif" font-size="14.00" fill="#cfb87c"> &#160;No</text>
</g>
<!-- Badness -->
<g id="doc-flowchart_node4" class="node">
<ellipse fill="#121212" stroke="#cfb87c" stroke-width="2" cx="721.97" cy="-679.51" rx="134.88" ry="19.98"/>
<text text-anchor="middle" x="721.97" y="-674.44" font-family="Verdana" font-size="16.00" fill="white">Badness accumulates</text>
</g>
<!-- Exceed&#45;&gt;Badness -->
<g id="doc-flowchart_edge3" class="edge">
<path fill="none" stroke="#cfb87c" stroke-width="1.5" d="M516.9,-679.51C535.72,-679.51 555.1,-679.51 574.08,-679.51"/>
<polygon fill="#121212" stroke="#cfb87c" stroke-width="1.5" points="573.88,-683.01 583.88,-679.51 573.88,-676.01 573.88,-683.01"/>
<text text-anchor="middle" x="551.56" y="-685.71" font-family="Times,serif" font-size="14.00" fill="#cfb87c">Yes</text>
</g>
<!-- TooBad -->
<g id="doc-flowchart_node5" class="node">
<ellipse fill="#121212" stroke="#cfb87c" stroke-width="2" stroke-dasharray="5,2" cx="733.97" cy="-578.74" rx="89.8" ry="34.29"/>
<text text-anchor="middle" x="733.97" y="-583.79" font-family="Verdana" font-size="16.00" fill="white">Has badness</text>
<text text-anchor="middle" x="733.97" y="-563.54" font-family="Verdana" font-size="16.00" fill="white">reached 100?</text>
</g>
<!-- Badness&#45;&gt;TooBad -->
<g id="doc-flowchart_edge4" class="edge">
<path fill="none" stroke="#cfb87c" stroke-width="1.5" d="M724.34,-659C725.51,-649.4 726.96,-637.39 728.39,-625.65"/>
<polygon fill="#121212" stroke="#cfb87c" stroke-width="1.5" points="731.85,-626.22 729.58,-615.87 724.9,-625.38 731.85,-626.22"/>
</g>
<!-- TooBad&#45;&gt;Badness -->
<g id="doc-flowchart_edge5" class="edge">
<path fill="none" stroke="#cfb87c" stroke-width="1.5" d="M701.88,-611.53C698.25,-616.69 695.09,-622.25 692.97,-628.04 690.44,-634.92 690.43,-637.66 692.97,-644.54 693.5,-645.97 694.12,-647.38 694.81,-648.77"/>
<polygon fill="#121212" stroke="#cfb87c" stroke-width="1.5" points="691.69,-650.4 700.04,-656.92 697.58,-646.62 691.69,-650.4"/>
<text text-anchor="middle" x="704.97" y="-631.24" font-family="Times,serif" font-size="14.00" fill="#cfb87c"> &#160;No</text>
</g>
<!-- Track -->
<g id="doc-flowchart_node6" class="node">
<ellipse fill="#121212" stroke="#cfb87c" stroke-width="2" stroke-dasharray="5,2" cx="431.97" cy="-578.74" rx="132.76" ry="34.29"/>
<text text-anchor="middle" x="431.97" y="-583.79" font-family="Verdana" font-size="16.00" fill="white">Do you have &gt;0</text>
<text text-anchor="middle" x="431.97" y="-563.54" font-family="Verdana" font-size="16.00" fill="white">penalty occurrences?</text>
</g>
<!-- TooBad&#45;&gt;Track -->
<g id="doc-flowchart_edge6" class="edge">
<path fill="none" stroke="#cfb87c" stroke-width="1.5" d="M643.38,-578.74C622.56,-578.74 599.9,-578.74 577.41,-578.74"/>
<polygon fill="#121212" stroke="#cfb87c" stroke-width="1.5" points="577.58,-575.24 567.58,-578.74 577.58,-582.24 577.58,-575.24"/>
<text text-anchor="middle" x="604.45" y="-584.94" font-family="Times,serif" font-size="14.00" fill="#cfb87c">Yes</text>
</g>
<!-- Penalty1 -->
<g id="doc-flowchart_node7" class="node">
<ellipse fill="#121212" stroke="#cfb87c" stroke-width="2" cx="619.97" cy="-463.65" rx="93.51" ry="34.29"/>
<text text-anchor="middle" x="619.97" y="-468.7" font-family="Verdana" font-size="16.00" fill="white">penalty1 state</text>
<text text-anchor="middle" x="619.97" y="-448.45" font-family="Verdana" font-size="16.00" fill="white">assigned</text>
</g>
<!-- Track&#45;&gt;Penalty1 -->
<g id="doc-flowchart_edge7" class="edge">
<path fill="none" stroke="#cfb87c" stroke-width="1.5" d="M483.84,-546.54C507.8,-532.12 536.38,-514.94 561.14,-500.04"/>
<polygon fill="#121212" stroke="#cfb87c" stroke-width="1.5" points="562.79,-503.13 569.55,-494.98 559.18,-497.14 562.79,-503.13"/>
<text text-anchor="middle" x="547.09" y="-516.15" font-family="Times,serif" font-size="14.00" fill="#cfb87c"> No</text>
</g>
<!-- NextPen -->
<g id="doc-flowchart_node8" class="node">
<ellipse fill="#121212" stroke="#cfb87c" stroke-width="2" cx="394.97" cy="-463.65" rx="95.64" ry="34.29"/>
<text text-anchor="middle" x="394.97" y="-468.7" font-family="Verdana" font-size="16.00" fill="white">Penalty state</text>
<text text-anchor="middle" x="394.97" y="-448.45" font-family="Verdana" font-size="16.00" fill="white">increased by 1</text>
</g>
<!-- Track&#45;&gt;NextPen -->
<g id="doc-flowchart_edge8" class="edge">
<path fill="none" stroke="#cfb87c" stroke-width="1.5" d="M405.33,-544.18C402.59,-539.44 400.19,-534.47 398.47,-529.45 396.44,-523.54 395.13,-517.15 394.32,-510.76"/>
<polygon fill="#121212" stroke="#cfb87c" stroke-width="1.5" points="397.81,-510.56 393.5,-500.88 390.84,-511.14 397.81,-510.56"/>
<text text-anchor="middle" x="409.22" y="-516.15" font-family="Times,serif" font-size="14.00" fill="#cfb87c"> Yes</text>
</g>
<!-- SentEmail -->
<g id="doc-flowchart_node9" class="node">
<ellipse fill="#121212" stroke="#cfb87c" stroke-width="2" cx="575.97" cy="-364.06" rx="144.96" ry="34.29"/>
<text text-anchor="middle" x="575.97" y="-369.11" font-family="Verdana" font-size="16.00" fill="white">Warning email sent</text>
<text text-anchor="middle" x="575.97" y="-348.86" font-family="Verdana" font-size="16.00" fill="white">and resources throttled</text>
</g>
<!-- Penalty1&#45;&gt;SentEmail -->
<g id="doc-flowchart_edge9" class="edge">
<path fill="none" stroke="#cfb87c" stroke-width="1.5" d="M604.83,-429.07C602.02,-422.85 599.06,-416.27 596.13,-409.78"/>
<polygon fill="#121212" stroke="#cfb87c" stroke-width="1.5" points="599.52,-408.79 592.22,-401.11 593.14,-411.67 599.52,-408.79"/>
</g>
<!-- NextPen&#45;&gt;SentEmail -->
<g id="doc-flowchart_edge10" class="edge">
<path fill="none" stroke="#cfb87c" stroke-width="1.5" d="M447.81,-434.16C466.38,-424.15 487.54,-412.74 507.23,-402.12"/>
<polygon fill="#121212" stroke="#cfb87c" stroke-width="1.5" points="508.85,-405.22 516,-397.4 505.53,-399.06 508.85,-405.22"/>
</g>
<!-- DurationTimer -->
<g id="doc-flowchart_node10" class="node">
<ellipse fill="#121212" stroke="#cfb87c" stroke-width="2" cx="252.97" cy="-364.06" rx="105.18" ry="34.29"/>
<text text-anchor="middle" x="252.97" y="-369.11" font-family="Verdana" font-size="16.00" fill="white">Penalty duration</text>
<text text-anchor="middle" x="252.97" y="-348.86" font-family="Verdana" font-size="16.00" fill="white">timer starts</text>
</g>
<!-- SentEmail&#45;&gt;DurationTimer -->
<g id="doc-flowchart_edge11" class="edge">
<path fill="none" stroke="#cfb87c" stroke-width="1.5" d="M430.16,-364.06C410.51,-364.06 390.85,-364.06 371.19,-364.06"/>
<polygon fill="#121212" stroke="#cfb87c" stroke-width="1.5" points="371.22,-360.56 361.22,-364.06 371.22,-367.56 371.22,-360.56"/>
</g>
<!-- DurationEnded -->
<g id="doc-flowchart_node11" class="node">
<ellipse fill="#121212" stroke="#cfb87c" stroke-width="2" stroke-dasharray="5,2" cx="252.97" cy="-264.47" rx="104.65" ry="34.29"/>
<text text-anchor="middle" x="252.97" y="-269.52" font-family="Verdana" font-size="16.00" fill="white">Has the penalty</text>
<text text-anchor="middle" x="252.97" y="-249.27" font-family="Verdana" font-size="16.00" fill="white">duration ended?</text>
</g>
<!-- DurationTimer&#45;&gt;DurationEnded -->
<g id="doc-flowchart_edge12" class="edge">
<path fill="none" stroke="#cfb87c" stroke-width="1.5" d="M252.97,-328.93C252.97,-323.32 252.97,-317.42 252.97,-311.57"/>
<polygon fill="#121212" stroke="#cfb87c" stroke-width="1.5" points="256.47,-312.02 252.97,-302.02 249.47,-312.02 256.47,-312.02"/>
</g>
<!-- StayIn -->
<g id="doc-flowchart_node12" class="node">
<ellipse fill="#121212" stroke="#cfb87c" stroke-width="2" cx="460.97" cy="-149.38" rx="86.09" ry="34.29"/>
<text text-anchor="middle" x="460.97" y="-154.43" font-family="Verdana" font-size="16.00" fill="white">Remain in</text>
<text text-anchor="middle" x="460.97" y="-134.18" font-family="Verdana" font-size="16.00" fill="white">penalty state</text>
</g>
<!-- DurationEnded&#45;&gt;StayIn -->
<g id="doc-flowchart_edge13" class="edge">
<path fill="none" stroke="#cfb87c" stroke-width="1.5" d="M306.8,-234.2C335.21,-218.76 370.19,-199.74 399.64,-183.73"/>
<polygon fill="#121212" stroke="#cfb87c" stroke-width="1.5" points="401.11,-186.91 408.23,-179.06 397.77,-180.76 401.11,-186.91"/>
<text text-anchor="middle" x="379.09" y="-201.88" font-family="Times,serif" font-size="14.00" fill="#cfb87c"> No</text>
</g>
<!-- BadnessFed -->
<g id="doc-flowchart_node13" class="node">
<ellipse fill="#121212" stroke="#cfb87c" stroke-width="2" cx="238.97" cy="-149.38" rx="100.41" ry="34.29"/>
<text text-anchor="middle" x="238.97" y="-154.43" font-family="Verdana" font-size="16.00" fill="white">Badness begins</text>
<text text-anchor="middle" x="238.97" y="-134.18" font-family="Verdana" font-size="16.00" fill="white">to reduce</text>
</g>
<!-- DurationEnded&#45;&gt;BadnessFed -->
<g id="doc-flowchart_edge14" class="edge">
<path fill="none" stroke="#cfb87c" stroke-width="1.5" d="M248.73,-229.24C247.46,-218.94 246.04,-207.47 244.68,-196.53"/>
<polygon fill="#121212" stroke="#cfb87c" stroke-width="1.5" points="248.17,-196.25 243.47,-186.76 241.23,-197.11 248.17,-196.25"/>
<text text-anchor="middle" x="257.22" y="-201.88" font-family="Times,serif" font-size="14.00" fill="#cfb87c"> Yes</text>
</g>
<!-- BadAtZero -->
<g id="doc-flowchart_node14" class="node">
<ellipse fill="#121212" stroke="#cfb87c" stroke-width="2" stroke-dasharray="5,2" cx="190.97" cy="-34.29" rx="72.83" ry="34.29"/>
<text text-anchor="middle" x="190.97" y="-39.34" font-family="Verdana" font-size="16.00" fill="white">Is badness</text>
<text text-anchor="middle" x="190.97" y="-19.09" font-family="Verdana" font-size="16.00" fill="white">at zero?</text>
</g>
<!-- BadnessFed&#45;&gt;BadAtZero -->
<g id="doc-flowchart_edge15" class="edge">
<path fill="none" stroke="#cfb87c" stroke-width="1.5" d="M227.89,-114.42C224.36,-104.38 220.25,-93.44 215.97,-83.59 215.37,-82.2 214.74,-80.8 214.1,-79.38"/>
<polygon fill="#121212" stroke="#cfb87c" stroke-width="1.5" points="217.36,-78.09 209.9,-70.57 211.04,-81.11 217.36,-78.09"/>
</g>
<!-- BadAtZero&#45;&gt;NS -->
<g id="doc-flowchart_edge17" class="edge">
<path fill="none" stroke="#cfb87c" stroke-width="1.5" d="M144.04,-61.24C115.29,-80.92 83.97,-110.95 83.97,-148.38 83.97,-579.74 83.97,-579.74 83.97,-579.74 83.97,-602.14 83.97,-627.4 83.97,-646.76"/>
<polygon fill="#121212" stroke="#cfb87c" stroke-width="1.5" points="80.47,-646.56 83.97,-656.56 87.47,-646.56 80.47,-646.56"/>
<text text-anchor="middle" x="97.09" y="-359.01" font-family="Times,serif" font-size="14.00" fill="#cfb87c"> &#160;Yes</text>
</g>
<!-- BadAtZero&#45;&gt;BadnessFed -->
<g id="doc-flowchart_edge16" class="edge">
<path fill="none" stroke="#cfb87c" stroke-width="1.5" d="M180.03,-68.99C178.43,-79.33 178.58,-90.51 182.97,-100.09 184.26,-102.9 185.8,-105.61 187.53,-108.21"/>
<polygon fill="#121212" stroke="#cfb87c" stroke-width="1.5" points="184.68,-110.25 193.64,-115.91 190.17,-105.9 184.68,-110.25"/>
<text text-anchor="middle" x="194.97" y="-86.79" font-family="Times,serif" font-size="14.00" fill="#cfb87c"> &#160;No</text>
</g>
</g>
</svg>