<!DOCTYPE svg PUBLIC "-//W3C//DTD SVG 1.1//EN" "http://www.w3.org/Graphics/SVG/1.1/DTD/svg11.dtd">
<!-- Generated by graphviz version 12.0.0 (0)
 --><!-- Pages: 1 --><svg xmlns="http://www.w3.org/2000/svg" xmlns:xlink="http://www.w3.org/1999/xlink" width="100%" height="100%" viewBox="0.00 0.00 1048.43 552.70">
<g id="doc-flowchart" class="graph" transform="scale(1 1) rotate(0) translate(4 548.7)">
<polygon fill="none" stroke="none" points="-4,4 -4,-548.7 1044.43,-548.7 1044.43,4 -4,4"/>
<!-- DoSomething -->
<g id="doc-flowchart_node1" class="node">
<ellipse fill="#121212" stroke="#cfb87c" stroke-width="2" cx="177.84" cy="-492.37" rx="177.84" ry="52.33"/>
<text text-anchor="middle" x="177.84" y="-513.02" font-family="Verdana" font-size="13.00" fill="white">If penalty occurrences &gt; 0,</text>
<text text-anchor="middle" x="177.84" y="-496.52" font-family="Verdana" font-size="13.00" fill="white">start penalty occurrences timer;</text>
<text text-anchor="middle" x="177.84" y="-480.02" font-family="Verdana" font-size="13.00" fill="white"> at zero, reduce penalty occurrences</text>
<text text-anchor="middle" x="177.84" y="-463.52" font-family="Verdana" font-size="13.00" fill="white">by 1, repeating until zero.</text>
</g>
<!-- BadnessRed -->
<g id="doc-flowchart_node2" class="node">
<ellipse fill="#121212" stroke="#cfb87c" stroke-width="2" cx="517.84" cy="-492.37" rx="107.83" ry="19.98"/>
<text text-anchor="middle" x="517.84" y="-487.29" font-family="Verdana" font-size="16.00" fill="white">Badness reduces</text>
</g>
<!-- Exceed -->
<g id="doc-flowchart_node5" class="node">
<ellipse fill="#121212" stroke="#cfb87c" stroke-width="2" stroke-dasharray="5,2" cx="517.84" cy="-346.75" rx="109.96" ry="34.29"/>
<text text-anchor="middle" x="517.84" y="-351.8" font-family="Verdana" font-size="16.00" fill="white">Usage thresholds</text>
<text text-anchor="middle" x="517.84" y="-331.55" font-family="Verdana" font-size="16.00" fill="white">exceeded?</text>
</g>
<!-- BadnessRed&#45;&gt;Exceed -->
<g id="doc-flowchart_edge15" class="edge">
<path fill="none" stroke="#cfb87c" stroke-width="1.5" d="M517.84,-471.51C517.84,-471.51 517.84,-394.18 517.84,-394.18"/>
<polygon fill="#121212" stroke="#cfb87c" stroke-width="1.5" points="521.34,-394.18 517.84,-384.18 514.34,-394.18 521.34,-394.18"/>
</g>
<!-- BehFix -->
<g id="doc-flowchart_node3" class="node">
<ellipse fill="#121212" stroke="#cfb87c" stroke-width="2" stroke-dasharray="5,2" cx="863.84" cy="-492.37" rx="83.44" ry="34.29"/>
<text text-anchor="middle" x="863.84" y="-497.42" font-family="Verdana" font-size="16.00" fill="white">Below usage</text>
<text text-anchor="middle" x="863.84" y="-477.17" font-family="Verdana" font-size="16.00" fill="white">thresholds?</text>
</g>
<!-- BehFix&#45;&gt;BadnessRed -->
<g id="doc-flowchart_edge8" class="edge">
<path fill="none" stroke="#cfb87c" stroke-width="1.5" d="M779.64,-492.37C779.64,-492.37 638.69,-492.37 638.69,-492.37"/>
<polygon fill="#121212" stroke="#cfb87c" stroke-width="1.5" points="638.69,-488.87 628.69,-492.37 638.69,-495.87 638.69,-488.87"/>
<text text-anchor="middle" x="699.04" y="-495.57" font-family="Times,serif" font-size="14.00" fill="#cfb87c">Yes</text>
</g>
<!-- Badness -->
<g id="doc-flowchart_node6" class="node">
<ellipse fill="#121212" stroke="#cfb87c" stroke-width="2" cx="863.84" cy="-346.75" rx="134.88" ry="19.98"/>
<text text-anchor="middle" x="863.84" y="-341.67" font-family="Verdana" font-size="16.00" fill="white">Badness accumulates</text>
</g>
<!-- BehFix&#45;&gt;Badness -->
<g id="doc-flowchart_edge7" class="edge">
<path fill="none" stroke="#cfb87c" stroke-width="1.5" d="M836.02,-459.33C836.02,-459.33 836.02,-379.36 836.02,-379.36"/>
<polygon fill="#121212" stroke="#cfb87c" stroke-width="1.5" points="839.52,-379.36 836.02,-369.36 832.52,-379.36 839.52,-379.36"/>
<text text-anchor="middle" x="824.02" y="-422.54" font-family="Times,serif" font-size="14.00" fill="#cfb87c"> &#160;No</text>
</g>
<!-- NS -->
<g id="doc-flowchart_node4" class="node">
<ellipse fill="#121212" stroke="#cfb87c" stroke-width="2" cx="177.84" cy="-346.75" rx="83.97" ry="19.98"/>
<text text-anchor="middle" x="177.84" y="-341.67" font-family="Verdana" font-size="16.00" fill="white">normal state</text>
</g>
<!-- NS&#45;&gt;DoSomething -->
<g id="doc-flowchart_edge2" class="edge">
<path fill="none" stroke="#cfb87c" stroke-width="1.5" d="M177.84,-367.61C177.84,-367.61 177.84,-426.92 177.84,-426.92"/>
<polygon fill="#121212" stroke="#cfb87c" stroke-width="1.5" points="174.34,-426.92 177.84,-436.92 181.34,-426.92 174.34,-426.92"/>
</g>
<!-- NS&#45;&gt;Exceed -->
<g id="doc-flowchart_edge1" class="edge">
<path fill="none" stroke="#cfb87c" stroke-width="1.5" d="M257.98,-340.09C257.98,-340.09 396.69,-340.09 396.69,-340.09"/>
<polygon fill="#121212" stroke="#cfb87c" stroke-width="1.5" points="396.69,-343.59 406.69,-340.09 396.69,-336.59 396.69,-343.59"/>
</g>
<!-- Exceed&#45;&gt;NS -->
<g id="doc-flowchart_edge3" class="edge">
<path fill="none" stroke="#cfb87c" stroke-width="1.5" d="M409.32,-353.41C409.32,-353.41 270.68,-353.41 270.68,-353.41"/>
<polygon fill="#121212" stroke="#cfb87c" stroke-width="1.5" points="270.68,-349.91 260.68,-353.41 270.68,-356.91 270.68,-349.91"/>
<text text-anchor="middle" x="328" y="-356.61" font-family="Times,serif" font-size="14.00" fill="#cfb87c"> &#160;No</text>
</g>
<!-- Exceed&#45;&gt;Badness -->
<g id="doc-flowchart_edge4" class="edge">
<path fill="none" stroke="#cfb87c" stroke-width="1.5" d="M628.74,-346.75C628.74,-346.75 715.84,-346.75 715.84,-346.75"/>
<polygon fill="#121212" stroke="#cfb87c" stroke-width="1.5" points="715.84,-350.25 725.84,-346.75 715.84,-343.25 715.84,-350.25"/>
<text text-anchor="middle" x="662.17" y="-349.95" font-family="Times,serif" font-size="14.00" fill="#cfb87c">Yes</text>
</g>
<!-- Badness&#45;&gt;BehFix -->
<g id="doc-flowchart_edge5" class="edge">
<path fill="none" stroke="#cfb87c" stroke-width="1.5" d="M891.65,-367C891.65,-367 891.65,-446.88 891.65,-446.88"/>
<polygon fill="#121212" stroke="#cfb87c" stroke-width="1.5" points="888.15,-446.88 891.65,-456.88 895.15,-446.88 888.15,-446.88"/>
</g>
<!-- TooBad -->
<g id="doc-flowchart_node7" class="node">
<ellipse fill="#121212" stroke="#cfb87c" stroke-width="2" stroke-dasharray="5,2" cx="863.84" cy="-219.16" rx="89.8" ry="34.29"/>
<text text-anchor="middle" x="863.84" y="-224.21" font-family="Verdana" font-size="16.00" fill="white">Has badness</text>
<text text-anchor="middle" x="863.84" y="-203.96" font-family="Verdana" font-size="16.00" fill="white">reached 100?</text>
</g>
<!-- Badness&#45;&gt;TooBad -->
<g id="doc-flowchart_edge6" class="edge">
<path fill="none" stroke="#cfb87c" stroke-width="1.5" d="M893.77,-326.53C893.77,-326.53 893.77,-264.47 893.77,-264.47"/>
<polygon fill="#121212" stroke="#cfb87c" stroke-width="1.5" points="897.27,-264.47 893.77,-254.47 890.27,-264.47 897.27,-264.47"/>
</g>
<!-- TooBad&#45;&gt;Badness -->
<g id="doc-flowchart_edge9" class="edge">
<path fill="none" stroke="#cfb87c" stroke-width="1.5" d="M833.9,-252.35C833.9,-252.35 833.9,-314.2 833.9,-314.2"/>
<polygon fill="#121212" stroke="#cfb87c" stroke-width="1.5" points="830.4,-314.2 833.9,-324.2 837.4,-314.2 830.4,-314.2"/>
<text text-anchor="middle" x="821.9" y="-286.48" font-family="Times,serif" font-size="14.00" fill="#cfb87c">No &#160;</text>
</g>
<!-- SentEmail -->
<g id="doc-flowchart_node9" class="node">
<ellipse fill="#121212" stroke="#cfb87c" stroke-width="2" cx="866.84" cy="-62.93" rx="173.59" ry="62.93"/>
<text text-anchor="middle" x="866.84" y="-88.23" font-family="Verdana" font-size="16.00" fill="white">Warning email sent, penalty</text>
<text text-anchor="middle" x="866.84" y="-67.98" font-family="Verdana" font-size="16.00" fill="white">occurrences increases by 1,</text>
<text text-anchor="middle" x="866.84" y="-47.73" font-family="Verdana" font-size="16.00" fill="white"> penalty state assigned,</text>
<text text-anchor="middle" x="866.84" y="-27.48" font-family="Verdana" font-size="16.00" fill="white">and resources throttled</text>
</g>
<!-- TooBad&#45;&gt;SentEmail -->
<g id="doc-flowchart_edge10" class="edge">
<path fill="none" stroke="#cfb87c" stroke-width="1.5" d="M863.84,-184.1C863.84,-184.1 863.84,-139.04 863.84,-139.04"/>
<polygon fill="#121212" stroke="#cfb87c" stroke-width="1.5" points="867.34,-139.04 863.84,-129.04 860.34,-139.04 867.34,-139.04"/>
<text text-anchor="middle" x="849.96" y="-164.77" font-family="Times,serif" font-size="14.00" fill="#cfb87c">Yes &#160;</text>
</g>
<!-- DurationEnded -->
<g id="doc-flowchart_node8" class="node">
<ellipse fill="#121212" stroke="#cfb87c" stroke-width="2" stroke-dasharray="5,2" cx="153.84" cy="-62.93" rx="104.65" ry="34.29"/>
<text text-anchor="middle" x="153.84" y="-67.98" font-family="Verdana" font-size="16.00" fill="white">Has the penalty</text>
<text text-anchor="middle" x="153.84" y="-47.73" font-family="Verdana" font-size="16.00" fill="white">duration ended?</text>
</g>
<!-- DurationEnded&#45;&gt;NS -->
<g id="doc-flowchart_edge13" class="edge">
<path fill="none" stroke="#cfb87c" stroke-width="1.5" d="M176.18,-97.17C176.18,-97.17 176.18,-313.8 176.18,-313.8"/>
<polygon fill="#121212" stroke="#cfb87c" stroke-width="1.5" points="172.68,-313.8 176.18,-323.8 179.68,-313.8 172.68,-313.8"/>
<text text-anchor="middle" x="162.3" y="-208.68" font-family="Times,serif" font-size="14.00" fill="#cfb87c">Yes &#160;</text>
</g>
<!-- DurationTimer -->
<g id="doc-flowchart_node10" class="node">
<ellipse fill="#121212" stroke="#cfb87c" stroke-width="2" cx="475.84" cy="-62.93" rx="117.91" ry="34.29"/>
<text text-anchor="middle" x="475.84" y="-67.98" font-family="Verdana" font-size="16.00" fill="white">Penalty duration</text>
<text text-anchor="middle" x="475.84" y="-47.73" font-family="Verdana" font-size="16.00" fill="white">timer counts down</text>
</g>
<!-- DurationEnded&#45;&gt;DurationTimer -->
<g id="doc-flowchart_edge14" class="edge">
<path fill="none" stroke="#cfb87c" stroke-width="1.5" d="M253.52,-51.5C253.52,-51.5 351.16,-51.5 351.16,-51.5"/>
<polygon fill="#121212" stroke="#cfb87c" stroke-width="1.5" points="351.16,-55 361.16,-51.5 351.16,-48 351.16,-55"/>
<text text-anchor="middle" x="292.21" y="-54.7" font-family="Times,serif" font-size="14.00" fill="#cfb87c"> No</text>
</g>
<!-- SentEmail&#45;&gt;DurationTimer -->
<g id="doc-flowchart_edge11" class="edge">
<path fill="none" stroke="#cfb87c" stroke-width="1.5" d="M692.49,-62.93C692.49,-62.93 606.88,-62.93 606.88,-62.93"/>
<polygon fill="#121212" stroke="#cfb87c" stroke-width="1.5" points="606.88,-59.43 596.88,-62.93 606.88,-66.43 606.88,-59.43"/>
</g>
<!-- DurationTimer&#45;&gt;DurationEnded -->
<g id="doc-flowchart_edge12" class="edge">
<path fill="none" stroke="#cfb87c" stroke-width="1.5" d="M363.67,-74.36C363.67,-74.36 266.05,-74.36 266.05,-74.36"/>
<polygon fill="#121212" stroke="#cfb87c" stroke-width="1.5" points="266.05,-70.86 256.05,-74.36 266.05,-77.86 266.05,-70.86"/>
</g>
</g>
</svg>