<!DOCTYPE svg PUBLIC "-//W3C//DTD SVG 1.1//EN" "http://www.w3.org/Graphics/SVG/1.1/DTD/svg11.dtd">
<!-- Generated by graphviz version 12.0.0 (0)
 --><!-- Pages: 1 --><svg xmlns="http://www.w3.org/2000/svg" xmlns:xlink="http://www.w3.org/1999/xlink" width="100%" height="100%" viewBox="0.00 0.00 1043.53 619.65">
<g id="doc-flowchart" class="graph" transform="scale(1 1) rotate(0) translate(4 615.65)">
<polygon fill="none" stroke="none" points="-4,4 -4,-615.65 1039.53,-615.65 1039.53,4 -4,4"/>
<!-- DoSomething -->
<g id="doc-flowchart_node1" class="node">
<ellipse fill="#121212" stroke="#cfb87c" stroke-width="2" cx="202.65" cy="-559.32" rx="137" ry="52.33"/>
<text text-anchor="middle" x="202.65" y="-579.97" font-family="Verdana" font-size="13.00" fill="white">If penalty occurrences &gt; 0,</text>
<text text-anchor="middle" x="202.65" y="-563.47" font-family="Verdana" font-size="13.00" fill="white">start the timer; at zero,</text>
<text text-anchor="middle" x="202.65" y="-546.97" font-family="Verdana" font-size="13.00" fill="white">reduce penalty occurrences</text>
<text text-anchor="middle" x="202.65" y="-530.47" font-family="Verdana" font-size="13.00" fill="white">by 1, repeating until zero.</text>
</g>
<!-- BadnessRed -->
<g id="doc-flowchart_node2" class="node">
<ellipse fill="#121212" stroke="#cfb87c" stroke-width="2" cx="536.65" cy="-559.32" rx="107.83" ry="19.98"/>
<text text-anchor="middle" x="536.65" y="-554.25" font-family="Verdana" font-size="16.00" fill="white">Badness reduces</text>
</g>
<!-- Exceed -->
<g id="doc-flowchart_node5" class="node">
<ellipse fill="#121212" stroke="#cfb87c" stroke-width="2" stroke-dasharray="5,2" cx="536.65" cy="-421.7" rx="109.96" ry="34.29"/>
<text text-anchor="middle" x="536.65" y="-426.75" font-family="Verdana" font-size="16.00" fill="white">Usage thresholds</text>
<text text-anchor="middle" x="536.65" y="-406.5" font-family="Verdana" font-size="16.00" fill="white">exceeded?</text>
</g>
<!-- BadnessRed&#45;&gt;Exceed -->
<g id="doc-flowchart_edge19" class="edge">
<path fill="none" stroke="#cfb87c" stroke-width="1.5" d="M536.65,-538.42C536.65,-538.42 536.65,-469.01 536.65,-469.01"/>
<polygon fill="#121212" stroke="#cfb87c" stroke-width="1.5" points="540.15,-469.01 536.65,-459.01 533.15,-469.01 540.15,-469.01"/>
</g>
<!-- BehFix -->
<g id="doc-flowchart_node3" class="node">
<ellipse fill="#121212" stroke="#cfb87c" stroke-width="2" stroke-dasharray="5,2" cx="900.65" cy="-559.32" rx="83.44" ry="34.29"/>
<text text-anchor="middle" x="900.65" y="-564.37" font-family="Verdana" font-size="16.00" fill="white">Below usage</text>
<text text-anchor="middle" x="900.65" y="-544.12" font-family="Verdana" font-size="16.00" fill="white">thresholds?</text>
</g>
<!-- BehFix&#45;&gt;BadnessRed -->
<g id="doc-flowchart_edge8" class="edge">
<path fill="none" stroke="#cfb87c" stroke-width="1.5" d="M816.23,-559.32C816.23,-559.32 657.43,-559.32 657.43,-559.32"/>
<polygon fill="#121212" stroke="#cfb87c" stroke-width="1.5" points="657.43,-555.82 647.43,-559.32 657.43,-562.82 657.43,-555.82"/>
<text text-anchor="middle" x="726.7" y="-562.52" font-family="Times,serif" font-size="14.00" fill="#cfb87c">Yes</text>
</g>
<!-- Badness -->
<g id="doc-flowchart_node6" class="node">
<ellipse fill="#121212" stroke="#cfb87c" stroke-width="2" cx="900.65" cy="-421.7" rx="134.88" ry="19.98"/>
<text text-anchor="middle" x="900.65" y="-416.63" font-family="Verdana" font-size="16.00" fill="white">Badness accumulates</text>
</g>
<!-- BehFix&#45;&gt;Badness -->
<g id="doc-flowchart_edge7" class="edge">
<path fill="none" stroke="#cfb87c" stroke-width="1.5" d="M872.84,-526.01C872.84,-526.01 872.84,-454.19 872.84,-454.19"/>
<polygon fill="#121212" stroke="#cfb87c" stroke-width="1.5" points="876.34,-454.19 872.84,-444.19 869.34,-454.19 876.34,-454.19"/>
<text text-anchor="middle" x="860.84" y="-493.3" font-family="Times,serif" font-size="14.00" fill="#cfb87c"> &#160;No</text>
</g>
<!-- NS -->
<g id="doc-flowchart_node4" class="node">
<ellipse fill="#121212" stroke="#cfb87c" stroke-width="2" cx="202.65" cy="-421.7" rx="83.97" ry="19.98"/>
<text text-anchor="middle" x="202.65" y="-416.63" font-family="Verdana" font-size="16.00" fill="white">normal state</text>
</g>
<!-- NS&#45;&gt;DoSomething -->
<g id="doc-flowchart_edge2" class="edge">
<path fill="none" stroke="#cfb87c" stroke-width="1.5" d="M202.65,-442.6C202.65,-442.6 202.65,-493.79 202.65,-493.79"/>
<polygon fill="#121212" stroke="#cfb87c" stroke-width="1.5" points="199.15,-493.79 202.65,-503.79 206.15,-493.79 199.15,-493.79"/>
</g>
<!-- NS&#45;&gt;Exceed -->
<g id="doc-flowchart_edge1" class="edge">
<path fill="none" stroke="#cfb87c" stroke-width="1.5" d="M283.08,-415.04C283.08,-415.04 415.62,-415.04 415.62,-415.04"/>
<polygon fill="#121212" stroke="#cfb87c" stroke-width="1.5" points="415.62,-418.54 425.62,-415.04 415.62,-411.54 415.62,-418.54"/>
</g>
<!-- Exceed&#45;&gt;NS -->
<g id="doc-flowchart_edge3" class="edge">
<path fill="none" stroke="#cfb87c" stroke-width="1.5" d="M427.75,-428.36C427.75,-428.36 295.35,-428.36 295.35,-428.36"/>
<polygon fill="#121212" stroke="#cfb87c" stroke-width="1.5" points="295.35,-424.86 285.35,-428.36 295.35,-431.86 295.35,-424.86"/>
<text text-anchor="middle" x="349.55" y="-431.56" font-family="Times,serif" font-size="14.00" fill="#cfb87c"> &#160;No</text>
</g>
<!-- Exceed&#45;&gt;Badness -->
<g id="doc-flowchart_edge4" class="edge">
<path fill="none" stroke="#cfb87c" stroke-width="1.5" d="M647.35,-421.7C647.35,-421.7 752.51,-421.7 752.51,-421.7"/>
<polygon fill="#121212" stroke="#cfb87c" stroke-width="1.5" points="752.51,-425.2 762.51,-421.7 752.51,-418.2 752.51,-425.2"/>
<text text-anchor="middle" x="689.8" y="-424.9" font-family="Times,serif" font-size="14.00" fill="#cfb87c">Yes</text>
</g>
<!-- Badness&#45;&gt;BehFix -->
<g id="doc-flowchart_edge5" class="edge">
<path fill="none" stroke="#cfb87c" stroke-width="1.5" d="M928.46,-442.01C928.46,-442.01 928.46,-513.85 928.46,-513.85"/>
<polygon fill="#121212" stroke="#cfb87c" stroke-width="1.5" points="924.96,-513.85 928.46,-523.85 931.96,-513.85 924.96,-513.85"/>
</g>
<!-- TooBad -->
<g id="doc-flowchart_node8" class="node">
<ellipse fill="#121212" stroke="#cfb87c" stroke-width="2" stroke-dasharray="5,2" cx="900.65" cy="-302.11" rx="89.8" ry="34.29"/>
<text text-anchor="middle" x="900.65" y="-307.16" font-family="Verdana" font-size="16.00" fill="white">Has badness</text>
<text text-anchor="middle" x="900.65" y="-286.91" font-family="Verdana" font-size="16.00" fill="white">reached 100?</text>
</g>
<!-- Badness&#45;&gt;TooBad -->
<g id="doc-flowchart_edge6" class="edge">
<path fill="none" stroke="#cfb87c" stroke-width="1.5" d="M930.59,-401.41C930.59,-401.41 930.59,-347.44 930.59,-347.44"/>
<polygon fill="#121212" stroke="#cfb87c" stroke-width="1.5" points="934.09,-347.44 930.59,-337.44 927.09,-347.44 934.09,-347.44"/>
</g>
<!-- Track -->
<g id="doc-flowchart_node7" class="node">
<ellipse fill="#121212" stroke="#cfb87c" stroke-width="2" stroke-dasharray="5,2" cx="578.65" cy="-302.11" rx="132.76" ry="34.29"/>
<text text-anchor="middle" x="578.65" y="-307.16" font-family="Verdana" font-size="16.00" fill="white">Do you have &gt;0</text>
<text text-anchor="middle" x="578.65" y="-286.91" font-family="Verdana" font-size="16.00" fill="white">penalty occurrences?</text>
</g>
<!-- Penalty1 -->
<g id="doc-flowchart_node9" class="node">
<ellipse fill="#121212" stroke="#cfb87c" stroke-width="2" cx="578.65" cy="-182.52" rx="93.51" ry="34.29"/>
<text text-anchor="middle" x="578.65" y="-187.57" font-family="Verdana" font-size="16.00" fill="white">penalty1 state</text>
<text text-anchor="middle" x="578.65" y="-167.32" font-family="Verdana" font-size="16.00" fill="white">assigned</text>
</g>
<!-- Track&#45;&gt;Penalty1 -->
<g id="doc-flowchart_edge11" class="edge">
<path fill="none" stroke="#cfb87c" stroke-width="1.5" d="M578.65,-266.88C578.65,-266.88 578.65,-229.77 578.65,-229.77"/>
<polygon fill="#121212" stroke="#cfb87c" stroke-width="1.5" points="582.15,-229.77 578.65,-219.77 575.15,-229.77 582.15,-229.77"/>
<text text-anchor="middle" x="568.53" y="-251.53" font-family="Times,serif" font-size="14.00" fill="#cfb87c"> No</text>
</g>
<!-- NextPen -->
<g id="doc-flowchart_node10" class="node">
<ellipse fill="#121212" stroke="#cfb87c" stroke-width="2" cx="817.65" cy="-182.52" rx="95.64" ry="34.29"/>
<text text-anchor="middle" x="817.65" y="-187.57" font-family="Verdana" font-size="16.00" fill="white">Penalty state</text>
<text text-anchor="middle" x="817.65" y="-167.32" font-family="Verdana" font-size="16.00" fill="white">increased by 1</text>
</g>
<!-- Track&#45;&gt;NextPen -->
<g id="doc-flowchart_edge12" class="edge">
<path fill="none" stroke="#cfb87c" stroke-width="1.5" d="M691.79,-283.43C691.79,-249.79 691.79,-182.52 691.79,-182.52 691.79,-182.52 709.03,-182.52 709.03,-182.52"/>
<polygon fill="#121212" stroke="#cfb87c" stroke-width="1.5" points="709.03,-186.02 719.03,-182.52 709.03,-179.02 709.03,-186.02"/>
<text text-anchor="middle" x="677.91" y="-227.55" font-family="Times,serif" font-size="14.00" fill="#cfb87c">Yes &#160;</text>
</g>
<!-- TooBad&#45;&gt;Badness -->
<g id="doc-flowchart_edge10" class="edge">
<path fill="none" stroke="#cfb87c" stroke-width="1.5" d="M870.72,-335.42C870.72,-335.42 870.72,-389.04 870.72,-389.04"/>
<polygon fill="#121212" stroke="#cfb87c" stroke-width="1.5" points="867.22,-389.04 870.72,-399.04 874.22,-389.04 867.22,-389.04"/>
<text text-anchor="middle" x="858.72" y="-365.43" font-family="Times,serif" font-size="14.00" fill="#cfb87c">No &#160;</text>
</g>
<!-- TooBad&#45;&gt;Track -->
<g id="doc-flowchart_edge9" class="edge">
<path fill="none" stroke="#cfb87c" stroke-width="1.5" d="M810.1,-302.11C810.1,-302.11 724.67,-302.11 724.67,-302.11"/>
<polygon fill="#121212" stroke="#cfb87c" stroke-width="1.5" points="724.67,-298.61 714.67,-302.11 724.67,-305.61 724.67,-298.61"/>
<text text-anchor="middle" x="757.26" y="-305.31" font-family="Times,serif" font-size="14.00" fill="#cfb87c">Yes</text>
</g>
<!-- SentEmail -->
<g id="doc-flowchart_node12" class="node">
<ellipse fill="#121212" stroke="#cfb87c" stroke-width="2" cx="817.65" cy="-48.61" rx="173.59" ry="48.61"/>
<text text-anchor="middle" x="817.65" y="-63.79" font-family="Verdana" font-size="16.00" fill="white">Warning email sent, penalty</text>
<text text-anchor="middle" x="817.65" y="-43.54" font-family="Verdana" font-size="16.00" fill="white">occurrences increases by 1,</text>
<text text-anchor="middle" x="817.65" y="-23.29" font-family="Verdana" font-size="16.00" fill="white">and resources throttled</text>
</g>
<!-- Penalty1&#45;&gt;SentEmail -->
<g id="doc-flowchart_edge13" class="edge">
<path fill="none" stroke="#cfb87c" stroke-width="1.5" d="M658.11,-163.62C658.11,-163.62 658.11,-81 658.11,-81"/>
<polygon fill="#121212" stroke="#cfb87c" stroke-width="1.5" points="661.61,-81 658.11,-71 654.61,-81 661.61,-81"/>
</g>
<!-- NextPen&#45;&gt;SentEmail -->
<g id="doc-flowchart_edge14" class="edge">
<path fill="none" stroke="#cfb87c" stroke-width="1.5" d="M817.65,-147.34C817.65,-147.34 817.65,-110.43 817.65,-110.43"/>
<polygon fill="#121212" stroke="#cfb87c" stroke-width="1.5" points="821.15,-110.43 817.65,-100.43 814.15,-110.43 821.15,-110.43"/>
</g>
<!-- DurationEnded -->
<g id="doc-flowchart_node11" class="node">
<ellipse fill="#121212" stroke="#cfb87c" stroke-width="2" stroke-dasharray="5,2" cx="104.65" cy="-48.61" rx="104.65" ry="34.29"/>
<text text-anchor="middle" x="104.65" y="-53.66" font-family="Verdana" font-size="16.00" fill="white">Has the penalty</text>
<text text-anchor="middle" x="104.65" y="-33.41" font-family="Verdana" font-size="16.00" fill="white">duration ended?</text>
</g>
<!-- DurationEnded&#45;&gt;NS -->
<g id="doc-flowchart_edge17" class="edge">
<path fill="none" stroke="#cfb87c" stroke-width="1.5" d="M163.99,-77.58C163.99,-77.58 163.99,-391.02 163.99,-391.02"/>
<polygon fill="#121212" stroke="#cfb87c" stroke-width="1.5" points="160.49,-391.02 163.99,-401.02 167.49,-391.02 160.49,-391.02"/>
<text text-anchor="middle" x="152.74" y="-237.5" font-family="Times,serif" font-size="14.00" fill="#cfb87c"> Yes</text>
</g>
<!-- DurationTimer -->
<g id="doc-flowchart_node13" class="node">
<ellipse fill="#121212" stroke="#cfb87c" stroke-width="2" cx="426.65" cy="-48.61" rx="117.91" ry="34.29"/>
<text text-anchor="middle" x="426.65" y="-53.66" font-family="Verdana" font-size="16.00" fill="white">Penalty duration</text>
<text text-anchor="middle" x="426.65" y="-33.41" font-family="Verdana" font-size="16.00" fill="white">timer counts down</text>
</g>
<!-- DurationEnded&#45;&gt;DurationTimer -->
<g id="doc-flowchart_edge18" class="edge">
<path fill="none" stroke="#cfb87c" stroke-width="1.5" d="M204.33,-37.18C204.33,-37.18 301.97,-37.18 301.97,-37.18"/>
<polygon fill="#121212" stroke="#cfb87c" stroke-width="1.5" points="301.97,-40.68 311.97,-37.18 301.97,-33.68 301.97,-40.68"/>
<text text-anchor="middle" x="243.03" y="-40.38" font-family="Times,serif" font-size="14.00" fill="#cfb87c"> No</text>
</g>
<!-- SentEmail&#45;&gt;DurationTimer -->
<g id="doc-flowchart_edge15" class="edge">
<path fill="none" stroke="#cfb87c" stroke-width="1.5" d="M643.31,-48.61C643.31,-48.61 557.7,-48.61 557.7,-48.61"/>
<polygon fill="#121212" stroke="#cfb87c" stroke-width="1.5" points="557.7,-45.11 547.7,-48.61 557.7,-52.11 557.7,-45.11"/>
</g>
<!-- DurationTimer&#45;&gt;DurationEnded -->
<g id="doc-flowchart_edge16" class="edge">
<path fill="none" stroke="#cfb87c" stroke-width="1.5" d="M314.48,-60.05C314.48,-60.05 216.86,-60.05 216.86,-60.05"/>
<polygon fill="#121212" stroke="#cfb87c" stroke-width="1.5" points="216.86,-56.55 206.86,-60.05 216.86,-63.55 216.86,-56.55"/>
</g>
</g>
</svg>