<!DOCTYPE svg PUBLIC "-//W3C//DTD SVG 1.1//EN" "http://www.w3.org/Graphics/SVG/1.1/DTD/svg11.dtd">
<!-- Generated by graphviz version 12.0.0 (0)
 --><!-- Pages: 1 --><svg xmlns="http://www.w3.org/2000/svg" xmlns:xlink="http://www.w3.org/1999/xlink" width="100%" height="100%" viewBox="0.00 0.00 1043.72 619.65">
<g id="doc-flowchart" class="graph" transform="scale(1 1) rotate(0) translate(4 615.65)">
<polygon fill="none" stroke="none" points="-4,4 -4,-615.65 1039.72,-615.65 1039.72,4 -4,4"/>
<!-- DoSomething -->
<g id="doc-flowchart_node1" class="node">
<ellipse fill="#121212" stroke="#cfb87c" stroke-width="2" cx="177.84" cy="-559.32" rx="177.84" ry="52.33"/>
<text text-anchor="middle" x="177.84" y="-579.97" font-family="Verdana" font-size="13.00" fill="white">If penalty occurrences &gt; 0,</text>
<text text-anchor="middle" x="177.84" y="-563.47" font-family="Verdana" font-size="13.00" fill="white">start penalty occurrences timer;</text>
<text text-anchor="middle" x="177.84" y="-546.97" font-family="Verdana" font-size="13.00" fill="white"> at zero, reduce penalty occurrences</text>
<text text-anchor="middle" x="177.84" y="-530.47" font-family="Verdana" font-size="13.00" fill="white">by 1, repeating until zero.</text>
</g>
<!-- BadnessRed -->
<g id="doc-flowchart_node2" class="node">
<ellipse fill="#121212" stroke="#cfb87c" stroke-width="2" cx="542.84" cy="-559.32" rx="107.83" ry="19.98"/>
<text text-anchor="middle" x="542.84" y="-554.25" font-family="Verdana" font-size="16.00" fill="white">Badness reduces</text>
</g>
<!-- Exceed -->
<g id="doc-flowchart_node5" class="node">
<ellipse fill="#121212" stroke="#cfb87c" stroke-width="2" stroke-dasharray="5,2" cx="542.84" cy="-421.7" rx="109.96" ry="34.29"/>
<text text-anchor="middle" x="542.84" y="-426.75" font-family="Verdana" font-size="16.00" fill="white">Usage thresholds</text>
<text text-anchor="middle" x="542.84" y="-406.5" font-family="Verdana" font-size="16.00" fill="white">exceeded?</text>
</g>
<!-- BadnessRed&#45;&gt;Exceed -->
<g id="doc-flowchart_edge19" class="edge">
<path fill="none" stroke="#cfb87c" stroke-width="1.5" d="M542.84,-538.42C542.84,-538.42 542.84,-469.01 542.84,-469.01"/>
<polygon fill="#121212" stroke="#cfb87c" stroke-width="1.5" points="546.34,-469.01 542.84,-459.01 539.34,-469.01 546.34,-469.01"/>
</g>
<!-- BehFix -->
<g id="doc-flowchart_node3" class="node">
<ellipse fill="#121212" stroke="#cfb87c" stroke-width="2" stroke-dasharray="5,2" cx="900.84" cy="-559.32" rx="83.44" ry="34.29"/>
<text text-anchor="middle" x="900.84" y="-564.37" font-family="Verdana" font-size="16.00" fill="white">Below usage</text>
<text text-anchor="middle" x="900.84" y="-544.12" font-family="Verdana" font-size="16.00" fill="white">thresholds?</text>
</g>
<!-- BehFix&#45;&gt;BadnessRed -->
<g id="doc-flowchart_edge8" class="edge">
<path fill="none" stroke="#cfb87c" stroke-width="1.5" d="M816.45,-559.32C816.45,-559.32 663.71,-559.32 663.71,-559.32"/>
<polygon fill="#121212" stroke="#cfb87c" stroke-width="1.5" points="663.71,-555.82 653.71,-559.32 663.71,-562.82 663.71,-555.82"/>
<text text-anchor="middle" x="729.96" y="-562.52" font-family="Times,serif" font-size="14.00" fill="#cfb87c">Yes</text>
</g>
<!-- Badness -->
<g id="doc-flowchart_node6" class="node">
<ellipse fill="#121212" stroke="#cfb87c" stroke-width="2" cx="900.84" cy="-421.7" rx="134.88" ry="19.98"/>
<text text-anchor="middle" x="900.84" y="-416.63" font-family="Verdana" font-size="16.00" fill="white">Badness accumulates</text>
</g>
<!-- BehFix&#45;&gt;Badness -->
<g id="doc-flowchart_edge7" class="edge">
<path fill="none" stroke="#cfb87c" stroke-width="1.5" d="M873.02,-526.01C873.02,-526.01 873.02,-454.19 873.02,-454.19"/>
<polygon fill="#121212" stroke="#cfb87c" stroke-width="1.5" points="876.52,-454.19 873.02,-444.19 869.52,-454.19 876.52,-454.19"/>
<text text-anchor="middle" x="861.02" y="-493.3" font-family="Times,serif" font-size="14.00" fill="#cfb87c"> &#160;No</text>
</g>
<!-- NS -->
<g id="doc-flowchart_node4" class="node">
<ellipse fill="#121212" stroke="#cfb87c" stroke-width="2" cx="177.84" cy="-421.7" rx="83.97" ry="19.98"/>
<text text-anchor="middle" x="177.84" y="-416.63" font-family="Verdana" font-size="16.00" fill="white">normal state</text>
</g>
<!-- NS&#45;&gt;DoSomething -->
<g id="doc-flowchart_edge2" class="edge">
<path fill="none" stroke="#cfb87c" stroke-width="1.5" d="M177.84,-442.6C177.84,-442.6 177.84,-493.79 177.84,-493.79"/>
<polygon fill="#121212" stroke="#cfb87c" stroke-width="1.5" points="174.34,-493.79 177.84,-503.79 181.34,-493.79 174.34,-493.79"/>
</g>
<!-- NS&#45;&gt;Exceed -->
<g id="doc-flowchart_edge1" class="edge">
<path fill="none" stroke="#cfb87c" stroke-width="1.5" d="M258.39,-415.04C258.39,-415.04 421.83,-415.04 421.83,-415.04"/>
<polygon fill="#121212" stroke="#cfb87c" stroke-width="1.5" points="421.83,-418.54 431.83,-415.04 421.83,-411.54 421.83,-418.54"/>
</g>
<!-- Exceed&#45;&gt;NS -->
<g id="doc-flowchart_edge3" class="edge">
<path fill="none" stroke="#cfb87c" stroke-width="1.5" d="M434.31,-428.36C434.31,-428.36 270.68,-428.36 270.68,-428.36"/>
<polygon fill="#121212" stroke="#cfb87c" stroke-width="1.5" points="270.68,-424.86 260.68,-428.36 270.68,-431.86 270.68,-424.86"/>
<text text-anchor="middle" x="340.49" y="-431.56" font-family="Times,serif" font-size="14.00" fill="#cfb87c"> &#160;No</text>
</g>
<!-- Exceed&#45;&gt;Badness -->
<g id="doc-flowchart_edge4" class="edge">
<path fill="none" stroke="#cfb87c" stroke-width="1.5" d="M653.66,-421.7C653.66,-421.7 752.74,-421.7 752.74,-421.7"/>
<polygon fill="#121212" stroke="#cfb87c" stroke-width="1.5" points="752.74,-425.2 762.74,-421.7 752.74,-418.2 752.74,-425.2"/>
<text text-anchor="middle" x="693.07" y="-424.9" font-family="Times,serif" font-size="14.00" fill="#cfb87c">Yes</text>
</g>
<!-- Badness&#45;&gt;BehFix -->
<g id="doc-flowchart_edge5" class="edge">
<path fill="none" stroke="#cfb87c" stroke-width="1.5" d="M928.65,-442.01C928.65,-442.01 928.65,-513.85 928.65,-513.85"/>
<polygon fill="#121212" stroke="#cfb87c" stroke-width="1.5" points="925.15,-513.85 928.65,-523.85 932.15,-513.85 925.15,-513.85"/>
</g>
<!-- TooBad -->
<g id="doc-flowchart_node8" class="node">
<ellipse fill="#121212" stroke="#cfb87c" stroke-width="2" stroke-dasharray="5,2" cx="900.84" cy="-302.11" rx="89.8" ry="34.29"/>
<text text-anchor="middle" x="900.84" y="-307.16" font-family="Verdana" font-size="16.00" fill="white">Has badness</text>
<text text-anchor="middle" x="900.84" y="-286.91" font-family="Verdana" font-size="16.00" fill="white">reached 100?</text>
</g>
<!-- Badness&#45;&gt;TooBad -->
<g id="doc-flowchart_edge6" class="edge">
<path fill="none" stroke="#cfb87c" stroke-width="1.5" d="M930.77,-401.41C930.77,-401.41 930.77,-347.44 930.77,-347.44"/>
<polygon fill="#121212" stroke="#cfb87c" stroke-width="1.5" points="934.27,-347.44 930.77,-337.44 927.27,-347.44 934.27,-347.44"/>
</g>
<!-- Track -->
<g id="doc-flowchart_node7" class="node">
<ellipse fill="#121212" stroke="#cfb87c" stroke-width="2" stroke-dasharray="5,2" cx="578.84" cy="-302.11" rx="132.76" ry="34.29"/>
<text text-anchor="middle" x="578.84" y="-307.16" font-family="Verdana" font-size="16.00" fill="white">Do you have &gt;0</text>
<text text-anchor="middle" x="578.84" y="-286.91" font-family="Verdana" font-size="16.00" fill="white">penalty occurrences?</text>
</g>
<!-- Penalty1 -->
<g id="doc-flowchart_node9" class="node">
<ellipse fill="#121212" stroke="#cfb87c" stroke-width="2" cx="578.84" cy="-182.52" rx="93.51" ry="34.29"/>
<text text-anchor="middle" x="578.84" y="-187.57" font-family="Verdana" font-size="16.00" fill="white">penalty1 state</text>
<text text-anchor="middle" x="578.84" y="-167.32" font-family="Verdana" font-size="16.00" fill="white">assigned</text>
</g>
<!-- Track&#45;&gt;Penalty1 -->
<g id="doc-flowchart_edge11" class="edge">
<path fill="none" stroke="#cfb87c" stroke-width="1.5" d="M578.84,-266.88C578.84,-266.88 578.84,-229.77 578.84,-229.77"/>
<polygon fill="#121212" stroke="#cfb87c" stroke-width="1.5" points="582.34,-229.77 578.84,-219.77 575.34,-229.77 582.34,-229.77"/>
<text text-anchor="middle" x="568.71" y="-251.53" font-family="Times,serif" font-size="14.00" fill="#cfb87c"> No</text>
</g>
<!-- NextPen -->
<g id="doc-flowchart_node10" class="node">
<ellipse fill="#121212" stroke="#cfb87c" stroke-width="2" cx="817.84" cy="-182.52" rx="95.64" ry="34.29"/>
<text text-anchor="middle" x="817.84" y="-187.57" font-family="Verdana" font-size="16.00" fill="white">Penalty state</text>
<text text-anchor="middle" x="817.84" y="-167.32" font-family="Verdana" font-size="16.00" fill="white">increased by 1</text>
</g>
<!-- Track&#45;&gt;NextPen -->
<g id="doc-flowchart_edge12" class="edge">
<path fill="none" stroke="#cfb87c" stroke-width="1.5" d="M691.97,-283.43C691.97,-249.79 691.97,-182.52 691.97,-182.52 691.97,-182.52 709.21,-182.52 709.21,-182.52"/>
<polygon fill="#121212" stroke="#cfb87c" stroke-width="1.5" points="709.21,-186.02 719.21,-182.52 709.21,-179.02 709.21,-186.02"/>
<text text-anchor="middle" x="678.1" y="-227.55" font-family="Times,serif" font-size="14.00" fill="#cfb87c">Yes &#160;</text>
</g>
<!-- TooBad&#45;&gt;Badness -->
<g id="doc-flowchart_edge10" class="edge">
<path fill="none" stroke="#cfb87c" stroke-width="1.5" d="M870.9,-335.42C870.9,-335.42 870.9,-389.04 870.9,-389.04"/>
<polygon fill="#121212" stroke="#cfb87c" stroke-width="1.5" points="867.4,-389.04 870.9,-399.04 874.4,-389.04 867.4,-389.04"/>
<text text-anchor="middle" x="858.9" y="-365.43" font-family="Times,serif" font-size="14.00" fill="#cfb87c">No &#160;</text>
</g>
<!-- TooBad&#45;&gt;Track -->
<g id="doc-flowchart_edge9" class="edge">
<path fill="none" stroke="#cfb87c" stroke-width="1.5" d="M810.29,-302.11C810.29,-302.11 724.85,-302.11 724.85,-302.11"/>
<polygon fill="#121212" stroke="#cfb87c" stroke-width="1.5" points="724.85,-298.61 714.85,-302.11 724.85,-305.61 724.85,-298.61"/>
<text text-anchor="middle" x="757.45" y="-305.31" font-family="Times,serif" font-size="14.00" fill="#cfb87c">Yes</text>
</g>
<!-- SentEmail -->
<g id="doc-flowchart_node12" class="node">
<ellipse fill="#121212" stroke="#cfb87c" stroke-width="2" cx="817.84" cy="-48.61" rx="173.59" ry="48.61"/>
<text text-anchor="middle" x="817.84" y="-63.79" font-family="Verdana" font-size="16.00" fill="white">Warning email sent, penalty</text>
<text text-anchor="middle" x="817.84" y="-43.54" font-family="Verdana" font-size="16.00" fill="white">occurrences increases by 1,</text>
<text text-anchor="middle" x="817.84" y="-23.29" font-family="Verdana" font-size="16.00" fill="white">and resources throttled</text>
</g>
<!-- Penalty1&#45;&gt;SentEmail -->
<g id="doc-flowchart_edge13" class="edge">
<path fill="none" stroke="#cfb87c" stroke-width="1.5" d="M658.3,-163.62C658.3,-163.62 658.3,-81 658.3,-81"/>
<polygon fill="#121212" stroke="#cfb87c" stroke-width="1.5" points="661.8,-81 658.3,-71 654.8,-81 661.8,-81"/>
</g>
<!-- NextPen&#45;&gt;SentEmail -->
<g id="doc-flowchart_edge14" class="edge">
<path fill="none" stroke="#cfb87c" stroke-width="1.5" d="M817.84,-147.34C817.84,-147.34 817.84,-110.43 817.84,-110.43"/>
<polygon fill="#121212" stroke="#cfb87c" stroke-width="1.5" points="821.34,-110.43 817.84,-100.43 814.34,-110.43 821.34,-110.43"/>
</g>
<!-- DurationEnded -->
<g id="doc-flowchart_node11" class="node">
<ellipse fill="#121212" stroke="#cfb87c" stroke-width="2" stroke-dasharray="5,2" cx="104.84" cy="-48.61" rx="104.65" ry="34.29"/>
<text text-anchor="middle" x="104.84" y="-53.66" font-family="Verdana" font-size="16.00" fill="white">Has the penalty</text>
<text text-anchor="middle" x="104.84" y="-33.41" font-family="Verdana" font-size="16.00" fill="white">duration ended?</text>
</g>
<!-- DurationEnded&#45;&gt;NS -->
<g id="doc-flowchart_edge17" class="edge">
<path fill="none" stroke="#cfb87c" stroke-width="1.5" d="M151.68,-80.1C151.68,-80.1 151.68,-389.66 151.68,-389.66"/>
<polygon fill="#121212" stroke="#cfb87c" stroke-width="1.5" points="148.18,-389.66 151.68,-399.66 155.18,-389.66 148.18,-389.66"/>
<text text-anchor="middle" x="137.8" y="-238.08" font-family="Times,serif" font-size="14.00" fill="#cfb87c">Yes &#160;</text>
</g>
<!-- DurationTimer -->
<g id="doc-flowchart_node13" class="node">
<ellipse fill="#121212" stroke="#cfb87c" stroke-width="2" cx="426.84" cy="-48.61" rx="117.91" ry="34.29"/>
<text text-anchor="middle" x="426.84" y="-53.66" font-family="Verdana" font-size="16.00" fill="white">Penalty duration</text>
<text text-anchor="middle" x="426.84" y="-33.41" font-family="Verdana" font-size="16.00" fill="white">timer counts down</text>
</g>
<!-- DurationEnded&#45;&gt;DurationTimer -->
<g id="doc-flowchart_edge18" class="edge">
<path fill="none" stroke="#cfb87c" stroke-width="1.5" d="M204.52,-37.18C204.52,-37.18 302.16,-37.18 302.16,-37.18"/>
<polygon fill="#121212" stroke="#cfb87c" stroke-width="1.5" points="302.16,-40.68 312.16,-37.18 302.16,-33.68 302.16,-40.68"/>
<text text-anchor="middle" x="243.21" y="-40.38" font-family="Times,serif" font-size="14.00" fill="#cfb87c"> No</text>
</g>
<!-- SentEmail&#45;&gt;DurationTimer -->
<g id="doc-flowchart_edge15" class="edge">
<path fill="none" stroke="#cfb87c" stroke-width="1.5" d="M643.49,-48.61C643.49,-48.61 557.88,-48.61 557.88,-48.61"/>
<polygon fill="#121212" stroke="#cfb87c" stroke-width="1.5" points="557.88,-45.11 547.88,-48.61 557.88,-52.11 557.88,-45.11"/>
</g>
<!-- DurationTimer&#45;&gt;DurationEnded -->
<g id="doc-flowchart_edge16" class="edge">
<path fill="none" stroke="#cfb87c" stroke-width="1.5" d="M314.67,-60.05C314.67,-60.05 217.05,-60.05 217.05,-60.05"/>
<polygon fill="#121212" stroke="#cfb87c" stroke-width="1.5" points="217.05,-56.55 207.05,-60.05 217.05,-63.55 217.05,-56.55"/>
</g>
</g>
</svg>