<!DOCTYPE svg PUBLIC "-//W3C//DTD SVG 1.1//EN" "http://www.w3.org/Graphics/SVG/1.1/DTD/svg11.dtd">
<!-- Generated by graphviz version 12.0.0 (0)
 --><!-- Pages: 1 --><svg xmlns="http://www.w3.org/2000/svg" xmlns:xlink="http://www.w3.org/1999/xlink" width="100%" height="100%" viewBox="0.00 0.00 897.85 806.43">
<g id="doc-flowchart" class="graph" transform="scale(1 1) rotate(0) translate(4 802.43)">
<polygon fill="none" stroke="none" points="-4,4 -4,-802.43 893.85,-802.43 893.85,4 -4,4"/>
<!-- DoSomething -->
<g id="doc-flowchart_node1" class="node">
<ellipse fill="#121212" stroke="#cfb87c" stroke-width="2" cx="377.97" cy="-756.71" rx="108.89" ry="41.72"/>
<text text-anchor="middle" x="377.97" y="-772.71" font-family="Verdana" font-size="10.00" fill="white">If penalty occurrences &gt; 0,</text>
<text text-anchor="middle" x="377.97" y="-759.96" font-family="Verdana" font-size="10.00" fill="white">start the timer; at zero,</text>
<text text-anchor="middle" x="377.97" y="-747.21" font-family="Verdana" font-size="10.00" fill="white">reduce penalty occurrences</text>
<text text-anchor="middle" x="377.97" y="-734.46" font-family="Verdana" font-size="10.00" fill="white">by 1, repeating until zero.</text>
</g>
<!-- NS -->
<g id="doc-flowchart_node2" class="node">
<ellipse fill="#121212" stroke="#cfb87c" stroke-width="2" cx="83.97" cy="-648.51" rx="83.97" ry="19.98"/>
<text text-anchor="middle" x="83.97" y="-643.44" font-family="Verdana" font-size="16.00" fill="white">normal state</text>
</g>
<!-- Exceed -->
<g id="doc-flowchart_node3" class="node">
<ellipse fill="#121212" stroke="#cfb87c" stroke-width="2" stroke-dasharray="5,2" cx="377.97" cy="-648.51" rx="138.06" ry="19.98"/>
<text text-anchor="middle" x="377.97" y="-643.44" font-family="Verdana" font-size="16.00" fill="white">Thresholds exceeded?</text>
</g>
<!-- NS&#45;&gt;Exceed -->
<g id="doc-flowchart_edge1" class="edge">
<path fill="none" stroke="#cfb87c" stroke-width="1.5" d="M168.67,-648.51C188.08,-648.51 207.48,-648.51 226.89,-648.51"/>
<polygon fill="#121212" stroke="#cfb87c" stroke-width="1.5" points="226.71,-652.01 236.71,-648.51 226.71,-645.01 226.71,-652.01"/>
</g>
<!-- Exceed&#45;&gt;DoSomething -->
<g id="doc-flowchart_edge2" class="edge">
<path fill="none" stroke="#cfb87c" stroke-width="1.5" d="M377.97,-669.47C377.97,-678.79 377.97,-690.38 377.97,-702"/>
<polygon fill="#121212" stroke="#cfb87c" stroke-width="1.5" points="374.47,-701.77 377.97,-711.77 381.47,-701.77 374.47,-701.77"/>
<text text-anchor="middle" x="389.97" y="-686.69" font-family="Times,serif" font-size="14.00" fill="#cfb87c"> &#160;No</text>
</g>
<!-- Badness -->
<g id="doc-flowchart_node4" class="node">
<ellipse fill="#121212" stroke="#cfb87c" stroke-width="2" cx="754.97" cy="-648.51" rx="134.88" ry="19.98"/>
<text text-anchor="middle" x="754.97" y="-643.44" font-family="Verdana" font-size="16.00" fill="white">Badness accumulates</text>
</g>
<!-- Exceed&#45;&gt;Badness -->
<g id="doc-flowchart_edge3" class="edge">
<path fill="none" stroke="#cfb87c" stroke-width="1.5" d="M517.01,-648.51C546.34,-648.51 577.38,-648.51 607.02,-648.51"/>
<polygon fill="#121212" stroke="#cfb87c" stroke-width="1.5" points="606.92,-652.01 616.91,-648.51 606.91,-645.01 606.92,-652.01"/>
<text text-anchor="middle" x="568.06" y="-654.71" font-family="Times,serif" font-size="14.00" fill="#cfb87c">Yes</text>
</g>
<!-- TooBad -->
<g id="doc-flowchart_node5" class="node">
<ellipse fill="#121212" stroke="#cfb87c" stroke-width="2" stroke-dasharray="5,2" cx="757.97" cy="-563.24" rx="89.8" ry="34.29"/>
<text text-anchor="middle" x="757.97" y="-568.29" font-family="Verdana" font-size="16.00" fill="white">Has badness</text>
<text text-anchor="middle" x="757.97" y="-548.04" font-family="Verdana" font-size="16.00" fill="white">reached 100?</text>
</g>
<!-- Badness&#45;&gt;TooBad -->
<g id="doc-flowchart_edge4" class="edge">
<path fill="none" stroke="#cfb87c" stroke-width="1.5" d="M755.68,-627.78C755.87,-622.44 756.09,-616.44 756.31,-610.31"/>
<polygon fill="#121212" stroke="#cfb87c" stroke-width="1.5" points="759.79,-610.88 756.65,-600.76 752.8,-610.63 759.79,-610.88"/>
</g>
<!-- Track -->
<g id="doc-flowchart_node6" class="node">
<ellipse fill="#121212" stroke="#cfb87c" stroke-width="2" stroke-dasharray="5,2" cx="463.97" cy="-563.24" rx="132.76" ry="34.29"/>
<text text-anchor="middle" x="463.97" y="-568.29" font-family="Verdana" font-size="16.00" fill="white">Do you have &gt;0</text>
<text text-anchor="middle" x="463.97" y="-548.04" font-family="Verdana" font-size="16.00" fill="white">penalty occurrences?</text>
</g>
<!-- TooBad&#45;&gt;Track -->
<g id="doc-flowchart_edge5" class="edge">
<path fill="none" stroke="#cfb87c" stroke-width="1.5" d="M667.54,-563.24C649.23,-563.24 629.53,-563.24 609.86,-563.24"/>
<polygon fill="#121212" stroke="#cfb87c" stroke-width="1.5" points="609.91,-559.74 599.9,-563.24 609.9,-566.74 609.91,-559.74"/>
<text text-anchor="middle" x="632.45" y="-569.44" font-family="Times,serif" font-size="14.00" fill="#cfb87c">Yes</text>
</g>
<!-- Penalty1 -->
<g id="doc-flowchart_node7" class="node">
<ellipse fill="#121212" stroke="#cfb87c" stroke-width="2" cx="463.97" cy="-448.15" rx="93.51" ry="34.29"/>
<text text-anchor="middle" x="463.97" y="-453.2" font-family="Verdana" font-size="16.00" fill="white">penalty1 state</text>
<text text-anchor="middle" x="463.97" y="-432.95" font-family="Verdana" font-size="16.00" fill="white">assigned</text>
</g>
<!-- Track&#45;&gt;Penalty1 -->
<g id="doc-flowchart_edge6" class="edge">
<path fill="none" stroke="#cfb87c" stroke-width="1.5" d="M463.97,-528C463.97,-517.71 463.97,-506.23 463.97,-495.3"/>
<polygon fill="#121212" stroke="#cfb87c" stroke-width="1.5" points="467.47,-495.54 463.97,-485.54 460.47,-495.54 467.47,-495.54"/>
<text text-anchor="middle" x="474.09" y="-500.65" font-family="Times,serif" font-size="14.00" fill="#cfb87c"> No</text>
</g>
<!-- NextPen -->
<g id="doc-flowchart_node8" class="node">
<ellipse fill="#121212" stroke="#cfb87c" stroke-width="2" cx="688.97" cy="-448.15" rx="95.64" ry="34.29"/>
<text text-anchor="middle" x="688.97" y="-453.2" font-family="Verdana" font-size="16.00" fill="white">Penalty state</text>
<text text-anchor="middle" x="688.97" y="-432.95" font-family="Verdana" font-size="16.00" fill="white">increased by 1</text>
</g>
<!-- Track&#45;&gt;NextPen -->
<g id="doc-flowchart_edge7" class="edge">
<path fill="none" stroke="#cfb87c" stroke-width="1.5" d="M524.56,-531.79C554.95,-516.51 591.81,-497.99 622.92,-482.35"/>
<polygon fill="#121212" stroke="#cfb87c" stroke-width="1.5" points="624.27,-485.59 631.64,-477.97 621.13,-479.33 624.27,-485.59"/>
<text text-anchor="middle" x="601.22" y="-500.65" font-family="Times,serif" font-size="14.00" fill="#cfb87c"> Yes</text>
</g>
<!-- SentEmail -->
<g id="doc-flowchart_node9" class="node">
<ellipse fill="#121212" stroke="#cfb87c" stroke-width="2" cx="688.97" cy="-348.56" rx="144.96" ry="34.29"/>
<text text-anchor="middle" x="688.97" y="-353.61" font-family="Verdana" font-size="16.00" fill="white">Warning email sent</text>
<text text-anchor="middle" x="688.97" y="-333.36" font-family="Verdana" font-size="16.00" fill="white">and resources throttled</text>
</g>
<!-- Penalty1&#45;&gt;SentEmail -->
<g id="doc-flowchart_edge8" class="edge">
<path fill="none" stroke="#cfb87c" stroke-width="1.5" d="M524.26,-421C550.24,-409.74 580.98,-396.4 608.83,-384.32"/>
<polygon fill="#121212" stroke="#cfb87c" stroke-width="1.5" points="609.88,-387.68 617.66,-380.49 607.1,-381.26 609.88,-387.68"/>
</g>
<!-- NextPen&#45;&gt;SentEmail -->
<g id="doc-flowchart_edge9" class="edge">
<path fill="none" stroke="#cfb87c" stroke-width="1.5" d="M688.97,-413.02C688.97,-407.41 688.97,-401.51 688.97,-395.66"/>
<polygon fill="#121212" stroke="#cfb87c" stroke-width="1.5" points="692.47,-396.11 688.97,-386.11 685.47,-396.11 692.47,-396.11"/>
</g>
<!-- DurationTimer -->
<g id="doc-flowchart_node10" class="node">
<ellipse fill="#121212" stroke="#cfb87c" stroke-width="2" cx="366.97" cy="-348.56" rx="105.18" ry="34.29"/>
<text text-anchor="middle" x="366.97" y="-353.61" font-family="Verdana" font-size="16.00" fill="white">Penalty duration</text>
<text text-anchor="middle" x="366.97" y="-333.36" font-family="Verdana" font-size="16.00" fill="white">timer starts</text>
</g>
<!-- SentEmail&#45;&gt;DurationTimer -->
<g id="doc-flowchart_edge10" class="edge">
<path fill="none" stroke="#cfb87c" stroke-width="1.5" d="M543.4,-348.56C523.95,-348.56 504.5,-348.56 485.05,-348.56"/>
<polygon fill="#121212" stroke="#cfb87c" stroke-width="1.5" points="485.21,-345.06 475.21,-348.56 485.21,-352.06 485.21,-345.06"/>
</g>
<!-- DurationEnded -->
<g id="doc-flowchart_node11" class="node">
<ellipse fill="#121212" stroke="#cfb87c" stroke-width="2" stroke-dasharray="5,2" cx="366.97" cy="-248.97" rx="104.65" ry="34.29"/>
<text text-anchor="middle" x="366.97" y="-254.02" font-family="Verdana" font-size="16.00" fill="white">Has the penalty</text>
<text text-anchor="middle" x="366.97" y="-233.77" font-family="Verdana" font-size="16.00" fill="white">duration ended?</text>
</g>
<!-- DurationTimer&#45;&gt;DurationEnded -->
<g id="doc-flowchart_edge11" class="edge">
<path fill="none" stroke="#cfb87c" stroke-width="1.5" d="M366.97,-313.43C366.97,-307.82 366.97,-301.92 366.97,-296.07"/>
<polygon fill="#121212" stroke="#cfb87c" stroke-width="1.5" points="370.47,-296.52 366.97,-286.52 363.47,-296.52 370.47,-296.52"/>
</g>
<!-- BadnessFed -->
<g id="doc-flowchart_node12" class="node">
<ellipse fill="#121212" stroke="#cfb87c" stroke-width="2" cx="238.97" cy="-133.88" rx="100.41" ry="34.29"/>
<text text-anchor="middle" x="238.97" y="-138.93" font-family="Verdana" font-size="16.00" fill="white">Badness begins</text>
<text text-anchor="middle" x="238.97" y="-118.68" font-family="Verdana" font-size="16.00" fill="white">to reduce</text>
</g>
<!-- DurationEnded&#45;&gt;BadnessFed -->
<g id="doc-flowchart_edge12" class="edge">
<path fill="none" stroke="#cfb87c" stroke-width="1.5" d="M330.63,-215.87C316.05,-202.99 299.1,-188.01 283.76,-174.46"/>
<polygon fill="#121212" stroke="#cfb87c" stroke-width="1.5" points="286.47,-172.18 276.66,-168.18 281.83,-177.42 286.47,-172.18"/>
<text text-anchor="middle" x="322.22" y="-186.38" font-family="Times,serif" font-size="14.00" fill="#cfb87c"> Yes</text>
</g>
<!-- BadnessFed&#45;&gt;Exceed -->
<g id="doc-flowchart_edge14" class="edge">
<path fill="none" stroke="#cfb87c" stroke-width="1.5" d="M224.28,-168.33C215.87,-190.48 206.97,-220.43 206.97,-247.97 206.97,-564.24 206.97,-564.24 206.97,-564.24 206.97,-598.21 234.58,-618.32 267.61,-630.23"/>
<polygon fill="#121212" stroke="#cfb87c" stroke-width="1.5" points="266.24,-633.47 276.84,-633.26 268.42,-626.82 266.24,-633.47"/>
</g>
<!-- BadAtZero -->
<g id="doc-flowchart_node13" class="node">
<ellipse fill="#121212" stroke="#cfb87c" stroke-width="2" stroke-dasharray="5,2" cx="104.97" cy="-34.29" rx="72.83" ry="34.29"/>
<text text-anchor="middle" x="104.97" y="-39.34" font-family="Verdana" font-size="16.00" fill="white">Is badness</text>
<text text-anchor="middle" x="104.97" y="-19.09" font-family="Verdana" font-size="16.00" fill="white">at zero?</text>
</g>
<!-- BadnessFed&#45;&gt;BadAtZero -->
<g id="doc-flowchart_edge13" class="edge">
<path fill="none" stroke="#cfb87c" stroke-width="1.5" d="M196.57,-102.01C183.12,-92.21 168.13,-81.3 154.24,-71.18"/>
<polygon fill="#121212" stroke="#cfb87c" stroke-width="1.5" points="156.34,-68.38 146.19,-65.32 152.22,-74.03 156.34,-68.38"/>
</g>
<!-- BadAtZero&#45;&gt;NS -->
<g id="doc-flowchart_edge15" class="edge">
<path fill="none" stroke="#cfb87c" stroke-width="1.5" d="M94.1,-68.79C88.98,-87.45 83.97,-111.22 83.97,-132.88 83.97,-564.24 83.97,-564.24 83.97,-564.24 83.97,-581.18 83.97,-600.06 83.97,-615.56"/>
<polygon fill="#121212" stroke="#cfb87c" stroke-width="1.5" points="80.47,-615.39 83.97,-625.39 87.47,-615.39 80.47,-615.39"/>
<text text-anchor="middle" x="97.09" y="-343.51" font-family="Times,serif" font-size="14.00" fill="#cfb87c"> &#160;Yes</text>
</g>
</g>
</svg>