<!DOCTYPE svg PUBLIC "-//W3C//DTD SVG 1.1//EN" "http://www.w3.org/Graphics/SVG/1.1/DTD/svg11.dtd">
<!-- Generated by graphviz version 12.0.0 (0)
 --><!-- Pages: 1 --><svg xmlns="http://www.w3.org/2000/svg" xmlns:xlink="http://www.w3.org/1999/xlink" width="100%" height="100%" viewBox="0.00 0.00 1293.15 821.93">
<g id="doc-flowchart" class="graph" transform="scale(1 1) rotate(0) translate(4 817.93)">
<polygon fill="none" stroke="none" points="-4,4 -4,-817.93 1289.15,-817.93 1289.15,4 -4,4"/>
<!-- DoSomething -->
<g id="doc-flowchart_node1" class="node">
<ellipse fill="#121212" stroke="#cfb87c" stroke-width="2" cx="377.97" cy="-772.21" rx="108.89" ry="41.72"/>
<text text-anchor="middle" x="377.97" y="-788.21" font-family="Verdana" font-size="10.00" fill="white">If penalty occurrences &gt; 0,</text>
<text text-anchor="middle" x="377.97" y="-775.46" font-family="Verdana" font-size="10.00" fill="white">start the timer; at zero,</text>
<text text-anchor="middle" x="377.97" y="-762.71" font-family="Verdana" font-size="10.00" fill="white">reduce penalty occurrences</text>
<text text-anchor="middle" x="377.97" y="-749.96" font-family="Verdana" font-size="10.00" fill="white">by 1, repeating until zero.</text>
</g>
<!-- NS -->
<g id="doc-flowchart_node2" class="node">
<ellipse fill="#121212" stroke="#cfb87c" stroke-width="2" cx="83.97" cy="-664.01" rx="83.97" ry="19.98"/>
<text text-anchor="middle" x="83.97" y="-658.94" font-family="Verdana" font-size="16.00" fill="white">normal state</text>
</g>
<!-- Exceed -->
<g id="doc-flowchart_node3" class="node">
<ellipse fill="#121212" stroke="#cfb87c" stroke-width="2" stroke-dasharray="5,2" cx="377.97" cy="-664.01" rx="138.06" ry="19.98"/>
<text text-anchor="middle" x="377.97" y="-658.94" font-family="Verdana" font-size="16.00" fill="white">Thresholds exceeded?</text>
</g>
<!-- NS&#45;&gt;Exceed -->
<g id="doc-flowchart_edge1" class="edge">
<path fill="none" stroke="#cfb87c" stroke-width="1.5" d="M168.67,-664.01C188.08,-664.01 207.48,-664.01 226.89,-664.01"/>
<polygon fill="#121212" stroke="#cfb87c" stroke-width="1.5" points="226.71,-667.51 236.71,-664.01 226.71,-660.51 226.71,-667.51"/>
</g>
<!-- Exceed&#45;&gt;DoSomething -->
<g id="doc-flowchart_edge2" class="edge">
<path fill="none" stroke="#cfb87c" stroke-width="1.5" d="M377.97,-684.97C377.97,-694.29 377.97,-705.88 377.97,-717.5"/>
<polygon fill="#121212" stroke="#cfb87c" stroke-width="1.5" points="374.47,-717.27 377.97,-727.27 381.47,-717.27 374.47,-717.27"/>
<text text-anchor="middle" x="389.97" y="-702.19" font-family="Times,serif" font-size="14.00" fill="#cfb87c"> &#160;No</text>
</g>
<!-- Badness -->
<g id="doc-flowchart_node4" class="node">
<ellipse fill="#121212" stroke="#cfb87c" stroke-width="2" cx="721.97" cy="-664.01" rx="134.88" ry="19.98"/>
<text text-anchor="middle" x="721.97" y="-658.94" font-family="Verdana" font-size="16.00" fill="white">Badness accumulates</text>
</g>
<!-- Exceed&#45;&gt;Badness -->
<g id="doc-flowchart_edge3" class="edge">
<path fill="none" stroke="#cfb87c" stroke-width="1.5" d="M516.9,-664.01C535.72,-664.01 555.1,-664.01 574.08,-664.01"/>
<polygon fill="#121212" stroke="#cfb87c" stroke-width="1.5" points="573.88,-667.51 583.88,-664.01 573.88,-660.51 573.88,-667.51"/>
<text text-anchor="middle" x="551.56" y="-670.21" font-family="Times,serif" font-size="14.00" fill="#cfb87c">Yes</text>
</g>
<!-- TooBad -->
<g id="doc-flowchart_node5" class="node">
<ellipse fill="#121212" stroke="#cfb87c" stroke-width="2" stroke-dasharray="5,2" cx="788.97" cy="-563.24" rx="89.8" ry="34.29"/>
<text text-anchor="middle" x="788.97" y="-568.29" font-family="Verdana" font-size="16.00" fill="white">Has badness</text>
<text text-anchor="middle" x="788.97" y="-548.04" font-family="Verdana" font-size="16.00" fill="white">reached 100?</text>
</g>
<!-- Badness&#45;&gt;TooBad -->
<g id="doc-flowchart_edge5" class="edge">
<path fill="none" stroke="#cfb87c" stroke-width="1.5" d="M735.21,-643.5C742.25,-633.12 751.2,-619.92 759.77,-607.28"/>
<polygon fill="#121212" stroke="#cfb87c" stroke-width="1.5" points="762.53,-609.45 765.25,-599.21 756.74,-605.52 762.53,-609.45"/>
</g>
<!-- BehFix -->
<g id="doc-flowchart_node6" class="node">
<ellipse fill="#121212" stroke="#cfb87c" stroke-width="2" stroke-dasharray="5,2" cx="547.97" cy="-563.24" rx="115.26" ry="19.98"/>
<text text-anchor="middle" x="547.97" y="-558.17" font-family="Verdana" font-size="16.00" fill="white">Below thresholds?</text>
</g>
<!-- Badness&#45;&gt;BehFix -->
<g id="doc-flowchart_edge4" class="edge">
<path fill="none" stroke="#cfb87c" stroke-width="1.5" d="M688.01,-643.73C660.61,-628.18 621.87,-606.19 592.08,-589.28"/>
<polygon fill="#121212" stroke="#cfb87c" stroke-width="1.5" points="593.95,-586.32 583.52,-584.42 590.49,-592.4 593.95,-586.32"/>
</g>
<!-- Track -->
<g id="doc-flowchart_node7" class="node">
<ellipse fill="#121212" stroke="#cfb87c" stroke-width="2" stroke-dasharray="5,2" cx="1082.97" cy="-563.24" rx="132.76" ry="34.29"/>
<text text-anchor="middle" x="1082.97" y="-568.29" font-family="Verdana" font-size="16.00" fill="white">Do you have &gt;0</text>
<text text-anchor="middle" x="1082.97" y="-548.04" font-family="Verdana" font-size="16.00" fill="white">penalty occurrences?</text>
</g>
<!-- TooBad&#45;&gt;Track -->
<g id="doc-flowchart_edge8" class="edge">
<path fill="none" stroke="#cfb87c" stroke-width="1.5" d="M879.58,-563.24C897.88,-563.24 917.56,-563.24 937.21,-563.24"/>
<polygon fill="#121212" stroke="#cfb87c" stroke-width="1.5" points="937.16,-566.74 947.16,-563.24 937.16,-559.74 937.16,-566.74"/>
<text text-anchor="middle" x="914.49" y="-569.44" font-family="Times,serif" font-size="14.00" fill="#cfb87c">Yes</text>
</g>
<!-- BehFix&#45;&gt;Badness -->
<g id="doc-flowchart_edge6" class="edge">
<path fill="none" stroke="#cfb87c" stroke-width="1.5" d="M559.78,-584C569.41,-598.49 584.28,-617.55 601.97,-629.04 610.45,-634.55 619.84,-639.18 629.51,-643.06"/>
<polygon fill="#121212" stroke="#cfb87c" stroke-width="1.5" points="628.24,-646.33 638.83,-646.51 630.66,-639.76 628.24,-646.33"/>
<text text-anchor="middle" x="613.97" y="-615.74" font-family="Times,serif" font-size="14.00" fill="#cfb87c"> &#160;No</text>
</g>
<!-- BadnessFed -->
<g id="doc-flowchart_node13" class="node">
<ellipse fill="#121212" stroke="#cfb87c" stroke-width="2" cx="443.97" cy="-133.88" rx="100.41" ry="34.29"/>
<text text-anchor="middle" x="443.97" y="-138.93" font-family="Verdana" font-size="16.00" fill="white">Badness begins</text>
<text text-anchor="middle" x="443.97" y="-118.68" font-family="Verdana" font-size="16.00" fill="white">to reduce</text>
</g>
<!-- BehFix&#45;&gt;BadnessFed -->
<g id="doc-flowchart_edge7" class="edge">
<path fill="none" stroke="#cfb87c" stroke-width="1.5" d="M536.69,-542.52C525.17,-520.49 508.97,-483.42 508.97,-449.15 508.97,-449.15 508.97,-449.15 508.97,-247.97 508.97,-222.21 496.13,-197.01 481.86,-176.96"/>
<polygon fill="#121212" stroke="#cfb87c" stroke-width="1.5" points="484.74,-174.96 475.93,-169.07 479.15,-179.17 484.74,-174.96"/>
<text text-anchor="middle" x="522.09" y="-343.51" font-family="Times,serif" font-size="14.00" fill="#cfb87c"> &#160;Yes</text>
</g>
<!-- Penalty1 -->
<g id="doc-flowchart_node8" class="node">
<ellipse fill="#121212" stroke="#cfb87c" stroke-width="2" cx="1082.97" cy="-448.15" rx="93.51" ry="34.29"/>
<text text-anchor="middle" x="1082.97" y="-453.2" font-family="Verdana" font-size="16.00" fill="white">penalty1 state</text>
<text text-anchor="middle" x="1082.97" y="-432.95" font-family="Verdana" font-size="16.00" fill="white">assigned</text>
</g>
<!-- Track&#45;&gt;Penalty1 -->
<g id="doc-flowchart_edge9" class="edge">
<path fill="none" stroke="#cfb87c" stroke-width="1.5" d="M1082.97,-528C1082.97,-517.71 1082.97,-506.23 1082.97,-495.3"/>
<polygon fill="#121212" stroke="#cfb87c" stroke-width="1.5" points="1086.47,-495.54 1082.97,-485.54 1079.47,-495.54 1086.47,-495.54"/>
<text text-anchor="middle" x="1093.09" y="-500.65" font-family="Times,serif" font-size="14.00" fill="#cfb87c"> No</text>
</g>
<!-- NextPen -->
<g id="doc-flowchart_node9" class="node">
<ellipse fill="#121212" stroke="#cfb87c" stroke-width="2" cx="857.97" cy="-448.15" rx="95.64" ry="34.29"/>
<text text-anchor="middle" x="857.97" y="-453.2" font-family="Verdana" font-size="16.00" fill="white">Penalty state</text>
<text text-anchor="middle" x="857.97" y="-432.95" font-family="Verdana" font-size="16.00" fill="white">increased by 1</text>
</g>
<!-- Track&#45;&gt;NextPen -->
<g id="doc-flowchart_edge10" class="edge">
<path fill="none" stroke="#cfb87c" stroke-width="1.5" d="M1022.38,-531.79C991.99,-516.51 955.13,-497.99 924.02,-482.35"/>
<polygon fill="#121212" stroke="#cfb87c" stroke-width="1.5" points="925.81,-479.33 915.3,-477.97 922.66,-485.59 925.81,-479.33"/>
<text text-anchor="middle" x="994.22" y="-500.65" font-family="Times,serif" font-size="14.00" fill="#cfb87c"> Yes</text>
</g>
<!-- SentEmail -->
<g id="doc-flowchart_node10" class="node">
<ellipse fill="#121212" stroke="#cfb87c" stroke-width="2" cx="857.97" cy="-348.56" rx="144.96" ry="34.29"/>
<text text-anchor="middle" x="857.97" y="-353.61" font-family="Verdana" font-size="16.00" fill="white">Warning email sent</text>
<text text-anchor="middle" x="857.97" y="-333.36" font-family="Verdana" font-size="16.00" fill="white">and resources throttled</text>
</g>
<!-- Penalty1&#45;&gt;SentEmail -->
<g id="doc-flowchart_edge11" class="edge">
<path fill="none" stroke="#cfb87c" stroke-width="1.5" d="M1022.67,-421C996.7,-409.74 965.96,-396.4 938.11,-384.32"/>
<polygon fill="#121212" stroke="#cfb87c" stroke-width="1.5" points="939.84,-381.26 929.28,-380.49 937.06,-387.68 939.84,-381.26"/>
</g>
<!-- NextPen&#45;&gt;SentEmail -->
<g id="doc-flowchart_edge12" class="edge">
<path fill="none" stroke="#cfb87c" stroke-width="1.5" d="M857.97,-413.02C857.97,-407.41 857.97,-401.51 857.97,-395.66"/>
<polygon fill="#121212" stroke="#cfb87c" stroke-width="1.5" points="861.47,-396.11 857.97,-386.11 854.47,-396.11 861.47,-396.11"/>
</g>
<!-- DurationTimer -->
<g id="doc-flowchart_node11" class="node">
<ellipse fill="#121212" stroke="#cfb87c" stroke-width="2" cx="1179.97" cy="-348.56" rx="105.18" ry="34.29"/>
<text text-anchor="middle" x="1179.97" y="-353.61" font-family="Verdana" font-size="16.00" fill="white">Penalty duration</text>
<text text-anchor="middle" x="1179.97" y="-333.36" font-family="Verdana" font-size="16.00" fill="white">timer starts</text>
</g>
<!-- SentEmail&#45;&gt;DurationTimer -->
<g id="doc-flowchart_edge13" class="edge">
<path fill="none" stroke="#cfb87c" stroke-width="1.5" d="M1003.88,-348.56C1023.24,-348.56 1042.61,-348.56 1061.98,-348.56"/>
<polygon fill="#121212" stroke="#cfb87c" stroke-width="1.5" points="1061.77,-352.06 1071.77,-348.56 1061.77,-345.06 1061.77,-352.06"/>
</g>
<!-- DurationEnded -->
<g id="doc-flowchart_node12" class="node">
<ellipse fill="#121212" stroke="#cfb87c" stroke-width="2" stroke-dasharray="5,2" cx="904.97" cy="-248.97" rx="104.65" ry="34.29"/>
<text text-anchor="middle" x="904.97" y="-254.02" font-family="Verdana" font-size="16.00" fill="white">Has the penalty</text>
<text text-anchor="middle" x="904.97" y="-233.77" font-family="Verdana" font-size="16.00" fill="white">duration ended?</text>
</g>
<!-- DurationTimer&#45;&gt;DurationEnded -->
<g id="doc-flowchart_edge14" class="edge">
<path fill="none" stroke="#cfb87c" stroke-width="1.5" d="M1109.15,-322.43C1071.86,-309.2 1025.94,-292.9 987.09,-279.12"/>
<polygon fill="#121212" stroke="#cfb87c" stroke-width="1.5" points="988.28,-275.83 977.69,-275.78 985.94,-282.42 988.28,-275.83"/>
</g>
<!-- DurationEnded&#45;&gt;BadnessFed -->
<g id="doc-flowchart_edge15" class="edge">
<path fill="none" stroke="#cfb87c" stroke-width="1.5" d="M821.49,-227.49C741.28,-207.82 620.3,-178.14 537.03,-157.71"/>
<polygon fill="#121212" stroke="#cfb87c" stroke-width="1.5" points="538.03,-154.36 527.49,-155.37 536.37,-161.15 538.03,-154.36"/>
<text text-anchor="middle" x="713.22" y="-186.38" font-family="Times,serif" font-size="14.00" fill="#cfb87c"> Yes</text>
</g>
<!-- BadnessFed&#45;&gt;Exceed -->
<g id="doc-flowchart_edge17" class="edge">
<path fill="none" stroke="#cfb87c" stroke-width="1.5" d="M412.9,-167.18C395.78,-188.4 377.97,-217.74 377.97,-247.97 377.97,-564.24 377.97,-564.24 377.97,-564.24 377.97,-586.64 377.97,-611.9 377.97,-631.26"/>
<polygon fill="#121212" stroke="#cfb87c" stroke-width="1.5" points="374.47,-631.06 377.97,-641.06 381.47,-631.06 374.47,-631.06"/>
</g>
<!-- BadAtZero -->
<g id="doc-flowchart_node14" class="node">
<ellipse fill="#121212" stroke="#cfb87c" stroke-width="2" stroke-dasharray="5,2" cx="211.97" cy="-34.29" rx="72.83" ry="34.29"/>
<text text-anchor="middle" x="211.97" y="-39.34" font-family="Verdana" font-size="16.00" fill="white">Is badness</text>
<text text-anchor="middle" x="211.97" y="-19.09" font-family="Verdana" font-size="16.00" fill="white">at zero?</text>
</g>
<!-- BadnessFed&#45;&gt;BadAtZero -->
<g id="doc-flowchart_edge16" class="edge">
<path fill="none" stroke="#cfb87c" stroke-width="1.5" d="M380.88,-106.35C348.71,-92.82 309.64,-76.38 277.17,-62.72"/>
<polygon fill="#121212" stroke="#cfb87c" stroke-width="1.5" points="278.66,-59.55 268.08,-58.9 275.94,-66 278.66,-59.55"/>
</g>
<!-- BadAtZero&#45;&gt;NS -->
<g id="doc-flowchart_edge18" class="edge">
<path fill="none" stroke="#cfb87c" stroke-width="1.5" d="M201.1,-68.79C195.98,-87.45 190.97,-111.22 190.97,-132.88 190.97,-564.24 190.97,-564.24 190.97,-564.24 190.97,-597.75 162.28,-623.04 134.61,-639.64"/>
<polygon fill="#121212" stroke="#cfb87c" stroke-width="1.5" points="133.07,-636.49 126.09,-644.46 136.52,-642.58 133.07,-636.49"/>
<text text-anchor="middle" x="204.09" y="-343.51" font-family="Times,serif" font-size="14.00" fill="#cfb87c"> &#160;Yes</text>
</g>
</g>
</svg>