<!DOCTYPE svg PUBLIC "-//W3C//DTD SVG 1.1//EN" "http://www.w3.org/Graphics/SVG/1.1/DTD/svg11.dtd">
<!-- Generated by graphviz version 12.0.0 (20240803.0821)
 --><!-- Pages: 1 --><svg xmlns="http://www.w3.org/2000/svg" xmlns:xlink="http://www.w3.org/1999/xlink" width="100%" height="100%" viewBox="0.00 0.00 561.17 116.00">
<g id="doc-flowchart" class="graph" transform="scale(1 1) rotate(0) translate(4 112)">
<!-- cloud -->
<g id="doc-flowchart_node1" class="node">
<ellipse fill="#121212" stroke="#cfb87c" stroke-width="3" stroke-dasharray="5,2" cx="275.61" cy="-90" rx="116.55" ry="18"/>
<text text-anchor="middle" x="275.61" y="-85.72" font-family="Verdana" font-size="12.00" fill="white">Cloud computing assistance</text>
</g>
<!-- aws -->
<g id="clickable" class="node">
<g id="a_clickable"><a xlink:href="../cloud/aws/index.html" target="_blank">
<ellipse fill="#121212" stroke="#cfb87c" stroke-width="2" cx="94.61" cy="-18" rx="94.61" ry="18"/>
<text text-anchor="middle" x="94.61" y="-13.72" font-family="Verdana" font-size="12.00" fill="white">Amazon Web Services</text>
</a>
</g>
</g>
<!-- cloud&#45;&gt;aws -->
<g id="doc-flowchart_edge1" class="edge">
<path fill="none" stroke="#cfb87c" stroke-width="1.5" d="M231.79,-72.05C206.34,-62.21 174.11,-49.75 147.29,-39.37"/>
<polygon fill="#121212" stroke="#cfb87c" stroke-width="1.5" points="148.86,-36.23 138.27,-35.89 146.34,-42.76 148.86,-36.23"/>
</g>
<!-- azure -->
<g id="clickable" class="node">
<g id="a_clickable"><a xlink:href="../cloud/azure/index.html" target="_blank">
<ellipse fill="#121212" stroke="#cfb87c" stroke-width="2" cx="275.61" cy="-18" rx="68.37" ry="18"/>
<text text-anchor="middle" x="275.61" y="-13.72" font-family="Verdana" font-size="12.00" fill="white">Microsoft Azure</text>
</a>
</g>
</g>
<!-- cloud&#45;&gt;azure -->
<g id="doc-flowchart_edge2" class="edge">
<path fill="none" stroke="#cfb87c" stroke-width="1.5" d="M275.61,-70.61C275.61,-63.86 275.61,-56.04 275.61,-48.56"/>
<polygon fill="#121212" stroke="#cfb87c" stroke-width="1.5" points="279.11,-48.82 275.61,-38.82 272.11,-48.82 279.11,-48.82"/>
</g>
<!-- gcp -->
<g id="clickable" class="node">
<g id="a_clickable"><a xlink:href="../cloud/gcp/index.html" target="_blank">
<ellipse fill="#121212" stroke="#cfb87c" stroke-width="2" cx="457.61" cy="-18" rx="95.56" ry="18"/>
<text text-anchor="middle" x="457.61" y="-13.72" font-family="Verdana" font-size="12.00" fill="white">Google Cloud Platform</text>
</a>
</g>
</g>
<!-- cloud&#45;&gt;gcp -->
<g id="doc-flowchart_edge3" class="edge">
<path fill="none" stroke="#cfb87c" stroke-width="1.5" d="M319.67,-72.05C345.26,-62.21 377.67,-49.75 404.64,-39.37"/>
<polygon fill="#121212" stroke="#cfb87c" stroke-width="1.5" points="405.64,-42.74 413.71,-35.88 403.12,-36.21 405.64,-42.74"/>
</g>
</g>
</svg>