<!DOCTYPE svg PUBLIC "-//W3C//DTD SVG 1.1//EN" "http://www.w3.org/Graphics/SVG/1.1/DTD/svg11.dtd">
<!-- Generated by graphviz version 12.0.0 (0)
 --><!-- Pages: 1 --><svg xmlns="http://www.w3.org/2000/svg" xmlns:xlink="http://www.w3.org/1999/xlink" width="100%" height="100%" viewBox="0.00 0.00 590.93 116.00">
<g id="doc-flowchart" class="graph" transform="scale(1 1) rotate(0) translate(4 112)">
<!-- cloud -->
<g id="doc-flowchart_node1" class="node">
<ellipse fill="#121212" stroke="#cfb87c" stroke-width="3" stroke-dasharray="5,2" cx="289.47" cy="-90" rx="121.92" ry="18"/>
<text text-anchor="middle" x="289.47" y="-86.47" font-family="Verdana" font-size="12.00" fill="white">Cloud computing assistance</text>
</g>
<!-- aws -->
<g id="clickable" class="node">
<g id="a_clickable"><a xlink:href="../cloud/aws/index.html" target="_blank">
<ellipse fill="#121212" stroke="#cfb87c" stroke-width="2" cx="99.47" cy="-18" rx="99.47" ry="18"/>
<text text-anchor="middle" x="99.47" y="-14.47" font-family="Verdana" font-size="12.00" fill="white">Amazon Web Services</text>
</a>
</g>
</g>
<!-- cloud&#45;&gt;aws -->
<g id="doc-flowchart_edge1" class="edge">
<path fill="none" stroke="#cfb87c" stroke-width="1.5" d="M243.47,-72.05C216.64,-62.17 182.62,-49.64 154.39,-39.23"/>
<polygon fill="#121212" stroke="#cfb87c" stroke-width="1.5" points="155.8,-36.03 145.21,-35.85 153.38,-42.59 155.8,-36.03"/>
</g>
<!-- azure -->
<g id="clickable" class="node">
<g id="a_clickable"><a xlink:href="../cloud/azure/index.html" target="_blank">
<ellipse fill="#121212" stroke="#cfb87c" stroke-width="2" cx="289.47" cy="-18" rx="72.52" ry="18"/>
<text text-anchor="middle" x="289.47" y="-14.47" font-family="Verdana" font-size="12.00" fill="white">Microsoft Azure</text>
</a>
</g>
</g>
<!-- cloud&#45;&gt;azure -->
<g id="doc-flowchart_edge2" class="edge">
<path fill="none" stroke="#cfb87c" stroke-width="1.5" d="M289.47,-70.61C289.47,-63.86 289.47,-56.04 289.47,-48.56"/>
<polygon fill="#121212" stroke="#cfb87c" stroke-width="1.5" points="292.97,-48.82 289.47,-38.82 285.97,-48.82 292.97,-48.82"/>
</g>
<!-- gcp -->
<g id="clickable" class="node">
<g id="a_clickable"><a xlink:href="../cloud/gcp/index.html" target="_blank">
<ellipse fill="#121212" stroke="#cfb87c" stroke-width="2" cx="481.47" cy="-18" rx="101.46" ry="18"/>
<text text-anchor="middle" x="481.47" y="-14.47" font-family="Verdana" font-size="12.00" fill="white">Google Cloud Platform</text>
</a>
</g>
</g>
<!-- cloud&#45;&gt;gcp -->
<g id="doc-flowchart_edge3" class="edge">
<path fill="none" stroke="#cfb87c" stroke-width="1.5" d="M335.94,-72.05C363.06,-62.17 397.44,-49.64 425.97,-39.23"/>
<polygon fill="#121212" stroke="#cfb87c" stroke-width="1.5" points="427.07,-42.56 435.26,-35.85 424.67,-35.98 427.07,-42.56"/>
</g>
</g>
</svg>