<!DOCTYPE svg PUBLIC "-//W3C//DTD SVG 1.1//EN" "http://www.w3.org/Graphics/SVG/1.1/DTD/svg11.dtd">
<!-- Generated by graphviz version 12.0.0 (0)
 --><!-- Pages: 1 --><svg xmlns="http://www.w3.org/2000/svg" xmlns:xlink="http://www.w3.org/1999/xlink" width="100%" height="100%" viewBox="0.00 0.00 867.53 836.00">
<g id="doc-flowchart" class="graph" transform="scale(1 1) rotate(0) translate(4 832)">
<!-- policies -->
<g id="clickable" class="node">
<g id="a_clickable"><a xlink:href="../additional-resources/policies.html" target="_blank">
<ellipse fill="#121212" stroke="#cfb87c" stroke-width="2" cx="301.47" cy="-810" rx="64.54" ry="18"/>
<text text-anchor="middle" x="301.47" y="-806.48" font-family="Verdana" font-size="12.00" fill="white">CURC Policies</text>
</a>
</g>
</g>
<!-- logging_in -->
<g id="clickable" class="node">
<g id="a_clickable"><a xlink:href="../getting_started/logging-in.html" target="_blank">
<ellipse fill="#121212" stroke="#cfb87c" stroke-width="2" cx="301.47" cy="-738" rx="53.56" ry="18"/>
<text text-anchor="middle" x="301.47" y="-734.48" font-family="Verdana" font-size="12.00" fill="white">Logging In</text>
</a>
</g>
</g>
<!-- policies&#45;&gt;logging_in -->
<g id="doc-flowchart_edge1" class="edge">
<path fill="none" stroke="#cfb87c" stroke-width="1.5" d="M301.47,-791.34C301.47,-784.59 301.47,-776.69 301.47,-769.11"/>
<polygon fill="#121212" stroke="#cfb87c" stroke-width="1.5" points="304.97,-769.17 301.47,-759.17 297.97,-769.17 304.97,-769.17"/>
</g>
<!-- ack -->
<g id="clickable" class="node">
<g id="a_clickable"><a xlink:href="../getting_started/acknowledge_curc_resources.html" target="_blank">
<ellipse fill="#121212" stroke="#cfb87c" stroke-width="2" cx="95.47" cy="-666" rx="95.47" ry="18"/>
<text text-anchor="middle" x="95.47" y="-662.48" font-family="Verdana" font-size="12.00" fill="white">Acknowledging CURC</text>
</a>
</g>
</g>
<!-- logging_in&#45;&gt;ack -->
<g id="doc-flowchart_edge2" class="edge">
<path fill="none" stroke="#cfb87c" stroke-width="1.5" d="M264.17,-724.32C233.1,-713.76 188.33,-698.55 152.73,-686.45"/>
<polygon fill="#121212" stroke="#cfb87c" stroke-width="1.5" points="154.26,-683.28 143.67,-683.38 152.01,-689.91 154.26,-683.28"/>
</g>
<!-- training -->
<g id="clickable" class="node">
<g id="a_clickable"><a xlink:href="../getting_started/current-sem-trainings.html" target="_blank">
<ellipse fill="#121212" stroke="#cfb87c" stroke-width="2" cx="254.47" cy="-666" rx="45.57" ry="18"/>
<text text-anchor="middle" x="254.47" y="-662.48" font-family="Verdana" font-size="12.00" fill="white">Trainings</text>
</a>
</g>
</g>
<!-- logging_in&#45;&gt;training -->
<g id="doc-flowchart_edge3" class="edge">
<path fill="none" stroke="#cfb87c" stroke-width="1.5" d="M289.86,-719.7C284.68,-711.98 278.45,-702.71 272.68,-694.11"/>
<polygon fill="#121212" stroke="#cfb87c" stroke-width="1.5" points="275.7,-692.34 267.22,-685.99 269.89,-696.24 275.7,-692.34"/>
</g>
<!-- faq -->
<g id="clickable" class="node">
<g id="a_clickable"><a xlink:href="../getting_started/faq.html" target="_blank">
<ellipse fill="#121212" stroke="#cfb87c" stroke-width="2" cx="349.47" cy="-666" rx="31.1" ry="18"/>
<text text-anchor="middle" x="349.47" y="-662.48" font-family="Verdana" font-size="12.00" fill="white">FAQs</text>
</a>
</g>
</g>
<!-- logging_in&#45;&gt;faq -->
<g id="doc-flowchart_edge4" class="edge">
<path fill="none" stroke="#cfb87c" stroke-width="1.5" d="M313.34,-719.7C318.71,-711.87 325.18,-702.44 331.15,-693.73"/>
<polygon fill="#121212" stroke="#cfb87c" stroke-width="1.5" points="334.02,-695.72 336.79,-685.49 328.25,-691.76 334.02,-695.72"/>
</g>
<!-- compute_env -->
<g id="doc-flowchart_node6" class="node">
<ellipse fill="#121212" stroke="#cfb87c" stroke-width="3" stroke-dasharray="5,2" cx="558.47" cy="-666" rx="160.34" ry="18"/>
<text text-anchor="middle" x="558.47" y="-662.48" font-family="Verdana" font-size="12.00" fill="white">What does the HPC system look like?</text>
</g>
<!-- logging_in&#45;&gt;compute_env -->
<g id="doc-flowchart_edge5" class="edge">
<path fill="none" stroke="#cfb87c" stroke-width="1.5" d="M342.77,-725.75C380.88,-715.37 438.38,-699.71 484.42,-687.17"/>
<polygon fill="#121212" stroke="#cfb87c" stroke-width="1.5" points="485.25,-690.57 493.98,-684.57 483.41,-683.82 485.25,-690.57"/>
</g>
<!-- node_type -->
<g id="clickable" class="node">
<g id="a_clickable"><a xlink:href="../compute/node-types.html" target="_blank">
<ellipse fill="#121212" stroke="#cfb87c" stroke-width="2" cx="465.47" cy="-594" rx="56.05" ry="18"/>
<text text-anchor="middle" x="465.47" y="-590.48" font-family="Verdana" font-size="12.00" fill="white">Node types</text>
</a>
</g>
</g>
<!-- compute_env&#45;&gt;node_type -->
<g id="doc-flowchart_edge6" class="edge">
<path fill="none" stroke="#cfb87c" stroke-width="1.5" d="M534.52,-646.97C523.06,-638.34 509.18,-627.9 496.88,-618.64"/>
<polygon fill="#121212" stroke="#cfb87c" stroke-width="1.5" points="499.34,-616.11 489.25,-612.89 495.13,-621.7 499.34,-616.11"/>
</g>
<!-- filesystem -->
<g id="clickable" class="node">
<g id="a_clickable"><a xlink:href="../compute/filesystems.html" target="_blank">
<ellipse fill="#121212" stroke="#cfb87c" stroke-width="2" cx="651.47" cy="-594" rx="76.51" ry="18"/>
<text text-anchor="middle" x="651.47" y="-590.48" font-family="Verdana" font-size="12.00" fill="white">CURC filesystem</text>
</a>
</g>
</g>
<!-- compute_env&#45;&gt;filesystem -->
<g id="doc-flowchart_edge7" class="edge">
<path fill="none" stroke="#cfb87c" stroke-width="1.5" d="M582.42,-646.97C593.61,-638.56 607.09,-628.41 619.16,-619.32"/>
<polygon fill="#121212" stroke="#cfb87c" stroke-width="1.5" points="621.19,-622.18 627.07,-613.37 616.98,-616.58 621.19,-622.18"/>
</g>
<!-- running_jobs -->
<g id="doc-flowchart_node7" class="node">
<ellipse fill="#121212" stroke="#cfb87c" stroke-width="3" stroke-dasharray="5,2" cx="430.47" cy="-378" rx="92.48" ry="18"/>
<text text-anchor="middle" x="430.47" y="-374.48" font-family="Verdana" font-size="12.00" fill="white">How do I run a job?</text>
</g>
<!-- slurm -->
<g id="clickable" class="node">
<g id="a_clickable"><a xlink:href="../running-jobs/job-resources.html" target="_blank">
<ellipse fill="#121212" stroke="#cfb87c" stroke-width="2" cx="364.47" cy="-306" rx="34.6" ry="18"/>
<text text-anchor="middle" x="364.47" y="-302.48" font-family="Verdana" font-size="12.00" fill="white">Slurm</text>
</a>
</g>
</g>
<!-- running_jobs&#45;&gt;slurm -->
<g id="doc-flowchart_edge15" class="edge">
<path fill="none" stroke="#cfb87c" stroke-width="1.5" d="M413.48,-358.97C405.65,-350.68 396.25,-340.7 387.78,-331.71"/>
<polygon fill="#121212" stroke="#cfb87c" stroke-width="1.5" points="390.36,-329.35 380.95,-324.47 385.26,-334.15 390.36,-329.35"/>
</g>
<!-- ood -->
<g id="clickable" class="node">
<g id="a_clickable"><a xlink:href="../open_ondemand/index.html" target="_blank">
<ellipse fill="#121212" stroke="#cfb87c" stroke-width="2" cx="497.47" cy="-306" rx="80.5" ry="18"/>
<text text-anchor="middle" x="497.47" y="-302.48" font-family="Verdana" font-size="12.00" fill="white">Open OnDemand</text>
</a>
</g>
</g>
<!-- running_jobs&#45;&gt;ood -->
<g id="doc-flowchart_edge16" class="edge">
<path fill="none" stroke="#cfb87c" stroke-width="1.5" d="M447.73,-358.97C455.33,-351.04 464.39,-341.56 472.69,-332.89"/>
<polygon fill="#121212" stroke="#cfb87c" stroke-width="1.5" points="475.02,-335.53 479.4,-325.88 469.96,-330.69 475.02,-335.53"/>
</g>
<!-- clusters -->
<g id="doc-flowchart_node8" class="node">
<ellipse fill="#121212" stroke="#cfb87c" stroke-width="3" stroke-dasharray="5,2" cx="430.47" cy="-522" rx="123.92" ry="18"/>
<text text-anchor="middle" x="430.47" y="-518.48" font-family="Verdana" font-size="12.00" fill="white">What clusters are available?</text>
</g>
<!-- alpine -->
<g id="clickable" class="node">
<g id="a_clickable"><a xlink:href="../clusters/alpine/index.html" target="_blank">
<ellipse fill="#121212" stroke="#cfb87c" stroke-width="2" cx="385.47" cy="-450" rx="35.1" ry="18"/>
<text text-anchor="middle" x="385.47" y="-446.48" font-family="Verdana" font-size="12.00" fill="white">Alpine</text>
</a>
</g>
</g>
<!-- clusters&#45;&gt;alpine -->
<g id="doc-flowchart_edge11" class="edge">
<path fill="none" stroke="#cfb87c" stroke-width="1.5" d="M418.65,-502.61C413.87,-495.17 408.25,-486.44 403.01,-478.28"/>
<polygon fill="#121212" stroke="#cfb87c" stroke-width="1.5" points="406.03,-476.5 397.67,-469.98 400.14,-480.28 406.03,-476.5"/>
</g>
<!-- blanca -->
<g id="clickable" class="node">
<g id="a_clickable"><a xlink:href="../clusters/blanca/blanca.html" target="_blank">
<ellipse fill="#121212" stroke="#cfb87c" stroke-width="2" cx="475.47" cy="-450" rx="37.09" ry="18"/>
<text text-anchor="middle" x="475.47" y="-446.48" font-family="Verdana" font-size="12.00" fill="white">Blanca</text>
</a>
</g>
</g>
<!-- clusters&#45;&gt;blanca -->
<g id="doc-flowchart_edge12" class="edge">
<path fill="none" stroke="#cfb87c" stroke-width="1.5" d="M442.3,-502.61C447.08,-495.17 452.69,-486.44 457.93,-478.28"/>
<polygon fill="#121212" stroke="#cfb87c" stroke-width="1.5" points="460.81,-480.28 463.27,-469.98 454.92,-476.5 460.81,-480.28"/>
</g>
<!-- node_type&#45;&gt;clusters -->
<g id="doc-flowchart_edge10" class="edge">
<path fill="none" stroke="#cfb87c" stroke-width="1.5" d="M456.64,-575.34C453.12,-568.29 448.97,-559.99 445.02,-552.1"/>
<polygon fill="#121212" stroke="#cfb87c" stroke-width="1.5" points="448.29,-550.8 440.69,-543.42 442.03,-553.93 448.29,-550.8"/>
</g>
<!-- data_transfer -->
<g id="clickable" class="node">
<g id="a_clickable"><a xlink:href="../compute/data-transfer.html" target="_blank">
<ellipse fill="#121212" stroke="#cfb87c" stroke-width="2" cx="651.47" cy="-522" rx="79.51" ry="18"/>
<text text-anchor="middle" x="651.47" y="-518.48" font-family="Verdana" font-size="12.00" fill="white">Transferring data</text>
</a>
</g>
</g>
<!-- filesystem&#45;&gt;data_transfer -->
<g id="doc-flowchart_edge8" class="edge">
<path fill="none" stroke="#cfb87c" stroke-width="1.5" d="M651.47,-575.34C651.47,-568.59 651.47,-560.69 651.47,-553.11"/>
<polygon fill="#121212" stroke="#cfb87c" stroke-width="1.5" points="654.97,-553.17 651.47,-543.17 647.97,-553.17 654.97,-553.17"/>
</g>
<!-- petalibrary -->
<g id="clickable" class="node">
<g id="a_clickable"><a xlink:href="../storage/petalibrary/index.html" target="_blank">
<ellipse fill="#121212" stroke="#cfb87c" stroke-width="2" cx="804.47" cy="-522" rx="55.06" ry="18"/>
<text text-anchor="middle" x="804.47" y="-518.48" font-family="Verdana" font-size="12.00" fill="white">PetaLibrary</text>
</a>
</g>
</g>
<!-- filesystem&#45;&gt;petalibrary -->
<g id="doc-flowchart_edge9" class="edge">
<path fill="none" stroke="#cfb87c" stroke-width="1.5" d="M686.19,-577.12C708.65,-566.84 738.03,-553.4 761.89,-542.48"/>
<polygon fill="#121212" stroke="#cfb87c" stroke-width="1.5" points="763.06,-545.8 770.7,-538.45 760.15,-539.43 763.06,-545.8"/>
</g>
<!-- alpine&#45;&gt;running_jobs -->
<g id="doc-flowchart_edge13" class="edge">
<path fill="none" stroke="#cfb87c" stroke-width="1.5" d="M396.37,-432.05C401.12,-424.66 406.83,-415.78 412.2,-407.42"/>
<polygon fill="#121212" stroke="#cfb87c" stroke-width="1.5" points="415.04,-409.47 417.51,-399.17 409.16,-405.69 415.04,-409.47"/>
</g>
<!-- blanca&#45;&gt;running_jobs -->
<g id="doc-flowchart_edge14" class="edge">
<path fill="none" stroke="#cfb87c" stroke-width="1.5" d="M464.58,-432.05C459.83,-424.66 454.12,-415.78 448.74,-407.42"/>
<polygon fill="#121212" stroke="#cfb87c" stroke-width="1.5" points="451.79,-405.69 443.44,-399.17 445.9,-409.47 451.79,-405.69"/>
</g>
<!-- interactive -->
<g id="clickable" class="node">
<g id="a_clickable"><a xlink:href="../running-jobs/interactive-jobs.html" target="_blank">
<ellipse fill="#121212" stroke="#cfb87c" stroke-width="2" cx="272.47" cy="-234" rx="73.02" ry="18"/>
<text text-anchor="middle" x="272.47" y="-230.47" font-family="Verdana" font-size="12.00" fill="white">Interactive jobs</text>
</a>
</g>
</g>
<!-- slurm&#45;&gt;interactive -->
<g id="doc-flowchart_edge17" class="edge">
<path fill="none" stroke="#cfb87c" stroke-width="1.5" d="M344.96,-290.15C333.16,-281.18 317.84,-269.52 304.32,-259.23"/>
<polygon fill="#121212" stroke="#cfb87c" stroke-width="1.5" points="306.75,-256.68 296.68,-253.41 302.52,-262.26 306.75,-256.68"/>
</g>
<!-- batch -->
<g id="clickable" class="node">
<g id="a_clickable"><a xlink:href="../running-jobs/batch-jobs.html" target="_blank">
<ellipse fill="#121212" stroke="#cfb87c" stroke-width="2" cx="416.47" cy="-234" rx="53.06" ry="18"/>
<text text-anchor="middle" x="416.47" y="-230.47" font-family="Verdana" font-size="12.00" fill="white">Batch jobs</text>
</a>
</g>
</g>
<!-- slurm&#45;&gt;batch -->
<g id="doc-flowchart_edge18" class="edge">
<path fill="none" stroke="#cfb87c" stroke-width="1.5" d="M376.8,-288.41C382.73,-280.42 390,-270.64 396.68,-261.64"/>
<polygon fill="#121212" stroke="#cfb87c" stroke-width="1.5" points="399.37,-263.89 402.52,-253.78 393.75,-259.72 399.37,-263.89"/>
</g>
<!-- using_software -->
<g id="doc-flowchart_node19" class="node">
<ellipse fill="#121212" stroke="#cfb87c" stroke-width="3" stroke-dasharray="5,2" cx="416.47" cy="-162" rx="106.45" ry="18"/>
<text text-anchor="middle" x="416.47" y="-158.47" font-family="Verdana" font-size="12.00" fill="white">How do I run software?</text>
</g>
<!-- interactive&#45;&gt;using_software -->
<g id="doc-flowchart_edge19" class="edge">
<path fill="none" stroke="#cfb87c" stroke-width="1.5" d="M305.15,-217.12C324.28,-207.82 348.76,-195.92 369.89,-185.65"/>
<polygon fill="#121212" stroke="#cfb87c" stroke-width="1.5" points="371.4,-188.8 378.86,-181.28 368.34,-182.51 371.4,-188.8"/>
</g>
<!-- batch&#45;&gt;using_software -->
<g id="doc-flowchart_edge20" class="edge">
<path fill="none" stroke="#cfb87c" stroke-width="1.5" d="M416.47,-215.34C416.47,-208.69 416.47,-200.94 416.47,-193.46"/>
<polygon fill="#121212" stroke="#cfb87c" stroke-width="1.5" points="419.97,-193.66 416.47,-183.66 412.97,-193.66 419.97,-193.66"/>
</g>
<!-- ood&#45;&gt;using_software -->
<g id="doc-flowchart_edge21" class="edge">
<path fill="none" stroke="#cfb87c" stroke-width="1.5" d="M496.99,-287.06C495.75,-268.16 491.65,-238.13 478.47,-216 472.29,-205.61 463.34,-196.26 454.15,-188.41"/>
<polygon fill="#121212" stroke="#cfb87c" stroke-width="1.5" points="456.38,-185.7 446.38,-182.2 452.01,-191.18 456.38,-185.7"/>
</g>
<!-- modules -->
<g id="clickable" class="node">
<g id="a_clickable"><a xlink:href="../compute/modules.html" target="_blank">
<ellipse fill="#121212" stroke="#cfb87c" stroke-width="2" cx="168.47" cy="-90" rx="89.99" ry="18"/>
<text text-anchor="middle" x="168.47" y="-86.47" font-family="Verdana" font-size="12.00" fill="white">The module system</text>
</a>
</g>
</g>
<!-- using_software&#45;&gt;modules -->
<g id="doc-flowchart_edge22" class="edge">
<path fill="none" stroke="#cfb87c" stroke-width="1.5" d="M361.13,-145.38C322.88,-134.58 271.91,-120.19 232,-108.93"/>
<polygon fill="#121212" stroke="#cfb87c" stroke-width="1.5" points="233.02,-105.58 222.45,-106.23 231.12,-112.32 233.02,-105.58"/>
</g>
<!-- container -->
<g id="clickable" class="node">
<g id="a_clickable"><a xlink:href="../software/containerization.html" target="_blank">
<ellipse fill="#121212" stroke="#cfb87c" stroke-width="2" cx="352.47" cy="-90" rx="75.51" ry="18"/>
<text text-anchor="middle" x="352.47" y="-86.47" font-family="Verdana" font-size="12.00" fill="white">Containerization</text>
</a>
</g>
</g>
<!-- using_software&#45;&gt;container -->
<g id="doc-flowchart_edge23" class="edge">
<path fill="none" stroke="#cfb87c" stroke-width="1.5" d="M399.99,-142.97C392.81,-135.12 384.26,-125.76 376.4,-117.16"/>
<polygon fill="#121212" stroke="#cfb87c" stroke-width="1.5" points="379.1,-114.94 369.77,-109.92 373.93,-119.66 379.1,-114.94"/>
</g>
<!-- spack -->
<g id="clickable" class="node">
<g id="a_clickable"><a xlink:href="../software/spack.html" target="_blank">
<ellipse fill="#121212" stroke="#cfb87c" stroke-width="2" cx="480.47" cy="-90" rx="34.6" ry="18"/>
<text text-anchor="middle" x="480.47" y="-86.47" font-family="Verdana" font-size="12.00" fill="white">Spack</text>
</a>
</g>
</g>
<!-- using_software&#45;&gt;spack -->
<g id="doc-flowchart_edge24" class="edge">
<path fill="none" stroke="#cfb87c" stroke-width="1.5" d="M432.96,-142.97C440.54,-134.68 449.67,-124.7 457.88,-115.71"/>
<polygon fill="#121212" stroke="#cfb87c" stroke-width="1.5" points="460.31,-118.24 464.48,-108.5 455.15,-113.52 460.31,-118.24"/>
</g>
<!-- conda -->
<g id="clickable" class="node">
<g id="a_clickable"><a xlink:href="../software/python.html" target="_blank">
<ellipse fill="#121212" stroke="#cfb87c" stroke-width="2" cx="627.47" cy="-90" rx="93.98" ry="18"/>
<text text-anchor="middle" x="627.47" y="-86.47" font-family="Verdana" font-size="12.00" fill="white">Conda environments</text>
</a>
</g>
</g>
<!-- using_software&#45;&gt;conda -->
<g id="doc-flowchart_edge25" class="edge">
<path fill="none" stroke="#cfb87c" stroke-width="1.5" d="M465.68,-144.68C496.59,-134.42 536.62,-121.14 569.12,-110.36"/>
<polygon fill="#121212" stroke="#cfb87c" stroke-width="1.5" points="570.19,-113.69 578.58,-107.22 567.98,-107.05 570.19,-113.69"/>
</g>
<!-- curc_software_stack -->
<g id="clickable" class="node">
<g id="a_clickable"><a xlink:href="../software/curc_software_stack.html" target="_blank">
<ellipse fill="#121212" stroke="#cfb87c" stroke-width="2" cx="168.47" cy="-18" rx="84" ry="18"/>
<text text-anchor="middle" x="168.47" y="-14.47" font-family="Verdana" font-size="12.00" fill="white">Available software</text>
</a>
</g>
</g>
<!-- modules&#45;&gt;curc_software_stack -->
<g id="doc-flowchart_edge26" class="edge">
<path fill="none" stroke="#cfb87c" stroke-width="1.5" d="M168.47,-71.34C168.47,-64.59 168.47,-56.69 168.47,-49.11"/>
<polygon fill="#121212" stroke="#cfb87c" stroke-width="1.5" points="171.97,-49.17 168.47,-39.17 164.97,-49.17 171.97,-49.17"/>
</g>
</g>
</svg>