<!DOCTYPE svg PUBLIC "-//W3C//DTD SVG 1.1//EN" "http://www.w3.org/Graphics/SVG/1.1/DTD/svg11.dtd">
<!-- Generated by graphviz version 12.0.0 (20240803.0821)
 --><!-- Pages: 1 --><svg xmlns="http://www.w3.org/2000/svg" xmlns:xlink="http://www.w3.org/1999/xlink" width="100%" height="100%" viewBox="0.00 0.00 828.38 764.00">
<g id="doc-flowchart" class="graph" transform="scale(1 1) rotate(0) translate(4 760)">
<!-- policies -->
<g id="clickable" class="node">
<g id="a_clickable"><a xlink:href="../additional-resources/policies.html" target="_blank">
<ellipse fill="#121212" stroke="#cfb87c" stroke-width="2" cx="287.79" cy="-738" rx="61.22" ry="18"/>
<text text-anchor="middle" x="287.79" y="-733.73" font-family="Verdana" font-size="12.00" fill="white">CURC Policies</text>
</a>
</g>
</g>
<!-- logging_in -->
<g id="clickable" class="node">
<g id="a_clickable"><a xlink:href="../getting_started/logging-in.html" target="_blank">
<ellipse fill="#121212" stroke="#cfb87c" stroke-width="2" cx="287.79" cy="-666" rx="49.77" ry="18"/>
<text text-anchor="middle" x="287.79" y="-661.73" font-family="Verdana" font-size="12.00" fill="white">Logging In</text>
</a>
</g>
</g>
<!-- policies&#45;&gt;logging_in -->
<g id="doc-flowchart_edge1" class="edge">
<path fill="none" stroke="#cfb87c" stroke-width="1.5" d="M287.79,-719.34C287.79,-712.59 287.79,-704.69 287.79,-697.11"/>
<polygon fill="#121212" stroke="#cfb87c" stroke-width="1.5" points="291.29,-697.17 287.79,-687.17 284.29,-697.17 291.29,-697.17"/>
</g>
<!-- ack -->
<g id="clickable" class="node">
<g id="a_clickable"><a xlink:href="../getting_started/acknowledge_curc_resources.html" target="_blank">
<ellipse fill="#121212" stroke="#cfb87c" stroke-width="2" cx="90.79" cy="-594" rx="90.79" ry="18"/>
<text text-anchor="middle" x="90.79" y="-589.73" font-family="Verdana" font-size="12.00" fill="white">Acknowledging CURC</text>
</a>
</g>
</g>
<!-- logging_in&#45;&gt;ack -->
<g id="doc-flowchart_edge2" class="edge">
<path fill="none" stroke="#cfb87c" stroke-width="1.5" d="M252.57,-652.49C222.94,-641.96 180.06,-626.72 145.89,-614.58"/>
<polygon fill="#121212" stroke="#cfb87c" stroke-width="1.5" points="147.4,-611.4 136.81,-611.35 145.06,-618 147.4,-611.4"/>
</g>
<!-- training -->
<g id="clickable" class="node">
<g id="a_clickable"><a xlink:href="../getting_started/current-sem-trainings.html" target="_blank">
<ellipse fill="#121212" stroke="#cfb87c" stroke-width="2" cx="242.79" cy="-594" rx="43.57" ry="18"/>
<text text-anchor="middle" x="242.79" y="-589.73" font-family="Verdana" font-size="12.00" fill="white">Trainings</text>
</a>
</g>
</g>
<!-- logging_in&#45;&gt;training -->
<g id="doc-flowchart_edge3" class="edge">
<path fill="none" stroke="#cfb87c" stroke-width="1.5" d="M276.67,-647.7C271.76,-640.07 265.88,-630.92 260.4,-622.4"/>
<polygon fill="#121212" stroke="#cfb87c" stroke-width="1.5" points="263.37,-620.53 255.02,-614.01 257.48,-624.32 263.37,-620.53"/>
</g>
<!-- faq -->
<g id="clickable" class="node">
<g id="a_clickable"><a xlink:href="../getting_started/faq.html" target="_blank">
<ellipse fill="#121212" stroke="#cfb87c" stroke-width="2" cx="333.79" cy="-594" rx="29.26" ry="18"/>
<text text-anchor="middle" x="333.79" y="-589.73" font-family="Verdana" font-size="12.00" fill="white">FAQs</text>
</a>
</g>
</g>
<!-- logging_in&#45;&gt;faq -->
<g id="doc-flowchart_edge4" class="edge">
<path fill="none" stroke="#cfb87c" stroke-width="1.5" d="M299.16,-647.7C304.31,-639.87 310.51,-630.44 316.23,-621.73"/>
<polygon fill="#121212" stroke="#cfb87c" stroke-width="1.5" points="319.06,-623.8 321.62,-613.52 313.21,-619.95 319.06,-623.8"/>
</g>
<!-- compute_env -->
<g id="doc-flowchart_node6" class="node">
<ellipse fill="#121212" stroke="#cfb87c" stroke-width="3" stroke-dasharray="5,2" cx="531.79" cy="-594" rx="150.42" ry="18"/>
<text text-anchor="middle" x="531.79" y="-589.73" font-family="Verdana" font-size="12.00" fill="white">What does the HPC system look like?</text>
</g>
<!-- logging_in&#45;&gt;compute_env -->
<g id="doc-flowchart_edge5" class="edge">
<path fill="none" stroke="#cfb87c" stroke-width="1.5" d="M326.72,-653.83C362.84,-643.47 417.44,-627.81 461.22,-615.25"/>
<polygon fill="#121212" stroke="#cfb87c" stroke-width="1.5" points="462.14,-618.62 470.79,-612.5 460.21,-611.89 462.14,-618.62"/>
</g>
<!-- node_type -->
<g id="clickable" class="node">
<g id="a_clickable"><a xlink:href="../compute/node-types.html" target="_blank">
<ellipse fill="#121212" stroke="#cfb87c" stroke-width="2" cx="443.79" cy="-522" rx="53.11" ry="18"/>
<text text-anchor="middle" x="443.79" y="-517.73" font-family="Verdana" font-size="12.00" fill="white">Node types</text>
</a>
</g>
</g>
<!-- compute_env&#45;&gt;node_type -->
<g id="doc-flowchart_edge6" class="edge">
<path fill="none" stroke="#cfb87c" stroke-width="1.5" d="M509.13,-574.97C498.39,-566.43 485.41,-556.1 473.86,-546.91"/>
<polygon fill="#121212" stroke="#cfb87c" stroke-width="1.5" points="476.35,-544.43 466.35,-540.94 471.99,-549.9 476.35,-544.43"/>
</g>
<!-- filesystem -->
<g id="clickable" class="node">
<g id="a_clickable"><a xlink:href="../compute/filesystems.html" target="_blank">
<ellipse fill="#121212" stroke="#cfb87c" stroke-width="2" cx="619.79" cy="-522" rx="72.19" ry="18"/>
<text text-anchor="middle" x="619.79" y="-517.73" font-family="Verdana" font-size="12.00" fill="white">CURC filesystem</text>
</a>
</g>
</g>
<!-- compute_env&#45;&gt;filesystem -->
<g id="doc-flowchart_edge7" class="edge">
<path fill="none" stroke="#cfb87c" stroke-width="1.5" d="M554.45,-574.97C564.93,-566.64 577.54,-556.61 588.87,-547.6"/>
<polygon fill="#121212" stroke="#cfb87c" stroke-width="1.5" points="590.99,-550.38 596.64,-541.42 586.64,-544.9 590.99,-550.38"/>
</g>
<!-- running_jobs -->
<g id="doc-flowchart_node7" class="node">
<ellipse fill="#121212" stroke="#cfb87c" stroke-width="3" stroke-dasharray="5,2" cx="409.79" cy="-306" rx="83.64" ry="18"/>
<text text-anchor="middle" x="409.79" y="-301.73" font-family="Verdana" font-size="12.00" fill="white">How do I run a job?</text>
</g>
<!-- slurm -->
<g id="clickable" class="node">
<g id="a_clickable"><a xlink:href="../running-jobs/job-resources.html" target="_blank">
<ellipse fill="#121212" stroke="#cfb87c" stroke-width="2" cx="346.79" cy="-234" rx="32.12" ry="18"/>
<text text-anchor="middle" x="346.79" y="-229.72" font-family="Verdana" font-size="12.00" fill="white">Slurm</text>
</a>
</g>
</g>
<!-- running_jobs&#45;&gt;slurm -->
<g id="doc-flowchart_edge15" class="edge">
<path fill="none" stroke="#cfb87c" stroke-width="1.5" d="M393.57,-286.97C386.1,-278.68 377.12,-268.7 369.03,-259.71"/>
<polygon fill="#121212" stroke="#cfb87c" stroke-width="1.5" points="371.84,-257.6 362.55,-252.51 366.64,-262.28 371.84,-257.6"/>
</g>
<!-- ood -->
<g id="clickable" class="node">
<g id="a_clickable"><a xlink:href="../open_ondemand/index.html" target="_blank">
<ellipse fill="#121212" stroke="#cfb87c" stroke-width="2" cx="473.79" cy="-234" rx="76.48" ry="18"/>
<text text-anchor="middle" x="473.79" y="-229.72" font-family="Verdana" font-size="12.00" fill="white">Open OnDemand</text>
</a>
</g>
</g>
<!-- running_jobs&#45;&gt;ood -->
<g id="doc-flowchart_edge16" class="edge">
<path fill="none" stroke="#cfb87c" stroke-width="1.5" d="M426.27,-286.97C433.45,-279.12 442.01,-269.76 449.87,-261.16"/>
<polygon fill="#121212" stroke="#cfb87c" stroke-width="1.5" points="452.33,-263.66 456.5,-253.92 447.17,-258.94 452.33,-263.66"/>
</g>
<!-- clusters -->
<g id="doc-flowchart_node8" class="node">
<ellipse fill="#121212" stroke="#cfb87c" stroke-width="3" stroke-dasharray="5,2" cx="409.79" cy="-450" rx="117.03" ry="18"/>
<text text-anchor="middle" x="409.79" y="-445.73" font-family="Verdana" font-size="12.00" fill="white">What clusters are available?</text>
</g>
<!-- alpine -->
<g id="clickable" class="node">
<g id="a_clickable"><a xlink:href="../clusters/alpine/index.html" target="_blank">
<ellipse fill="#121212" stroke="#cfb87c" stroke-width="2" cx="366.79" cy="-378" rx="33.55" ry="18"/>
<text text-anchor="middle" x="366.79" y="-373.73" font-family="Verdana" font-size="12.00" fill="white">Alpine</text>
</a>
</g>
</g>
<!-- clusters&#45;&gt;alpine -->
<g id="doc-flowchart_edge11" class="edge">
<path fill="none" stroke="#cfb87c" stroke-width="1.5" d="M398.49,-430.61C393.93,-423.17 388.56,-414.44 383.55,-406.28"/>
<polygon fill="#121212" stroke="#cfb87c" stroke-width="1.5" points="386.68,-404.69 378.47,-398 380.72,-408.36 386.68,-404.69"/>
</g>
<!-- blanca -->
<g id="clickable" class="node">
<g id="a_clickable"><a xlink:href="../clusters/blanca/blanca.html" target="_blank">
<ellipse fill="#121212" stroke="#cfb87c" stroke-width="2" cx="453.79" cy="-378" rx="35.94" ry="18"/>
<text text-anchor="middle" x="453.79" y="-373.73" font-family="Verdana" font-size="12.00" fill="white">Blanca</text>
</a>
</g>
</g>
<!-- clusters&#45;&gt;blanca -->
<g id="doc-flowchart_edge12" class="edge">
<path fill="none" stroke="#cfb87c" stroke-width="1.5" d="M421.35,-430.61C426.03,-423.17 431.52,-414.44 436.64,-406.28"/>
<polygon fill="#121212" stroke="#cfb87c" stroke-width="1.5" points="439.5,-408.32 441.86,-397.99 433.57,-404.59 439.5,-408.32"/>
</g>
<!-- node_type&#45;&gt;clusters -->
<g id="doc-flowchart_edge10" class="edge">
<path fill="none" stroke="#cfb87c" stroke-width="1.5" d="M435.21,-503.34C431.83,-496.37 427.85,-488.18 424.06,-480.37"/>
<polygon fill="#121212" stroke="#cfb87c" stroke-width="1.5" points="427.23,-478.9 419.72,-471.43 420.94,-481.96 427.23,-478.9"/>
</g>
<!-- data_transfer -->
<g id="clickable" class="node">
<g id="a_clickable"><a xlink:href="../compute/data-transfer.html" target="_blank">
<ellipse fill="#121212" stroke="#cfb87c" stroke-width="2" cx="619.79" cy="-450" rx="75.05" ry="18"/>
<text text-anchor="middle" x="619.79" y="-445.73" font-family="Verdana" font-size="12.00" fill="white">Transferring data</text>
</a>
</g>
</g>
<!-- filesystem&#45;&gt;data_transfer -->
<g id="doc-flowchart_edge8" class="edge">
<path fill="none" stroke="#cfb87c" stroke-width="1.5" d="M619.79,-503.34C619.79,-496.59 619.79,-488.69 619.79,-481.11"/>
<polygon fill="#121212" stroke="#cfb87c" stroke-width="1.5" points="623.29,-481.17 619.79,-471.17 616.29,-481.17 623.29,-481.17"/>
</g>
<!-- petalibrary -->
<g id="clickable" class="node">
<g id="a_clickable"><a xlink:href="../storage/petalibrary/index.html" target="_blank">
<ellipse fill="#121212" stroke="#cfb87c" stroke-width="2" cx="766.79" cy="-450" rx="53.58" ry="18"/>
<text text-anchor="middle" x="766.79" y="-445.73" font-family="Verdana" font-size="12.00" fill="white">PetaLibrary</text>
</a>
</g>
</g>
<!-- filesystem&#45;&gt;petalibrary -->
<g id="doc-flowchart_edge9" class="edge">
<path fill="none" stroke="#cfb87c" stroke-width="1.5" d="M653.15,-505.12C674.45,-494.97 702.25,-481.73 725.02,-470.89"/>
<polygon fill="#121212" stroke="#cfb87c" stroke-width="1.5" points="726.5,-474.06 734.02,-466.6 723.49,-467.74 726.5,-474.06"/>
</g>
<!-- alpine&#45;&gt;running_jobs -->
<g id="doc-flowchart_edge13" class="edge">
<path fill="none" stroke="#cfb87c" stroke-width="1.5" d="M377.2,-360.05C381.69,-352.74 387.08,-343.98 392.16,-335.7"/>
<polygon fill="#121212" stroke="#cfb87c" stroke-width="1.5" points="395.14,-337.55 397.39,-327.19 389.17,-333.88 395.14,-337.55"/>
</g>
<!-- blanca&#45;&gt;running_jobs -->
<g id="doc-flowchart_edge14" class="edge">
<path fill="none" stroke="#cfb87c" stroke-width="1.5" d="M443.14,-360.05C438.49,-352.66 432.91,-343.78 427.66,-335.42"/>
<polygon fill="#121212" stroke="#cfb87c" stroke-width="1.5" points="430.76,-333.79 422.48,-327.18 424.84,-337.51 430.76,-333.79"/>
</g>
<!-- interactive -->
<g id="clickable" class="node">
<g id="a_clickable"><a xlink:href="../running-jobs/interactive-jobs.html" target="_blank">
<ellipse fill="#121212" stroke="#cfb87c" stroke-width="2" cx="258.79" cy="-162" rx="68.85" ry="18"/>
<text text-anchor="middle" x="258.79" y="-157.72" font-family="Verdana" font-size="12.00" fill="white">Interactive jobs</text>
</a>
</g>
</g>
<!-- slurm&#45;&gt;interactive -->
<g id="doc-flowchart_edge17" class="edge">
<path fill="none" stroke="#cfb87c" stroke-width="1.5" d="M328.56,-218.5C317.33,-209.56 302.63,-197.87 289.63,-187.53"/>
<polygon fill="#121212" stroke="#cfb87c" stroke-width="1.5" points="291.88,-184.85 281.88,-181.36 287.53,-190.33 291.88,-184.85"/>
</g>
<!-- batch -->
<g id="clickable" class="node">
<g id="a_clickable"><a xlink:href="../running-jobs/batch-jobs.html" target="_blank">
<ellipse fill="#121212" stroke="#cfb87c" stroke-width="2" cx="395.79" cy="-162" rx="49.77" ry="18"/>
<text text-anchor="middle" x="395.79" y="-157.72" font-family="Verdana" font-size="12.00" fill="white">Batch jobs</text>
</a>
</g>
</g>
<!-- slurm&#45;&gt;batch -->
<g id="doc-flowchart_edge18" class="edge">
<path fill="none" stroke="#cfb87c" stroke-width="1.5" d="M358.4,-216.41C363.94,-208.51 370.7,-198.85 376.94,-189.94"/>
<polygon fill="#121212" stroke="#cfb87c" stroke-width="1.5" points="379.75,-192.02 382.62,-181.82 374.02,-188 379.75,-192.02"/>
</g>
<!-- using_software -->
<g id="doc-flowchart_node19" class="node">
<ellipse fill="#121212" stroke="#cfb87c" stroke-width="3" stroke-dasharray="5,2" cx="395.79" cy="-90" rx="97.47" ry="18"/>
<text text-anchor="middle" x="395.79" y="-85.72" font-family="Verdana" font-size="12.00" fill="white">How do I run software?</text>
</g>
<!-- interactive&#45;&gt;using_software -->
<g id="doc-flowchart_edge19" class="edge">
<path fill="none" stroke="#cfb87c" stroke-width="1.5" d="M289.88,-145.12C308,-135.86 331.15,-124.03 351.19,-113.79"/>
<polygon fill="#121212" stroke="#cfb87c" stroke-width="1.5" points="352.62,-116.99 359.93,-109.33 349.43,-110.76 352.62,-116.99"/>
</g>
<!-- batch&#45;&gt;using_software -->
<g id="doc-flowchart_edge20" class="edge">
<path fill="none" stroke="#cfb87c" stroke-width="1.5" d="M395.79,-143.34C395.79,-136.69 395.79,-128.94 395.79,-121.46"/>
<polygon fill="#121212" stroke="#cfb87c" stroke-width="1.5" points="399.29,-121.66 395.79,-111.66 392.29,-121.66 399.29,-121.66"/>
</g>
<!-- ood&#45;&gt;using_software -->
<g id="doc-flowchart_edge21" class="edge">
<path fill="none" stroke="#cfb87c" stroke-width="1.5" d="M473.2,-215.12C471.87,-196.28 467.69,-166.29 454.79,-144 448.8,-133.65 440.09,-124.23 431.19,-116.29"/>
<polygon fill="#121212" stroke="#cfb87c" stroke-width="1.5" points="433.61,-113.75 423.69,-110.03 429.13,-119.13 433.61,-113.75"/>
</g>
<!-- modules -->
<g id="clickable" class="node">
<g id="a_clickable"><a xlink:href="../compute/modules.html" target="_blank">
<ellipse fill="#121212" stroke="#cfb87c" stroke-width="2" cx="159.79" cy="-18" rx="85.07" ry="18"/>
<text text-anchor="middle" x="159.79" y="-13.72" font-family="Verdana" font-size="12.00" fill="white">The module system</text>
</a>
</g>
</g>
<!-- using_software&#45;&gt;modules -->
<g id="doc-flowchart_edge22" class="edge">
<path fill="none" stroke="#cfb87c" stroke-width="1.5" d="M343.42,-73.46C306.99,-62.66 258.33,-48.23 220.25,-36.93"/>
<polygon fill="#121212" stroke="#cfb87c" stroke-width="1.5" points="221.56,-33.67 210.98,-34.18 219.57,-40.38 221.56,-33.67"/>
</g>
<!-- container -->
<g id="clickable" class="node">
<g id="a_clickable"><a xlink:href="../software/containerization.html" target="_blank">
<ellipse fill="#121212" stroke="#cfb87c" stroke-width="2" cx="334.79" cy="-18" rx="72.19" ry="18"/>
<text text-anchor="middle" x="334.79" y="-13.72" font-family="Verdana" font-size="12.00" fill="white">Containerization</text>
</a>
</g>
</g>
<!-- using_software&#45;&gt;container -->
<g id="doc-flowchart_edge23" class="edge">
<path fill="none" stroke="#cfb87c" stroke-width="1.5" d="M380.08,-70.97C373.31,-63.2 365.26,-53.96 357.83,-45.44"/>
<polygon fill="#121212" stroke="#cfb87c" stroke-width="1.5" points="360.52,-43.19 351.31,-37.95 355.24,-47.79 360.52,-43.19"/>
</g>
<!-- spack -->
<g id="clickable" class="node">
<g id="a_clickable"><a xlink:href="../software/spack.html" target="_blank">
<ellipse fill="#121212" stroke="#cfb87c" stroke-width="2" cx="457.79" cy="-18" rx="33.07" ry="18"/>
<text text-anchor="middle" x="457.79" y="-13.72" font-family="Verdana" font-size="12.00" fill="white">Spack</text>
</a>
</g>
</g>
<!-- using_software&#45;&gt;spack -->
<g id="doc-flowchart_edge24" class="edge">
<path fill="none" stroke="#cfb87c" stroke-width="1.5" d="M411.76,-70.97C419.03,-62.76 427.76,-52.91 435.65,-44"/>
<polygon fill="#121212" stroke="#cfb87c" stroke-width="1.5" points="438.26,-46.33 442.27,-36.52 433.02,-41.69 438.26,-46.33"/>
</g>
<!-- conda -->
<g id="clickable" class="node">
<g id="a_clickable"><a xlink:href="../software/python.html" target="_blank">
<ellipse fill="#121212" stroke="#cfb87c" stroke-width="2" cx="597.79" cy="-18" rx="88.88" ry="18"/>
<text text-anchor="middle" x="597.79" y="-13.72" font-family="Verdana" font-size="12.00" fill="white">Conda environments</text>
</a>
</g>
</g>
<!-- using_software&#45;&gt;conda -->
<g id="doc-flowchart_edge25" class="edge">
<path fill="none" stroke="#cfb87c" stroke-width="1.5" d="M442.39,-72.85C471.94,-62.61 510.34,-49.31 541.58,-38.48"/>
<polygon fill="#121212" stroke="#cfb87c" stroke-width="1.5" points="542.72,-41.79 551.02,-35.21 540.42,-35.18 542.72,-41.79"/>
</g>
</g>
</svg>