<!DOCTYPE svg PUBLIC "-//W3C//DTD SVG 1.1//EN" "http://www.w3.org/Graphics/SVG/1.1/DTD/svg11.dtd">
<!-- Generated by graphviz version 12.0.0 (0)
 --><!-- Pages: 1 --><svg xmlns="http://www.w3.org/2000/svg" xmlns:xlink="http://www.w3.org/1999/xlink" width="100%" height="100%" viewBox="0.00 0.00 867.53 764.00">
<g id="doc-flowchart" class="graph" transform="scale(1 1) rotate(0) translate(4 760)">
<!-- policies -->
<g id="clickable" class="node">
<g id="a_clickable"><a xlink:href="../additional-resources/policies.html" target="_blank">
<ellipse fill="#121212" stroke="#cfb87c" stroke-width="2" cx="301.47" cy="-738" rx="64.54" ry="18"/>
<text text-anchor="middle" x="301.47" y="-734.48" font-family="Verdana" font-size="12.00" fill="white">CURC Policies</text>
</a>
</g>
</g>
<!-- logging_in -->
<g id="clickable" class="node">
<g id="a_clickable"><a xlink:href="../getting_started/logging-in.html" target="_blank">
<ellipse fill="#121212" stroke="#cfb87c" stroke-width="2" cx="301.47" cy="-666" rx="53.56" ry="18"/>
<text text-anchor="middle" x="301.47" y="-662.48" font-family="Verdana" font-size="12.00" fill="white">Logging In</text>
</a>
</g>
</g>
<!-- policies&#45;&gt;logging_in -->
<g id="doc-flowchart_edge1" class="edge">
<path fill="none" stroke="#cfb87c" stroke-width="1.5" d="M301.47,-719.34C301.47,-712.59 301.47,-704.69 301.47,-697.11"/>
<polygon fill="#121212" stroke="#cfb87c" stroke-width="1.5" points="304.97,-697.17 301.47,-687.17 297.97,-697.17 304.97,-697.17"/>
</g>
<!-- ack -->
<g id="clickable" class="node">
<g id="a_clickable"><a xlink:href="../getting_started/acknowledge_curc_resources.html" target="_blank">
<ellipse fill="#121212" stroke="#cfb87c" stroke-width="2" cx="95.47" cy="-594" rx="95.47" ry="18"/>
<text text-anchor="middle" x="95.47" y="-590.48" font-family="Verdana" font-size="12.00" fill="white">Acknowledging CURC</text>
</a>
</g>
</g>
<!-- logging_in&#45;&gt;ack -->
<g id="doc-flowchart_edge2" class="edge">
<path fill="none" stroke="#cfb87c" stroke-width="1.5" d="M264.17,-652.32C233.1,-641.76 188.33,-626.55 152.73,-614.45"/>
<polygon fill="#121212" stroke="#cfb87c" stroke-width="1.5" points="154.26,-611.28 143.67,-611.38 152.01,-617.91 154.26,-611.28"/>
</g>
<!-- training -->
<g id="clickable" class="node">
<g id="a_clickable"><a xlink:href="../getting_started/current-sem-trainings.html" target="_blank">
<ellipse fill="#121212" stroke="#cfb87c" stroke-width="2" cx="254.47" cy="-594" rx="45.57" ry="18"/>
<text text-anchor="middle" x="254.47" y="-590.48" font-family="Verdana" font-size="12.00" fill="white">Trainings</text>
</a>
</g>
</g>
<!-- logging_in&#45;&gt;training -->
<g id="doc-flowchart_edge3" class="edge">
<path fill="none" stroke="#cfb87c" stroke-width="1.5" d="M289.86,-647.7C284.68,-639.98 278.45,-630.71 272.68,-622.11"/>
<polygon fill="#121212" stroke="#cfb87c" stroke-width="1.5" points="275.7,-620.34 267.22,-613.99 269.89,-624.24 275.7,-620.34"/>
</g>
<!-- faq -->
<g id="clickable" class="node">
<g id="a_clickable"><a xlink:href="../getting_started/faq.html" target="_blank">
<ellipse fill="#121212" stroke="#cfb87c" stroke-width="2" cx="349.47" cy="-594" rx="31.1" ry="18"/>
<text text-anchor="middle" x="349.47" y="-590.48" font-family="Verdana" font-size="12.00" fill="white">FAQs</text>
</a>
</g>
</g>
<!-- logging_in&#45;&gt;faq -->
<g id="doc-flowchart_edge4" class="edge">
<path fill="none" stroke="#cfb87c" stroke-width="1.5" d="M313.34,-647.7C318.71,-639.87 325.18,-630.44 331.15,-621.73"/>
<polygon fill="#121212" stroke="#cfb87c" stroke-width="1.5" points="334.02,-623.72 336.79,-613.49 328.25,-619.76 334.02,-623.72"/>
</g>
<!-- compute_env -->
<g id="doc-flowchart_node6" class="node">
<ellipse fill="#121212" stroke="#cfb87c" stroke-width="3" stroke-dasharray="5,2" cx="558.47" cy="-594" rx="160.34" ry="18"/>
<text text-anchor="middle" x="558.47" y="-590.48" font-family="Verdana" font-size="12.00" fill="white">What does the HPC system look like?</text>
</g>
<!-- logging_in&#45;&gt;compute_env -->
<g id="doc-flowchart_edge5" class="edge">
<path fill="none" stroke="#cfb87c" stroke-width="1.5" d="M342.77,-653.75C380.88,-643.37 438.38,-627.71 484.42,-615.17"/>
<polygon fill="#121212" stroke="#cfb87c" stroke-width="1.5" points="485.25,-618.57 493.98,-612.57 483.41,-611.82 485.25,-618.57"/>
</g>
<!-- node_type -->
<g id="clickable" class="node">
<g id="a_clickable"><a xlink:href="../compute/node-types.html" target="_blank">
<ellipse fill="#121212" stroke="#cfb87c" stroke-width="2" cx="465.47" cy="-522" rx="56.05" ry="18"/>
<text text-anchor="middle" x="465.47" y="-518.48" font-family="Verdana" font-size="12.00" fill="white">Node types</text>
</a>
</g>
</g>
<!-- compute_env&#45;&gt;node_type -->
<g id="doc-flowchart_edge6" class="edge">
<path fill="none" stroke="#cfb87c" stroke-width="1.5" d="M534.52,-574.97C523.06,-566.34 509.18,-555.9 496.88,-546.64"/>
<polygon fill="#121212" stroke="#cfb87c" stroke-width="1.5" points="499.34,-544.11 489.25,-540.89 495.13,-549.7 499.34,-544.11"/>
</g>
<!-- filesystem -->
<g id="clickable" class="node">
<g id="a_clickable"><a xlink:href="../compute/filesystems.html" target="_blank">
<ellipse fill="#121212" stroke="#cfb87c" stroke-width="2" cx="651.47" cy="-522" rx="76.51" ry="18"/>
<text text-anchor="middle" x="651.47" y="-518.48" font-family="Verdana" font-size="12.00" fill="white">CURC filesystem</text>
</a>
</g>
</g>
<!-- compute_env&#45;&gt;filesystem -->
<g id="doc-flowchart_edge7" class="edge">
<path fill="none" stroke="#cfb87c" stroke-width="1.5" d="M582.42,-574.97C593.61,-566.56 607.09,-556.41 619.16,-547.32"/>
<polygon fill="#121212" stroke="#cfb87c" stroke-width="1.5" points="621.19,-550.18 627.07,-541.37 616.98,-544.58 621.19,-550.18"/>
</g>
<!-- running_jobs -->
<g id="doc-flowchart_node7" class="node">
<ellipse fill="#121212" stroke="#cfb87c" stroke-width="3" stroke-dasharray="5,2" cx="430.47" cy="-306" rx="92.48" ry="18"/>
<text text-anchor="middle" x="430.47" y="-302.48" font-family="Verdana" font-size="12.00" fill="white">How do I run a job?</text>
</g>
<!-- slurm -->
<g id="clickable" class="node">
<g id="a_clickable"><a xlink:href="../running-jobs/job-resources.html" target="_blank">
<ellipse fill="#121212" stroke="#cfb87c" stroke-width="2" cx="364.47" cy="-234" rx="34.6" ry="18"/>
<text text-anchor="middle" x="364.47" y="-230.47" font-family="Verdana" font-size="12.00" fill="white">Slurm</text>
</a>
</g>
</g>
<!-- running_jobs&#45;&gt;slurm -->
<g id="doc-flowchart_edge15" class="edge">
<path fill="none" stroke="#cfb87c" stroke-width="1.5" d="M413.48,-286.97C405.65,-278.68 396.25,-268.7 387.78,-259.71"/>
<polygon fill="#121212" stroke="#cfb87c" stroke-width="1.5" points="390.36,-257.35 380.95,-252.47 385.26,-262.15 390.36,-257.35"/>
</g>
<!-- ood -->
<g id="clickable" class="node">
<g id="a_clickable"><a xlink:href="../open_ondemand/index.html" target="_blank">
<ellipse fill="#121212" stroke="#cfb87c" stroke-width="2" cx="497.47" cy="-234" rx="80.5" ry="18"/>
<text text-anchor="middle" x="497.47" y="-230.47" font-family="Verdana" font-size="12.00" fill="white">Open OnDemand</text>
</a>
</g>
</g>
<!-- running_jobs&#45;&gt;ood -->
<g id="doc-flowchart_edge16" class="edge">
<path fill="none" stroke="#cfb87c" stroke-width="1.5" d="M447.73,-286.97C455.33,-279.04 464.39,-269.56 472.69,-260.89"/>
<polygon fill="#121212" stroke="#cfb87c" stroke-width="1.5" points="475.02,-263.53 479.4,-253.88 469.96,-258.69 475.02,-263.53"/>
</g>
<!-- clusters -->
<g id="doc-flowchart_node8" class="node">
<ellipse fill="#121212" stroke="#cfb87c" stroke-width="3" stroke-dasharray="5,2" cx="430.47" cy="-450" rx="123.92" ry="18"/>
<text text-anchor="middle" x="430.47" y="-446.48" font-family="Verdana" font-size="12.00" fill="white">What clusters are available?</text>
</g>
<!-- alpine -->
<g id="clickable" class="node">
<g id="a_clickable"><a xlink:href="../clusters/alpine/index.html" target="_blank">
<ellipse fill="#121212" stroke="#cfb87c" stroke-width="2" cx="385.47" cy="-378" rx="35.1" ry="18"/>
<text text-anchor="middle" x="385.47" y="-374.48" font-family="Verdana" font-size="12.00" fill="white">Alpine</text>
</a>
</g>
</g>
<!-- clusters&#45;&gt;alpine -->
<g id="doc-flowchart_edge11" class="edge">
<path fill="none" stroke="#cfb87c" stroke-width="1.5" d="M418.65,-430.61C413.87,-423.17 408.25,-414.44 403.01,-406.28"/>
<polygon fill="#121212" stroke="#cfb87c" stroke-width="1.5" points="406.03,-404.5 397.67,-397.98 400.14,-408.28 406.03,-404.5"/>
</g>
<!-- blanca -->
<g id="clickable" class="node">
<g id="a_clickable"><a xlink:href="../clusters/blanca/blanca.html" target="_blank">
<ellipse fill="#121212" stroke="#cfb87c" stroke-width="2" cx="475.47" cy="-378" rx="37.09" ry="18"/>
<text text-anchor="middle" x="475.47" y="-374.48" font-family="Verdana" font-size="12.00" fill="white">Blanca</text>
</a>
</g>
</g>
<!-- clusters&#45;&gt;blanca -->
<g id="doc-flowchart_edge12" class="edge">
<path fill="none" stroke="#cfb87c" stroke-width="1.5" d="M442.3,-430.61C447.08,-423.17 452.69,-414.44 457.93,-406.28"/>
<polygon fill="#121212" stroke="#cfb87c" stroke-width="1.5" points="460.81,-408.28 463.27,-397.98 454.92,-404.5 460.81,-408.28"/>
</g>
<!-- node_type&#45;&gt;clusters -->
<g id="doc-flowchart_edge10" class="edge">
<path fill="none" stroke="#cfb87c" stroke-width="1.5" d="M456.64,-503.34C453.12,-496.29 448.97,-487.99 445.02,-480.1"/>
<polygon fill="#121212" stroke="#cfb87c" stroke-width="1.5" points="448.29,-478.8 440.69,-471.42 442.03,-481.93 448.29,-478.8"/>
</g>
<!-- data_transfer -->
<g id="clickable" class="node">
<g id="a_clickable"><a xlink:href="../compute/data-transfer.html" target="_blank">
<ellipse fill="#121212" stroke="#cfb87c" stroke-width="2" cx="651.47" cy="-450" rx="79.51" ry="18"/>
<text text-anchor="middle" x="651.47" y="-446.48" font-family="Verdana" font-size="12.00" fill="white">Transferring data</text>
</a>
</g>
</g>
<!-- filesystem&#45;&gt;data_transfer -->
<g id="doc-flowchart_edge8" class="edge">
<path fill="none" stroke="#cfb87c" stroke-width="1.5" d="M651.47,-503.34C651.47,-496.59 651.47,-488.69 651.47,-481.11"/>
<polygon fill="#121212" stroke="#cfb87c" stroke-width="1.5" points="654.97,-481.17 651.47,-471.17 647.97,-481.17 654.97,-481.17"/>
</g>
<!-- petalibrary -->
<g id="clickable" class="node">
<g id="a_clickable"><a xlink:href="../storage/petalibrary/index.html" target="_blank">
<ellipse fill="#121212" stroke="#cfb87c" stroke-width="2" cx="804.47" cy="-450" rx="55.06" ry="18"/>
<text text-anchor="middle" x="804.47" y="-446.48" font-family="Verdana" font-size="12.00" fill="white">PetaLibrary</text>
</a>
</g>
</g>
<!-- filesystem&#45;&gt;petalibrary -->
<g id="doc-flowchart_edge9" class="edge">
<path fill="none" stroke="#cfb87c" stroke-width="1.5" d="M686.19,-505.12C708.65,-494.84 738.03,-481.4 761.89,-470.48"/>
<polygon fill="#121212" stroke="#cfb87c" stroke-width="1.5" points="763.06,-473.8 770.7,-466.45 760.15,-467.43 763.06,-473.8"/>
</g>
<!-- alpine&#45;&gt;running_jobs -->
<g id="doc-flowchart_edge13" class="edge">
<path fill="none" stroke="#cfb87c" stroke-width="1.5" d="M396.37,-360.05C401.12,-352.66 406.83,-343.78 412.2,-335.42"/>
<polygon fill="#121212" stroke="#cfb87c" stroke-width="1.5" points="415.04,-337.47 417.51,-327.17 409.16,-333.69 415.04,-337.47"/>
</g>
<!-- blanca&#45;&gt;running_jobs -->
<g id="doc-flowchart_edge14" class="edge">
<path fill="none" stroke="#cfb87c" stroke-width="1.5" d="M464.58,-360.05C459.83,-352.66 454.12,-343.78 448.74,-335.42"/>
<polygon fill="#121212" stroke="#cfb87c" stroke-width="1.5" points="451.79,-333.69 443.44,-327.17 445.9,-337.47 451.79,-333.69"/>
</g>
<!-- interactive -->
<g id="clickable" class="node">
<g id="a_clickable"><a xlink:href="../running-jobs/interactive-jobs.html" target="_blank">
<ellipse fill="#121212" stroke="#cfb87c" stroke-width="2" cx="272.47" cy="-162" rx="73.02" ry="18"/>
<text text-anchor="middle" x="272.47" y="-158.47" font-family="Verdana" font-size="12.00" fill="white">Interactive jobs</text>
</a>
</g>
</g>
<!-- slurm&#45;&gt;interactive -->
<g id="doc-flowchart_edge17" class="edge">
<path fill="none" stroke="#cfb87c" stroke-width="1.5" d="M344.96,-218.15C333.16,-209.18 317.84,-197.52 304.32,-187.23"/>
<polygon fill="#121212" stroke="#cfb87c" stroke-width="1.5" points="306.75,-184.68 296.68,-181.41 302.52,-190.26 306.75,-184.68"/>
</g>
<!-- batch -->
<g id="clickable" class="node">
<g id="a_clickable"><a xlink:href="../running-jobs/batch-jobs.html" target="_blank">
<ellipse fill="#121212" stroke="#cfb87c" stroke-width="2" cx="416.47" cy="-162" rx="53.06" ry="18"/>
<text text-anchor="middle" x="416.47" y="-158.47" font-family="Verdana" font-size="12.00" fill="white">Batch jobs</text>
</a>
</g>
</g>
<!-- slurm&#45;&gt;batch -->
<g id="doc-flowchart_edge18" class="edge">
<path fill="none" stroke="#cfb87c" stroke-width="1.5" d="M376.8,-216.41C382.73,-208.42 390,-198.64 396.68,-189.64"/>
<polygon fill="#121212" stroke="#cfb87c" stroke-width="1.5" points="399.37,-191.89 402.52,-181.78 393.75,-187.72 399.37,-191.89"/>
</g>
<!-- using_software -->
<g id="doc-flowchart_node19" class="node">
<ellipse fill="#121212" stroke="#cfb87c" stroke-width="3" stroke-dasharray="5,2" cx="416.47" cy="-90" rx="106.45" ry="18"/>
<text text-anchor="middle" x="416.47" y="-86.47" font-family="Verdana" font-size="12.00" fill="white">How do I run software?</text>
</g>
<!-- interactive&#45;&gt;using_software -->
<g id="doc-flowchart_edge19" class="edge">
<path fill="none" stroke="#cfb87c" stroke-width="1.5" d="M305.15,-145.12C324.28,-135.82 348.76,-123.92 369.89,-113.65"/>
<polygon fill="#121212" stroke="#cfb87c" stroke-width="1.5" points="371.4,-116.8 378.86,-109.28 368.34,-110.51 371.4,-116.8"/>
</g>
<!-- batch&#45;&gt;using_software -->
<g id="doc-flowchart_edge20" class="edge">
<path fill="none" stroke="#cfb87c" stroke-width="1.5" d="M416.47,-143.34C416.47,-136.69 416.47,-128.94 416.47,-121.46"/>
<polygon fill="#121212" stroke="#cfb87c" stroke-width="1.5" points="419.97,-121.66 416.47,-111.66 412.97,-121.66 419.97,-121.66"/>
</g>
<!-- ood&#45;&gt;using_software -->
<g id="doc-flowchart_edge21" class="edge">
<path fill="none" stroke="#cfb87c" stroke-width="1.5" d="M496.99,-215.06C495.75,-196.16 491.65,-166.13 478.47,-144 472.29,-133.61 463.34,-124.26 454.15,-116.41"/>
<polygon fill="#121212" stroke="#cfb87c" stroke-width="1.5" points="456.38,-113.7 446.38,-110.2 452.01,-119.18 456.38,-113.7"/>
</g>
<!-- modules -->
<g id="clickable" class="node">
<g id="a_clickable"><a xlink:href="../compute/modules.html" target="_blank">
<ellipse fill="#121212" stroke="#cfb87c" stroke-width="2" cx="168.47" cy="-18" rx="89.99" ry="18"/>
<text text-anchor="middle" x="168.47" y="-14.47" font-family="Verdana" font-size="12.00" fill="white">The module system</text>
</a>
</g>
</g>
<!-- using_software&#45;&gt;modules -->
<g id="doc-flowchart_edge22" class="edge">
<path fill="none" stroke="#cfb87c" stroke-width="1.5" d="M361.13,-73.38C322.88,-62.58 271.91,-48.19 232,-36.93"/>
<polygon fill="#121212" stroke="#cfb87c" stroke-width="1.5" points="233.02,-33.58 222.45,-34.23 231.12,-40.32 233.02,-33.58"/>
</g>
<!-- container -->
<g id="clickable" class="node">
<g id="a_clickable"><a xlink:href="../software/containerization.html" target="_blank">
<ellipse fill="#121212" stroke="#cfb87c" stroke-width="2" cx="352.47" cy="-18" rx="75.51" ry="18"/>
<text text-anchor="middle" x="352.47" y="-14.47" font-family="Verdana" font-size="12.00" fill="white">Containerization</text>
</a>
</g>
</g>
<!-- using_software&#45;&gt;container -->
<g id="doc-flowchart_edge23" class="edge">
<path fill="none" stroke="#cfb87c" stroke-width="1.5" d="M399.99,-70.97C392.81,-63.12 384.26,-53.76 376.4,-45.16"/>
<polygon fill="#121212" stroke="#cfb87c" stroke-width="1.5" points="379.1,-42.94 369.77,-37.92 373.93,-47.66 379.1,-42.94"/>
</g>
<!-- spack -->
<g id="clickable" class="node">
<g id="a_clickable"><a xlink:href="../software/spack.html" target="_blank">
<ellipse fill="#121212" stroke="#cfb87c" stroke-width="2" cx="480.47" cy="-18" rx="34.6" ry="18"/>
<text text-anchor="middle" x="480.47" y="-14.47" font-family="Verdana" font-size="12.00" fill="white">Spack</text>
</a>
</g>
</g>
<!-- using_software&#45;&gt;spack -->
<g id="doc-flowchart_edge24" class="edge">
<path fill="none" stroke="#cfb87c" stroke-width="1.5" d="M432.96,-70.97C440.54,-62.68 449.67,-52.7 457.88,-43.71"/>
<polygon fill="#121212" stroke="#cfb87c" stroke-width="1.5" points="460.31,-46.24 464.48,-36.5 455.15,-41.52 460.31,-46.24"/>
</g>
<!-- conda -->
<g id="clickable" class="node">
<g id="a_clickable"><a xlink:href="../software/python.html" target="_blank">
<ellipse fill="#121212" stroke="#cfb87c" stroke-width="2" cx="627.47" cy="-18" rx="93.98" ry="18"/>
<text text-anchor="middle" x="627.47" y="-14.47" font-family="Verdana" font-size="12.00" fill="white">Conda environments</text>
</a>
</g>
</g>
<!-- using_software&#45;&gt;conda -->
<g id="doc-flowchart_edge25" class="edge">
<path fill="none" stroke="#cfb87c" stroke-width="1.5" d="M465.68,-72.68C496.59,-62.42 536.62,-49.14 569.12,-38.36"/>
<polygon fill="#121212" stroke="#cfb87c" stroke-width="1.5" points="570.19,-41.69 578.58,-35.22 567.98,-35.05 570.19,-41.69"/>
</g>
</g>
</svg>