<!DOCTYPE svg PUBLIC "-//W3C//DTD SVG 1.1//EN" "http://www.w3.org/Graphics/SVG/1.1/DTD/svg11.dtd">
<!-- Generated by graphviz version 12.0.0 (0)
 --><!-- Pages: 1 --><svg xmlns="http://www.w3.org/2000/svg" xmlns:xlink="http://www.w3.org/1999/xlink" width="100%" height="100%" viewBox="0.00 0.00 851.05 764.00" href="#hpc-flow-chart">
<g id="gs-flowchart" class="graph" transform="scale(1 1) rotate(0) translate(4 760)">
<!-- policies -->
<g id="clickable" class="node">
<g id="a_clickable"><a xlink:href="../additional-resources/policies.html" target="_blank">
<ellipse fill="#121212" stroke="#cfb87c" stroke-width="2" cx="284.99" cy="-738" rx="64.54" ry="18"/>
<text text-anchor="middle" x="284.99" y="-734.48" font-family="Verdana" font-size="12.00" fill="white">CURC Policies</text>
</a>
</g>
</g>
<!-- logging_in -->
<g id="clickable" class="node">
<g id="a_clickable"><a xlink:href="../access/logging-in.html" target="_blank">
<ellipse fill="#121212" stroke="#cfb87c" stroke-width="2" cx="284.99" cy="-666" rx="53.56" ry="18"/>
<text text-anchor="middle" x="284.99" y="-662.48" font-family="Verdana" font-size="12.00" fill="white">Logging In</text>
</a>
</g>
</g>
<!-- policies&#45;&gt;logging_in -->
<g id="gs-flowchart_edge1" class="edge">
<path fill="none" stroke="#cfb87c" stroke-width="1.5" d="M284.99,-719.34C284.99,-712.59 284.99,-704.69 284.99,-697.11"/>
<polygon fill="#121212" stroke="#cfb87c" stroke-width="1.5" points="288.49,-697.17 284.99,-687.17 281.49,-697.17 288.49,-697.17"/>
</g>
<!-- duo -->
<g id="clickable" class="node">
<g id="a_clickable"><a xlink:href="../access/duo-2-factor-authentication.html" target="_blank">
<ellipse fill="#121212" stroke="#cfb87c" stroke-width="2" cx="86.99" cy="-594" rx="86.99" ry="18"/>
<text text-anchor="middle" x="86.99" y="-590.48" font-family="Verdana" font-size="12.00" fill="white">Duo Authentication</text>
</a>
</g>
</g>
<!-- logging_in&#45;&gt;duo -->
<g id="gs-flowchart_edge2" class="edge">
<path fill="none" stroke="#cfb87c" stroke-width="1.5" d="M248.21,-652C218.27,-641.41 175.56,-626.31 141.62,-614.31"/>
<polygon fill="#121212" stroke="#cfb87c" stroke-width="1.5" points="143.21,-611.16 132.62,-611.13 140.88,-617.76 143.21,-611.16"/>
</g>
<!-- training -->
<g id="clickable" class="node">
<g id="a_clickable"><a xlink:href="../access/logging-in.html" target="_blank">
<ellipse fill="#121212" stroke="#cfb87c" stroke-width="2" cx="237.99" cy="-594" rx="45.57" ry="18"/>
<text text-anchor="middle" x="237.99" y="-590.48" font-family="Verdana" font-size="12.00" fill="white">Trainings</text>
</a>
</g>
</g>
<!-- logging_in&#45;&gt;training -->
<g id="gs-flowchart_edge3" class="edge">
<path fill="none" stroke="#cfb87c" stroke-width="1.5" d="M273.37,-647.7C268.19,-639.98 261.97,-630.71 256.2,-622.11"/>
<polygon fill="#121212" stroke="#cfb87c" stroke-width="1.5" points="259.22,-620.34 250.74,-613.99 253.41,-624.24 259.22,-620.34"/>
</g>
<!-- faq -->
<g id="clickable" class="node">
<g id="a_clickable"><a xlink:href="../access/logging-in.html" target="_blank">
<ellipse fill="#121212" stroke="#cfb87c" stroke-width="2" cx="332.99" cy="-594" rx="31.1" ry="18"/>
<text text-anchor="middle" x="332.99" y="-590.48" font-family="Verdana" font-size="12.00" fill="white">FAQs</text>
</a>
</g>
</g>
<!-- logging_in&#45;&gt;faq -->
<g id="gs-flowchart_edge4" class="edge">
<path fill="none" stroke="#cfb87c" stroke-width="1.5" d="M296.86,-647.7C302.23,-639.87 308.69,-630.44 314.66,-621.73"/>
<polygon fill="#121212" stroke="#cfb87c" stroke-width="1.5" points="317.54,-623.72 320.31,-613.49 311.77,-619.76 317.54,-623.72"/>
</g>
<!-- compute_env -->
<g id="gs-flowchart_node6" class="node">
<ellipse fill="#121212" stroke="#cfb87c" stroke-width="3" stroke-dasharray="5,2" cx="541.99" cy="-594" rx="160.34" ry="18"/>
<text text-anchor="middle" x="541.99" y="-590.48" font-family="Verdana" font-size="12.00" fill="white">What does the HPC system look like?</text>
</g>
<!-- logging_in&#45;&gt;compute_env -->
<g id="gs-flowchart_edge5" class="edge">
<path fill="none" stroke="#cfb87c" stroke-width="1.5" d="M326.28,-653.75C364.4,-643.37 421.89,-627.71 467.94,-615.17"/>
<polygon fill="#121212" stroke="#cfb87c" stroke-width="1.5" points="468.77,-618.57 477.5,-612.57 466.93,-611.82 468.77,-618.57"/>
</g>
<!-- node_type -->
<g id="clickable" class="node">
<g id="a_clickable"><a xlink:href="../compute/node-types.html" target="_blank">
<ellipse fill="#121212" stroke="#cfb87c" stroke-width="2" cx="448.99" cy="-522" rx="56.05" ry="18"/>
<text text-anchor="middle" x="448.99" y="-518.48" font-family="Verdana" font-size="12.00" fill="white">Node types</text>
</a>
</g>
</g>
<!-- compute_env&#45;&gt;node_type -->
<g id="gs-flowchart_edge6" class="edge">
<path fill="none" stroke="#cfb87c" stroke-width="1.5" d="M518.04,-574.97C506.58,-566.34 492.7,-555.9 480.4,-546.64"/>
<polygon fill="#121212" stroke="#cfb87c" stroke-width="1.5" points="482.86,-544.11 472.76,-540.89 478.65,-549.7 482.86,-544.11"/>
</g>
<!-- filesystem -->
<g id="clickable" class="node">
<g id="a_clickable"><a xlink:href="../compute/filesystems.html" target="_blank">
<ellipse fill="#121212" stroke="#cfb87c" stroke-width="2" cx="634.99" cy="-522" rx="76.51" ry="18"/>
<text text-anchor="middle" x="634.99" y="-518.48" font-family="Verdana" font-size="12.00" fill="white">CURC filesystem</text>
</a>
</g>
</g>
<!-- compute_env&#45;&gt;filesystem -->
<g id="gs-flowchart_edge7" class="edge">
<path fill="none" stroke="#cfb87c" stroke-width="1.5" d="M565.94,-574.97C577.13,-566.56 590.61,-556.41 602.68,-547.32"/>
<polygon fill="#121212" stroke="#cfb87c" stroke-width="1.5" points="604.7,-550.18 610.59,-541.37 600.49,-544.58 604.7,-550.18"/>
</g>
<!-- running_jobs -->
<g id="gs-flowchart_node7" class="node">
<ellipse fill="#121212" stroke="#cfb87c" stroke-width="3" stroke-dasharray="5,2" cx="413.99" cy="-306" rx="92.48" ry="18"/>
<text text-anchor="middle" x="413.99" y="-302.48" font-family="Verdana" font-size="12.00" fill="white">How do I run a job?</text>
</g>
<!-- slurm -->
<g id="clickable" class="node">
<g id="a_clickable"><a xlink:href="../running-jobs/job-resources.html" target="_blank">
<ellipse fill="#121212" stroke="#cfb87c" stroke-width="2" cx="413.99" cy="-234" rx="34.6" ry="18"/>
<text text-anchor="middle" x="413.99" y="-230.47" font-family="Verdana" font-size="12.00" fill="white">Slurm</text>
</a>
</g>
</g>
<!-- running_jobs&#45;&gt;slurm -->
<g id="gs-flowchart_edge15" class="edge">
<path fill="none" stroke="#cfb87c" stroke-width="1.5" d="M413.99,-286.61C413.99,-279.86 413.99,-272.04 413.99,-264.56"/>
<polygon fill="#121212" stroke="#cfb87c" stroke-width="1.5" points="417.49,-264.82 413.99,-254.82 410.49,-264.82 417.49,-264.82"/>
</g>
<!-- clusters -->
<g id="gs-flowchart_node8" class="node">
<ellipse fill="#121212" stroke="#cfb87c" stroke-width="3" stroke-dasharray="5,2" cx="413.99" cy="-450" rx="123.92" ry="18"/>
<text text-anchor="middle" x="413.99" y="-446.48" font-family="Verdana" font-size="12.00" fill="white">What clusters are available?</text>
</g>
<!-- alpine -->
<g id="clickable" class="node">
<g id="a_clickable"><a xlink:href="../clusters/alpine/index.html" target="_blank">
<ellipse fill="#121212" stroke="#cfb87c" stroke-width="2" cx="368.99" cy="-378" rx="35.1" ry="18"/>
<text text-anchor="middle" x="368.99" y="-374.48" font-family="Verdana" font-size="12.00" fill="white">Alpine</text>
</a>
</g>
</g>
<!-- clusters&#45;&gt;alpine -->
<g id="gs-flowchart_edge11" class="edge">
<path fill="none" stroke="#cfb87c" stroke-width="1.5" d="M402.17,-430.61C397.39,-423.17 391.77,-414.44 386.53,-406.28"/>
<polygon fill="#121212" stroke="#cfb87c" stroke-width="1.5" points="389.54,-404.5 381.19,-397.98 383.66,-408.28 389.54,-404.5"/>
</g>
<!-- blanca -->
<g id="clickable" class="node">
<g id="a_clickable"><a xlink:href="../clusters/blanca/blanca.html" target="_blank">
<ellipse fill="#121212" stroke="#cfb87c" stroke-width="2" cx="458.99" cy="-378" rx="37.09" ry="18"/>
<text text-anchor="middle" x="458.99" y="-374.48" font-family="Verdana" font-size="12.00" fill="white">Blanca</text>
</a>
</g>
</g>
<!-- clusters&#45;&gt;blanca -->
<g id="gs-flowchart_edge12" class="edge">
<path fill="none" stroke="#cfb87c" stroke-width="1.5" d="M425.81,-430.61C430.59,-423.17 436.21,-414.44 441.45,-406.28"/>
<polygon fill="#121212" stroke="#cfb87c" stroke-width="1.5" points="444.33,-408.28 446.79,-397.98 438.44,-404.5 444.33,-408.28"/>
</g>
<!-- node_type&#45;&gt;clusters -->
<g id="gs-flowchart_edge10" class="edge">
<path fill="none" stroke="#cfb87c" stroke-width="1.5" d="M440.16,-503.34C436.64,-496.29 432.49,-487.99 428.54,-480.1"/>
<polygon fill="#121212" stroke="#cfb87c" stroke-width="1.5" points="431.81,-478.8 424.2,-471.42 425.54,-481.93 431.81,-478.8"/>
</g>
<!-- data_transfer -->
<g id="clickable" class="node">
<g id="a_clickable"><a xlink:href="../compute/data-transfer.html" target="_blank">
<ellipse fill="#121212" stroke="#cfb87c" stroke-width="2" cx="634.99" cy="-450" rx="79.51" ry="18"/>
<text text-anchor="middle" x="634.99" y="-446.48" font-family="Verdana" font-size="12.00" fill="white">Transferring data</text>
</a>
</g>
</g>
<!-- filesystem&#45;&gt;data_transfer -->
<g id="gs-flowchart_edge8" class="edge">
<path fill="none" stroke="#cfb87c" stroke-width="1.5" d="M634.99,-503.34C634.99,-496.59 634.99,-488.69 634.99,-481.11"/>
<polygon fill="#121212" stroke="#cfb87c" stroke-width="1.5" points="638.49,-481.17 634.99,-471.17 631.49,-481.17 638.49,-481.17"/>
</g>
<!-- petalibrary -->
<g id="clickable" class="node">
<g id="a_clickable"><a xlink:href="../storage/petalibrary/index.html" target="_blank">
<ellipse fill="#121212" stroke="#cfb87c" stroke-width="2" cx="787.99" cy="-450" rx="55.06" ry="18"/>
<text text-anchor="middle" x="787.99" y="-446.48" font-family="Verdana" font-size="12.00" fill="white">PetaLibrary</text>
</a>
</g>
</g>
<!-- filesystem&#45;&gt;petalibrary -->
<g id="gs-flowchart_edge9" class="edge">
<path fill="none" stroke="#cfb87c" stroke-width="1.5" d="M669.71,-505.12C692.16,-494.84 721.54,-481.4 745.4,-470.48"/>
<polygon fill="#121212" stroke="#cfb87c" stroke-width="1.5" points="746.58,-473.8 754.21,-466.45 743.66,-467.43 746.58,-473.8"/>
</g>
<!-- alpine&#45;&gt;running_jobs -->
<g id="gs-flowchart_edge13" class="edge">
<path fill="none" stroke="#cfb87c" stroke-width="1.5" d="M379.88,-360.05C384.64,-352.66 390.35,-343.78 395.72,-335.42"/>
<polygon fill="#121212" stroke="#cfb87c" stroke-width="1.5" points="398.56,-337.47 401.03,-327.17 392.67,-333.69 398.56,-337.47"/>
</g>
<!-- blanca&#45;&gt;running_jobs -->
<g id="gs-flowchart_edge14" class="edge">
<path fill="none" stroke="#cfb87c" stroke-width="1.5" d="M448.1,-360.05C443.34,-352.66 437.64,-343.78 432.26,-335.42"/>
<polygon fill="#121212" stroke="#cfb87c" stroke-width="1.5" points="435.31,-333.69 426.96,-327.17 429.42,-337.47 435.31,-333.69"/>
</g>
<!-- interactive -->
<g id="clickable" class="node">
<g id="a_clickable"><a xlink:href="../running-jobs/interactive-jobs.html" target="_blank">
<ellipse fill="#121212" stroke="#cfb87c" stroke-width="2" cx="269.99" cy="-162" rx="73.02" ry="18"/>
<text text-anchor="middle" x="269.99" y="-158.47" font-family="Verdana" font-size="12.00" fill="white">Interactive jobs</text>
</a>
</g>
</g>
<!-- slurm&#45;&gt;interactive -->
<g id="gs-flowchart_edge16" class="edge">
<path fill="none" stroke="#cfb87c" stroke-width="1.5" d="M388.91,-220.81C368.22,-210.75 338.39,-196.25 313.78,-184.29"/>
<polygon fill="#121212" stroke="#cfb87c" stroke-width="1.5" points="315.46,-181.21 304.93,-179.99 312.4,-187.51 315.46,-181.21"/>
</g>
<!-- batch -->
<g id="clickable" class="node">
<g id="a_clickable"><a xlink:href="../running-jobs/batch-jobs.html" target="_blank">
<ellipse fill="#121212" stroke="#cfb87c" stroke-width="2" cx="413.99" cy="-162" rx="53.06" ry="18"/>
<text text-anchor="middle" x="413.99" y="-158.47" font-family="Verdana" font-size="12.00" fill="white">Batch jobs</text>
</a>
</g>
</g>
<!-- slurm&#45;&gt;batch -->
<g id="gs-flowchart_edge17" class="edge">
<path fill="none" stroke="#cfb87c" stroke-width="1.5" d="M413.99,-215.34C413.99,-208.59 413.99,-200.69 413.99,-193.11"/>
<polygon fill="#121212" stroke="#cfb87c" stroke-width="1.5" points="417.49,-193.17 413.99,-183.17 410.49,-193.17 417.49,-193.17"/>
</g>
<!-- ood -->
<g id="clickable" class="node">
<g id="a_clickable"><a xlink:href="../open_ondemand/index.html" target="_blank">
<ellipse fill="#121212" stroke="#cfb87c" stroke-width="2" cx="565.99" cy="-162" rx="80.5" ry="18"/>
<text text-anchor="middle" x="565.99" y="-158.47" font-family="Verdana" font-size="12.00" fill="white">Open OnDemand</text>
</a>
</g>
</g>
<!-- slurm&#45;&gt;ood -->
<g id="gs-flowchart_edge18" class="edge">
<path fill="none" stroke="#cfb87c" stroke-width="1.5" d="M439.78,-221.13C461.71,-211.02 493.75,-196.27 520.06,-184.15"/>
<polygon fill="#121212" stroke="#cfb87c" stroke-width="1.5" points="521.26,-187.45 528.88,-180.09 518.33,-181.1 521.26,-187.45"/>
</g>
<!-- using_software -->
<g id="gs-flowchart_node19" class="node">
<ellipse fill="#121212" stroke="#cfb87c" stroke-width="3" stroke-dasharray="5,2" cx="413.99" cy="-90" rx="106.45" ry="18"/>
<text text-anchor="middle" x="413.99" y="-86.47" font-family="Verdana" font-size="12.00" fill="white">How do I run software?</text>
</g>
<!-- interactive&#45;&gt;using_software -->
<g id="gs-flowchart_edge19" class="edge">
<path fill="none" stroke="#cfb87c" stroke-width="1.5" d="M302.67,-145.12C321.8,-135.82 346.28,-123.92 367.4,-113.65"/>
<polygon fill="#121212" stroke="#cfb87c" stroke-width="1.5" points="368.91,-116.8 376.38,-109.28 365.85,-110.51 368.91,-116.8"/>
</g>
<!-- batch&#45;&gt;using_software -->
<g id="gs-flowchart_edge20" class="edge">
<path fill="none" stroke="#cfb87c" stroke-width="1.5" d="M413.99,-143.34C413.99,-136.69 413.99,-128.94 413.99,-121.46"/>
<polygon fill="#121212" stroke="#cfb87c" stroke-width="1.5" points="417.49,-121.66 413.99,-111.66 410.49,-121.66 417.49,-121.66"/>
</g>
<!-- ood&#45;&gt;using_software -->
<g id="gs-flowchart_edge21" class="edge">
<path fill="none" stroke="#cfb87c" stroke-width="1.5" d="M531.12,-144.94C510.73,-135.55 484.68,-123.55 462.32,-113.26"/>
<polygon fill="#121212" stroke="#cfb87c" stroke-width="1.5" points="463.97,-110.16 453.42,-109.16 461.04,-116.52 463.97,-110.16"/>
</g>
<!-- modules -->
<g id="clickable" class="node">
<g id="a_clickable"><a xlink:href="../compute/modules.html" target="_blank">
<ellipse fill="#121212" stroke="#cfb87c" stroke-width="2" cx="165.99" cy="-18" rx="89.99" ry="18"/>
<text text-anchor="middle" x="165.99" y="-14.47" font-family="Verdana" font-size="12.00" fill="white">The module system</text>
</a>
</g>
</g>
<!-- using_software&#45;&gt;modules -->
<g id="gs-flowchart_edge22" class="edge">
<path fill="none" stroke="#cfb87c" stroke-width="1.5" d="M358.64,-73.38C320.4,-62.58 269.43,-48.19 229.52,-36.93"/>
<polygon fill="#121212" stroke="#cfb87c" stroke-width="1.5" points="230.54,-33.58 219.97,-34.23 228.64,-40.32 230.54,-33.58"/>
</g>
<!-- container -->
<g id="clickable" class="node">
<g id="a_clickable"><a xlink:href="../software/containerization.html" target="_blank">
<ellipse fill="#121212" stroke="#cfb87c" stroke-width="2" cx="349.99" cy="-18" rx="75.51" ry="18"/>
<text text-anchor="middle" x="349.99" y="-14.47" font-family="Verdana" font-size="12.00" fill="white">Containerization</text>
</a>
</g>
</g>
<!-- using_software&#45;&gt;container -->
<g id="gs-flowchart_edge23" class="edge">
<path fill="none" stroke="#cfb87c" stroke-width="1.5" d="M397.51,-70.97C390.33,-63.12 381.77,-53.76 373.91,-45.16"/>
<polygon fill="#121212" stroke="#cfb87c" stroke-width="1.5" points="376.62,-42.94 367.29,-37.92 371.45,-47.66 376.62,-42.94"/>
</g>
<!-- spack -->
<g id="clickable" class="node">
<g id="a_clickable"><a xlink:href="../software/spack.html" target="_blank">
<ellipse fill="#121212" stroke="#cfb87c" stroke-width="2" cx="477.99" cy="-18" rx="34.6" ry="18"/>
<text text-anchor="middle" x="477.99" y="-14.47" font-family="Verdana" font-size="12.00" fill="white">Spack</text>
</a>
</g>
</g>
<!-- using_software&#45;&gt;spack -->
<g id="gs-flowchart_edge24" class="edge">
<path fill="none" stroke="#cfb87c" stroke-width="1.5" d="M430.47,-70.97C438.06,-62.68 447.18,-52.7 455.4,-43.71"/>
<polygon fill="#121212" stroke="#cfb87c" stroke-width="1.5" points="457.83,-46.24 461.99,-36.5 452.66,-41.52 457.83,-46.24"/>
</g>
<!-- conda -->
<g id="clickable" class="node">
<g id="a_clickable"><a xlink:href="../software/python.html" target="_blank">
<ellipse fill="#121212" stroke="#cfb87c" stroke-width="2" cx="624.99" cy="-18" rx="93.98" ry="18"/>
<text text-anchor="middle" x="624.99" y="-14.47" font-family="Verdana" font-size="12.00" fill="white">Conda environments</text>
</a>
</g>
</g>
<!-- using_software&#45;&gt;conda -->
<g id="gs-flowchart_edge25" class="edge">
<path fill="none" stroke="#cfb87c" stroke-width="1.5" d="M463.2,-72.68C494.11,-62.42 534.13,-49.14 566.64,-38.36"/>
<polygon fill="#121212" stroke="#cfb87c" stroke-width="1.5" points="567.7,-41.69 576.09,-35.22 565.5,-35.05 567.7,-41.69"/>
</g>
</g>
</svg>