<!DOCTYPE svg PUBLIC "-//W3C//DTD SVG 1.1//EN" "http://www.w3.org/Graphics/SVG/1.1/DTD/svg11.dtd">
<!-- Generated by graphviz version 12.0.0 (0)
 --><!-- Pages: 1 --><svg xmlns="http://www.w3.org/2000/svg" xmlns:xlink="http://www.w3.org/1999/xlink" width="100%" height="100%" viewBox="0.00 0.00 783.61 764.00" href="#hpc-flow-chart">
<g id="gs-flowchart" class="graph" transform="scale(1 1) rotate(0) translate(4 760)">
<!-- policies -->
<g id="clickable" class="node">
<g id="a_clickable"><a xlink:href="./additional-resources/policies.html" target="_blank">
<ellipse fill="#121212" stroke="#cfb87c" stroke-width="2" cx="217.56" cy="-738" rx="64.54" ry="18"/>
<text text-anchor="middle" x="217.56" y="-734.48" font-family="Verdana" font-size="12.00" fill="white">CURC Policies</text>
</a>
</g>
</g>
<!-- get_an_account -->
<g id="clickable" class="node">
<g id="a_clickable"><a xlink:href="./access/logging-in.html" target="_blank">
<ellipse fill="#121212" stroke="#cfb87c" stroke-width="2" cx="217.56" cy="-666" rx="71.52" ry="18"/>
<text text-anchor="middle" x="217.56" y="-662.48" font-family="Verdana" font-size="12.00" fill="white">Get an account</text>
</a>
</g>
</g>
<!-- policies&#45;&gt;get_an_account -->
<g id="gs-flowchart_edge1" class="edge">
<path fill="none" stroke="#cfb87c" stroke-width="1.5" d="M217.56,-719.34C217.56,-712.59 217.56,-704.69 217.56,-697.11"/>
<polygon fill="#121212" stroke="#cfb87c" stroke-width="1.5" points="221.06,-697.17 217.56,-687.17 214.06,-697.17 221.06,-697.17"/>
</g>
<!-- logging_in -->
<g id="clickable" class="node">
<g id="a_clickable"><a xlink:href="./access/logging-in.html" target="_blank">
<ellipse fill="#121212" stroke="#cfb87c" stroke-width="2" cx="53.56" cy="-594" rx="53.56" ry="18"/>
<text text-anchor="middle" x="53.56" y="-590.48" font-family="Verdana" font-size="12.00" fill="white">Logging In</text>
</a>
</g>
</g>
<!-- get_an_account&#45;&gt;logging_in -->
<g id="gs-flowchart_edge2" class="edge">
<path fill="none" stroke="#cfb87c" stroke-width="1.5" d="M181.57,-649.64C156.85,-639.09 123.87,-625.01 97.58,-613.79"/>
<polygon fill="#121212" stroke="#cfb87c" stroke-width="1.5" points="99.06,-610.62 88.49,-609.91 96.31,-617.05 99.06,-610.62"/>
</g>
<!-- training -->
<g id="clickable" class="node">
<g id="a_clickable"><a xlink:href="./access/logging-in.html" target="_blank">
<ellipse fill="#121212" stroke="#cfb87c" stroke-width="2" cx="170.56" cy="-594" rx="45.57" ry="18"/>
<text text-anchor="middle" x="170.56" y="-590.48" font-family="Verdana" font-size="12.00" fill="white">Trainings</text>
</a>
</g>
</g>
<!-- get_an_account&#45;&gt;training -->
<g id="gs-flowchart_edge3" class="edge">
<path fill="none" stroke="#cfb87c" stroke-width="1.5" d="M205.7,-647.34C200.52,-639.62 194.33,-630.4 188.59,-621.86"/>
<polygon fill="#121212" stroke="#cfb87c" stroke-width="1.5" points="191.67,-620.17 183.19,-613.82 185.86,-624.07 191.67,-620.17"/>
</g>
<!-- faq -->
<g id="clickable" class="node">
<g id="a_clickable"><a xlink:href="./access/logging-in.html" target="_blank">
<ellipse fill="#121212" stroke="#cfb87c" stroke-width="2" cx="265.56" cy="-594" rx="31.1" ry="18"/>
<text text-anchor="middle" x="265.56" y="-590.48" font-family="Verdana" font-size="12.00" fill="white">FAQs</text>
</a>
</g>
</g>
<!-- get_an_account&#45;&gt;faq -->
<g id="gs-flowchart_edge4" class="edge">
<path fill="none" stroke="#cfb87c" stroke-width="1.5" d="M229.67,-647.34C235.04,-639.5 241.47,-630.12 247.4,-621.48"/>
<polygon fill="#121212" stroke="#cfb87c" stroke-width="1.5" points="250.22,-623.56 252.99,-613.33 244.45,-619.6 250.22,-623.56"/>
</g>
<!-- compute_env -->
<g id="gs-flowchart_node6" class="node">
<ellipse fill="#121212" stroke="#cfb87c" stroke-width="3" stroke-dasharray="5,2" cx="474.56" cy="-594" rx="160.34" ry="18"/>
<text text-anchor="middle" x="474.56" y="-590.48" font-family="Verdana" font-size="12.00" fill="white">What does the HPC system look like?</text>
</g>
<!-- get_an_account&#45;&gt;compute_env -->
<g id="gs-flowchart_edge5" class="edge">
<path fill="none" stroke="#cfb87c" stroke-width="1.5" d="M265.6,-651.92C303.53,-641.58 357.1,-626.99 400.51,-615.17"/>
<polygon fill="#121212" stroke="#cfb87c" stroke-width="1.5" points="401.25,-618.59 409.98,-612.59 399.41,-611.84 401.25,-618.59"/>
</g>
<!-- node_type -->
<g id="clickable" class="node">
<g id="a_clickable"><a xlink:href="./compute/node-types.html" target="_blank">
<ellipse fill="#121212" stroke="#cfb87c" stroke-width="2" cx="381.56" cy="-522" rx="56.05" ry="18"/>
<text text-anchor="middle" x="381.56" y="-518.48" font-family="Verdana" font-size="12.00" fill="white">Node types</text>
</a>
</g>
</g>
<!-- compute_env&#45;&gt;node_type -->
<g id="gs-flowchart_edge6" class="edge">
<path fill="none" stroke="#cfb87c" stroke-width="1.5" d="M450.61,-574.97C439.14,-566.34 425.26,-555.9 412.96,-546.64"/>
<polygon fill="#121212" stroke="#cfb87c" stroke-width="1.5" points="415.42,-544.11 405.33,-540.89 411.21,-549.7 415.42,-544.11"/>
</g>
<!-- filesystem -->
<g id="clickable" class="node">
<g id="a_clickable"><a xlink:href="./compute/filesystems.html" target="_blank">
<ellipse fill="#121212" stroke="#cfb87c" stroke-width="2" cx="567.56" cy="-522" rx="76.51" ry="18"/>
<text text-anchor="middle" x="567.56" y="-518.48" font-family="Verdana" font-size="12.00" fill="white">CURC filesystem</text>
</a>
</g>
</g>
<!-- compute_env&#45;&gt;filesystem -->
<g id="gs-flowchart_edge7" class="edge">
<path fill="none" stroke="#cfb87c" stroke-width="1.5" d="M498.51,-574.97C509.69,-566.56 523.17,-556.41 535.24,-547.32"/>
<polygon fill="#121212" stroke="#cfb87c" stroke-width="1.5" points="537.27,-550.18 543.16,-541.37 533.06,-544.58 537.27,-550.18"/>
</g>
<!-- running_jobs -->
<g id="gs-flowchart_node7" class="node">
<ellipse fill="#121212" stroke="#cfb87c" stroke-width="3" stroke-dasharray="5,2" cx="346.56" cy="-306" rx="92.48" ry="18"/>
<text text-anchor="middle" x="346.56" y="-302.48" font-family="Verdana" font-size="12.00" fill="white">How do I run a job?</text>
</g>
<!-- slurm -->
<g id="clickable" class="node">
<g id="a_clickable"><a xlink:href="./running-jobs/job-resources.html" target="_blank">
<ellipse fill="#121212" stroke="#cfb87c" stroke-width="2" cx="346.56" cy="-234" rx="34.6" ry="18"/>
<text text-anchor="middle" x="346.56" y="-230.47" font-family="Verdana" font-size="12.00" fill="white">Slurm</text>
</a>
</g>
</g>
<!-- running_jobs&#45;&gt;slurm -->
<g id="gs-flowchart_edge15" class="edge">
<path fill="none" stroke="#cfb87c" stroke-width="1.5" d="M346.56,-286.61C346.56,-279.86 346.56,-272.04 346.56,-264.56"/>
<polygon fill="#121212" stroke="#cfb87c" stroke-width="1.5" points="350.06,-264.82 346.56,-254.82 343.06,-264.82 350.06,-264.82"/>
</g>
<!-- clusters -->
<g id="gs-flowchart_node8" class="node">
<ellipse fill="#121212" stroke="#cfb87c" stroke-width="3" stroke-dasharray="5,2" cx="346.56" cy="-450" rx="123.92" ry="18"/>
<text text-anchor="middle" x="346.56" y="-446.48" font-family="Verdana" font-size="12.00" fill="white">What clusters are available?</text>
</g>
<!-- alpine -->
<g id="clickable" class="node">
<g id="a_clickable"><a xlink:href="./clusters/alpine/index.html" target="_blank">
<ellipse fill="#121212" stroke="#cfb87c" stroke-width="2" cx="301.56" cy="-378" rx="35.1" ry="18"/>
<text text-anchor="middle" x="301.56" y="-374.48" font-family="Verdana" font-size="12.00" fill="white">Alpine</text>
</a>
</g>
</g>
<!-- clusters&#45;&gt;alpine -->
<g id="gs-flowchart_edge11" class="edge">
<path fill="none" stroke="#cfb87c" stroke-width="1.5" d="M334.74,-430.61C329.96,-423.17 324.34,-414.44 319.1,-406.28"/>
<polygon fill="#121212" stroke="#cfb87c" stroke-width="1.5" points="322.11,-404.5 313.76,-397.98 316.22,-408.28 322.11,-404.5"/>
</g>
<!-- blanca -->
<g id="clickable" class="node">
<g id="a_clickable"><a xlink:href="./clusters/blanca/blanca.html" target="_blank">
<ellipse fill="#121212" stroke="#cfb87c" stroke-width="2" cx="391.56" cy="-378" rx="37.09" ry="18"/>
<text text-anchor="middle" x="391.56" y="-374.48" font-family="Verdana" font-size="12.00" fill="white">Blanca</text>
</a>
</g>
</g>
<!-- clusters&#45;&gt;blanca -->
<g id="gs-flowchart_edge12" class="edge">
<path fill="none" stroke="#cfb87c" stroke-width="1.5" d="M358.38,-430.61C363.16,-423.17 368.78,-414.44 374.02,-406.28"/>
<polygon fill="#121212" stroke="#cfb87c" stroke-width="1.5" points="376.9,-408.28 379.36,-397.98 371.01,-404.5 376.9,-408.28"/>
</g>
<!-- node_type&#45;&gt;clusters -->
<g id="gs-flowchart_edge10" class="edge">
<path fill="none" stroke="#cfb87c" stroke-width="1.5" d="M372.73,-503.34C369.2,-496.29 365.05,-487.99 361.11,-480.1"/>
<polygon fill="#121212" stroke="#cfb87c" stroke-width="1.5" points="364.37,-478.8 356.77,-471.42 358.11,-481.93 364.37,-478.8"/>
</g>
<!-- data_transfer -->
<g id="clickable" class="node">
<g id="a_clickable"><a xlink:href="./compute/data-transfer.html" target="_blank">
<ellipse fill="#121212" stroke="#cfb87c" stroke-width="2" cx="567.56" cy="-450" rx="79.51" ry="18"/>
<text text-anchor="middle" x="567.56" y="-446.48" font-family="Verdana" font-size="12.00" fill="white">Transferring data</text>
</a>
</g>
</g>
<!-- filesystem&#45;&gt;data_transfer -->
<g id="gs-flowchart_edge8" class="edge">
<path fill="none" stroke="#cfb87c" stroke-width="1.5" d="M567.56,-503.34C567.56,-496.59 567.56,-488.69 567.56,-481.11"/>
<polygon fill="#121212" stroke="#cfb87c" stroke-width="1.5" points="571.06,-481.17 567.56,-471.17 564.06,-481.17 571.06,-481.17"/>
</g>
<!-- petalibrary -->
<g id="clickable" class="node">
<g id="a_clickable"><a xlink:href="./storage/petalibrary/index.html" target="_blank">
<ellipse fill="#121212" stroke="#cfb87c" stroke-width="2" cx="720.56" cy="-450" rx="55.06" ry="18"/>
<text text-anchor="middle" x="720.56" y="-446.48" font-family="Verdana" font-size="12.00" fill="white">PetaLibrary</text>
</a>
</g>
</g>
<!-- filesystem&#45;&gt;petalibrary -->
<g id="gs-flowchart_edge9" class="edge">
<path fill="none" stroke="#cfb87c" stroke-width="1.5" d="M602.28,-505.12C624.73,-494.84 654.11,-481.4 677.97,-470.48"/>
<polygon fill="#121212" stroke="#cfb87c" stroke-width="1.5" points="679.14,-473.8 686.78,-466.45 676.23,-467.43 679.14,-473.8"/>
</g>
<!-- alpine&#45;&gt;running_jobs -->
<g id="gs-flowchart_edge13" class="edge">
<path fill="none" stroke="#cfb87c" stroke-width="1.5" d="M312.45,-360.05C317.21,-352.66 322.92,-343.78 328.29,-335.42"/>
<polygon fill="#121212" stroke="#cfb87c" stroke-width="1.5" points="331.13,-337.47 333.59,-327.17 325.24,-333.69 331.13,-337.47"/>
</g>
<!-- blanca&#45;&gt;running_jobs -->
<g id="gs-flowchart_edge14" class="edge">
<path fill="none" stroke="#cfb87c" stroke-width="1.5" d="M380.67,-360.05C375.91,-352.66 370.2,-343.78 364.83,-335.42"/>
<polygon fill="#121212" stroke="#cfb87c" stroke-width="1.5" points="367.88,-333.69 359.53,-327.17 361.99,-337.47 367.88,-333.69"/>
</g>
<!-- interactive -->
<g id="clickable" class="node">
<g id="a_clickable"><a xlink:href="./running-jobs/interactive-jobs.html" target="_blank">
<ellipse fill="#121212" stroke="#cfb87c" stroke-width="2" cx="202.56" cy="-162" rx="73.02" ry="18"/>
<text text-anchor="middle" x="202.56" y="-158.47" font-family="Verdana" font-size="12.00" fill="white">Interactive jobs</text>
</a>
</g>
</g>
<!-- slurm&#45;&gt;interactive -->
<g id="gs-flowchart_edge16" class="edge">
<path fill="none" stroke="#cfb87c" stroke-width="1.5" d="M321.48,-220.81C300.79,-210.75 270.96,-196.25 246.35,-184.29"/>
<polygon fill="#121212" stroke="#cfb87c" stroke-width="1.5" points="248.03,-181.21 237.5,-179.99 244.97,-187.51 248.03,-181.21"/>
</g>
<!-- batch -->
<g id="clickable" class="node">
<g id="a_clickable"><a xlink:href="./running-jobs/batch-jobs.html" target="_blank">
<ellipse fill="#121212" stroke="#cfb87c" stroke-width="2" cx="346.56" cy="-162" rx="53.06" ry="18"/>
<text text-anchor="middle" x="346.56" y="-158.47" font-family="Verdana" font-size="12.00" fill="white">Batch jobs</text>
</a>
</g>
</g>
<!-- slurm&#45;&gt;batch -->
<g id="gs-flowchart_edge17" class="edge">
<path fill="none" stroke="#cfb87c" stroke-width="1.5" d="M346.56,-215.34C346.56,-208.59 346.56,-200.69 346.56,-193.11"/>
<polygon fill="#121212" stroke="#cfb87c" stroke-width="1.5" points="350.06,-193.17 346.56,-183.17 343.06,-193.17 350.06,-193.17"/>
</g>
<!-- ood -->
<g id="clickable" class="node">
<g id="a_clickable"><a xlink:href="./open_ondemand/index.html" target="_blank">
<ellipse fill="#121212" stroke="#cfb87c" stroke-width="2" cx="498.56" cy="-162" rx="80.5" ry="18"/>
<text text-anchor="middle" x="498.56" y="-158.47" font-family="Verdana" font-size="12.00" fill="white">Open OnDemand</text>
</a>
</g>
</g>
<!-- slurm&#45;&gt;ood -->
<g id="gs-flowchart_edge18" class="edge">
<path fill="none" stroke="#cfb87c" stroke-width="1.5" d="M372.34,-221.13C394.28,-211.02 426.32,-196.27 452.63,-184.15"/>
<polygon fill="#121212" stroke="#cfb87c" stroke-width="1.5" points="453.83,-187.45 461.45,-180.09 450.9,-181.1 453.83,-187.45"/>
</g>
<!-- using_software -->
<g id="gs-flowchart_node19" class="node">
<ellipse fill="#121212" stroke="#cfb87c" stroke-width="3" stroke-dasharray="5,2" cx="346.56" cy="-90" rx="106.45" ry="18"/>
<text text-anchor="middle" x="346.56" y="-86.47" font-family="Verdana" font-size="12.00" fill="white">How do I run software?</text>
</g>
<!-- interactive&#45;&gt;using_software -->
<g id="gs-flowchart_edge19" class="edge">
<path fill="none" stroke="#cfb87c" stroke-width="1.5" d="M235.23,-145.12C254.37,-135.82 278.84,-123.92 299.97,-113.65"/>
<polygon fill="#121212" stroke="#cfb87c" stroke-width="1.5" points="301.48,-116.8 308.94,-109.28 298.42,-110.51 301.48,-116.8"/>
</g>
<!-- batch&#45;&gt;using_software -->
<g id="gs-flowchart_edge20" class="edge">
<path fill="none" stroke="#cfb87c" stroke-width="1.5" d="M346.56,-143.34C346.56,-136.69 346.56,-128.94 346.56,-121.46"/>
<polygon fill="#121212" stroke="#cfb87c" stroke-width="1.5" points="350.06,-121.66 346.56,-111.66 343.06,-121.66 350.06,-121.66"/>
</g>
<!-- ood&#45;&gt;using_software -->
<g id="gs-flowchart_edge21" class="edge">
<path fill="none" stroke="#cfb87c" stroke-width="1.5" d="M463.69,-144.94C443.29,-135.55 417.24,-123.55 394.89,-113.26"/>
<polygon fill="#121212" stroke="#cfb87c" stroke-width="1.5" points="396.53,-110.16 385.99,-109.16 393.61,-116.52 396.53,-110.16"/>
</g>
<!-- modules -->
<g id="clickable" class="node">
<g id="a_clickable"><a xlink:href="./compute/modules.html" target="_blank">
<ellipse fill="#121212" stroke="#cfb87c" stroke-width="2" cx="98.56" cy="-18" rx="89.99" ry="18"/>
<text text-anchor="middle" x="98.56" y="-14.47" font-family="Verdana" font-size="12.00" fill="white">The module system</text>
</a>
</g>
</g>
<!-- using_software&#45;&gt;modules -->
<g id="gs-flowchart_edge22" class="edge">
<path fill="none" stroke="#cfb87c" stroke-width="1.5" d="M291.21,-73.38C252.96,-62.58 201.99,-48.19 162.09,-36.93"/>
<polygon fill="#121212" stroke="#cfb87c" stroke-width="1.5" points="163.11,-33.58 152.53,-34.23 161.21,-40.32 163.11,-33.58"/>
</g>
<!-- container -->
<g id="clickable" class="node">
<g id="a_clickable"><a xlink:href="./software/containerization.html" target="_blank">
<ellipse fill="#121212" stroke="#cfb87c" stroke-width="2" cx="282.56" cy="-18" rx="75.51" ry="18"/>
<text text-anchor="middle" x="282.56" y="-14.47" font-family="Verdana" font-size="12.00" fill="white">Containerization</text>
</a>
</g>
</g>
<!-- using_software&#45;&gt;container -->
<g id="gs-flowchart_edge23" class="edge">
<path fill="none" stroke="#cfb87c" stroke-width="1.5" d="M330.08,-70.97C322.9,-63.12 314.34,-53.76 306.48,-45.16"/>
<polygon fill="#121212" stroke="#cfb87c" stroke-width="1.5" points="309.19,-42.94 299.85,-37.92 304.02,-47.66 309.19,-42.94"/>
</g>
<!-- spack -->
<g id="clickable" class="node">
<g id="a_clickable"><a xlink:href="./software/spack.html" target="_blank">
<ellipse fill="#121212" stroke="#cfb87c" stroke-width="2" cx="410.56" cy="-18" rx="34.6" ry="18"/>
<text text-anchor="middle" x="410.56" y="-14.47" font-family="Verdana" font-size="12.00" fill="white">Spack</text>
</a>
</g>
</g>
<!-- using_software&#45;&gt;spack -->
<g id="gs-flowchart_edge24" class="edge">
<path fill="none" stroke="#cfb87c" stroke-width="1.5" d="M363.04,-70.97C370.63,-62.68 379.75,-52.7 387.96,-43.71"/>
<polygon fill="#121212" stroke="#cfb87c" stroke-width="1.5" points="390.4,-46.24 394.56,-36.5 385.23,-41.52 390.4,-46.24"/>
</g>
<!-- conda -->
<g id="clickable" class="node">
<g id="a_clickable"><a xlink:href="./software/python.html" target="_blank">
<ellipse fill="#121212" stroke="#cfb87c" stroke-width="2" cx="557.56" cy="-18" rx="93.98" ry="18"/>
<text text-anchor="middle" x="557.56" y="-14.47" font-family="Verdana" font-size="12.00" fill="white">Conda environments</text>
</a>
</g>
</g>
<!-- using_software&#45;&gt;conda -->
<g id="gs-flowchart_edge25" class="edge">
<path fill="none" stroke="#cfb87c" stroke-width="1.5" d="M395.76,-72.68C426.67,-62.42 466.7,-49.14 499.21,-38.36"/>
<polygon fill="#121212" stroke="#cfb87c" stroke-width="1.5" points="500.27,-41.69 508.66,-35.22 498.07,-35.05 500.27,-41.69"/>
</g>
</g>
</svg>