<!DOCTYPE svg PUBLIC "-//W3C//DTD SVG 1.1//EN" "http://www.w3.org/Graphics/SVG/1.1/DTD/svg11.dtd">
<!-- Generated by graphviz version 12.0.0 (0)
 --><!-- Pages: 1 --><svg xmlns="http://www.w3.org/2000/svg" xmlns:xlink="http://www.w3.org/1999/xlink" width="100%" height="100%" viewBox="0.00 0.00 822.59 692.00" href="#hpc-flow-chart">
<g id="gs-flowchart" class="graph" transform="scale(1 1) rotate(0) translate(4 688)">
<!-- logging_in -->
<g id="clickable" class="node">
<g id="a_clickable"><a xlink:href="./access/logging-in.html" target="_blank">
<ellipse fill="#121212" stroke="#cfb87c" stroke-width="2" cx="236.54" cy="-666" rx="71.52" ry="18"/>
<text text-anchor="middle" x="236.54" y="-662.48" font-family="Verdana" font-size="12.00" fill="white">Get an account</text>
</a>
</g>
</g>
<!-- policies -->
<g id="clickable" class="node">
<g id="a_clickable"><a xlink:href="./additional-resources/policies.html" target="_blank">
<ellipse fill="#121212" stroke="#cfb87c" stroke-width="2" cx="64.54" cy="-594" rx="64.54" ry="18"/>
<text text-anchor="middle" x="64.54" y="-590.48" font-family="Verdana" font-size="12.00" fill="white">CURC Policies</text>
</a>
</g>
</g>
<!-- logging_in&#45;&gt;policies -->
<g id="gs-flowchart_edge1" class="edge">
<path fill="none" stroke="#cfb87c" stroke-width="1.5" d="M199.22,-649.81C173.71,-639.43 139.69,-625.59 112.23,-614.41"/>
<polygon fill="#121212" stroke="#cfb87c" stroke-width="1.5" points="113.58,-611.18 103,-610.65 110.95,-617.67 113.58,-611.18"/>
</g>
<!-- duo -->
<g id="clickable" class="node">
<g id="a_clickable"><a xlink:href="./access/duo-2-factor-authentication.html" target="_blank">
<ellipse fill="#121212" stroke="#cfb87c" stroke-width="2" cx="236.54" cy="-594" rx="89.49" ry="18"/>
<text text-anchor="middle" x="236.54" y="-590.48" font-family="Verdana" font-size="12.00" fill="white">DUO Authentication</text>
</a>
</g>
</g>
<!-- logging_in&#45;&gt;duo -->
<g id="gs-flowchart_edge2" class="edge">
<path fill="none" stroke="#cfb87c" stroke-width="1.5" d="M236.54,-647.34C236.54,-640.59 236.54,-632.69 236.54,-625.11"/>
<polygon fill="#121212" stroke="#cfb87c" stroke-width="1.5" points="240.04,-625.17 236.54,-615.17 233.04,-625.17 240.04,-625.17"/>
</g>
<!-- compute_env -->
<g id="gs-flowchart_node4" class="node">
<ellipse fill="#121212" stroke="#cfb87c" stroke-width="3" stroke-dasharray="5,2" cx="504.54" cy="-594" rx="160.34" ry="18"/>
<text text-anchor="middle" x="504.54" y="-590.48" font-family="Verdana" font-size="12.00" fill="white">What does the HPC system look like?</text>
</g>
<!-- logging_in&#45;&gt;compute_env -->
<g id="gs-flowchart_edge3" class="edge">
<path fill="none" stroke="#cfb87c" stroke-width="1.5" d="M285.69,-652.16C325.59,-641.74 382.53,-626.87 428.33,-614.9"/>
<polygon fill="#121212" stroke="#cfb87c" stroke-width="1.5" points="429.03,-618.34 437.82,-612.43 427.26,-611.57 429.03,-618.34"/>
</g>
<!-- node_type -->
<g id="clickable" class="node">
<g id="a_clickable"><a xlink:href="./compute/node-types.html" target="_blank">
<ellipse fill="#121212" stroke="#cfb87c" stroke-width="2" cx="420.54" cy="-522" rx="56.05" ry="18"/>
<text text-anchor="middle" x="420.54" y="-518.48" font-family="Verdana" font-size="12.00" fill="white">Node types</text>
</a>
</g>
</g>
<!-- compute_env&#45;&gt;node_type -->
<g id="gs-flowchart_edge4" class="edge">
<path fill="none" stroke="#cfb87c" stroke-width="1.5" d="M482.9,-574.97C472.83,-566.58 460.69,-556.46 449.81,-547.39"/>
<polygon fill="#121212" stroke="#cfb87c" stroke-width="1.5" points="452.32,-544.93 442.4,-541.22 447.84,-550.31 452.32,-544.93"/>
</g>
<!-- filesystem -->
<g id="clickable" class="node">
<g id="a_clickable"><a xlink:href="./compute/filesystems.html" target="_blank">
<ellipse fill="#121212" stroke="#cfb87c" stroke-width="2" cx="588.54" cy="-522" rx="76.51" ry="18"/>
<text text-anchor="middle" x="588.54" y="-518.48" font-family="Verdana" font-size="12.00" fill="white">CURC filesystem</text>
</a>
</g>
</g>
<!-- compute_env&#45;&gt;filesystem -->
<g id="gs-flowchart_edge5" class="edge">
<path fill="none" stroke="#cfb87c" stroke-width="1.5" d="M526.17,-574.97C535.99,-566.79 547.78,-556.96 558.45,-548.07"/>
<polygon fill="#121212" stroke="#cfb87c" stroke-width="1.5" points="560.66,-550.79 566.1,-541.7 556.18,-545.41 560.66,-550.79"/>
</g>
<!-- running_jobs -->
<g id="gs-flowchart_node5" class="node">
<ellipse fill="#121212" stroke="#cfb87c" stroke-width="3" stroke-dasharray="5,2" cx="385.54" cy="-306" rx="92.48" ry="18"/>
<text text-anchor="middle" x="385.54" y="-302.48" font-family="Verdana" font-size="12.00" fill="white">How do I run a job?</text>
</g>
<!-- slurm -->
<g id="clickable" class="node">
<g id="a_clickable"><a xlink:href="./running-jobs/job-resources.html" target="_blank">
<ellipse fill="#121212" stroke="#cfb87c" stroke-width="2" cx="385.54" cy="-234" rx="34.6" ry="18"/>
<text text-anchor="middle" x="385.54" y="-230.47" font-family="Verdana" font-size="12.00" fill="white">Slurm</text>
</a>
</g>
</g>
<!-- running_jobs&#45;&gt;slurm -->
<g id="gs-flowchart_edge14" class="edge">
<path fill="none" stroke="#cfb87c" stroke-width="1.5" d="M385.54,-286.61C385.54,-279.86 385.54,-272.04 385.54,-264.56"/>
<polygon fill="#121212" stroke="#cfb87c" stroke-width="1.5" points="389.04,-264.82 385.54,-254.82 382.04,-264.82 389.04,-264.82"/>
</g>
<!-- clusters -->
<g id="gs-flowchart_node6" class="node">
<ellipse fill="#121212" stroke="#cfb87c" stroke-width="3" stroke-dasharray="5,2" cx="385.54" cy="-450" rx="123.92" ry="18"/>
<text text-anchor="middle" x="385.54" y="-446.48" font-family="Verdana" font-size="12.00" fill="white">What clusters are available?</text>
</g>
<!-- alpine -->
<g id="clickable" class="node">
<g id="a_clickable"><a xlink:href="./clusters/alpine/index.html" target="_blank">
<ellipse fill="#121212" stroke="#cfb87c" stroke-width="2" cx="340.54" cy="-378" rx="35.1" ry="18"/>
<text text-anchor="middle" x="340.54" y="-374.48" font-family="Verdana" font-size="12.00" fill="white">Alpine</text>
</a>
</g>
</g>
<!-- clusters&#45;&gt;alpine -->
<g id="gs-flowchart_edge10" class="edge">
<path fill="none" stroke="#cfb87c" stroke-width="1.5" d="M373.71,-430.61C368.93,-423.17 363.32,-414.44 358.08,-406.28"/>
<polygon fill="#121212" stroke="#cfb87c" stroke-width="1.5" points="361.09,-404.5 352.74,-397.98 355.2,-408.28 361.09,-404.5"/>
</g>
<!-- blanca -->
<g id="clickable" class="node">
<g id="a_clickable"><a xlink:href="./clusters/blanca/blanca.html" target="_blank">
<ellipse fill="#121212" stroke="#cfb87c" stroke-width="2" cx="430.54" cy="-378" rx="37.09" ry="18"/>
<text text-anchor="middle" x="430.54" y="-374.48" font-family="Verdana" font-size="12.00" fill="white">Blanca</text>
</a>
</g>
</g>
<!-- clusters&#45;&gt;blanca -->
<g id="gs-flowchart_edge11" class="edge">
<path fill="none" stroke="#cfb87c" stroke-width="1.5" d="M397.36,-430.61C402.14,-423.17 407.76,-414.44 413,-406.28"/>
<polygon fill="#121212" stroke="#cfb87c" stroke-width="1.5" points="415.87,-408.28 418.34,-397.98 409.99,-404.5 415.87,-408.28"/>
</g>
<!-- node_type&#45;&gt;clusters -->
<g id="gs-flowchart_edge9" class="edge">
<path fill="none" stroke="#cfb87c" stroke-width="1.5" d="M411.7,-503.34C408.18,-496.29 404.03,-487.99 400.09,-480.1"/>
<polygon fill="#121212" stroke="#cfb87c" stroke-width="1.5" points="403.35,-478.8 395.75,-471.42 397.09,-481.93 403.35,-478.8"/>
</g>
<!-- filesystem&#45;&gt;clusters -->
<g id="gs-flowchart_edge8" class="edge">
<path fill="none" stroke="#cfb87c" stroke-width="1.5" d="M545.98,-506.33C516.99,-496.33 478.18,-482.94 445.99,-471.85"/>
<polygon fill="#121212" stroke="#cfb87c" stroke-width="1.5" points="447.2,-468.56 436.61,-468.61 444.92,-475.18 447.2,-468.56"/>
</g>
<!-- data_transfer -->
<g id="clickable" class="node">
<g id="a_clickable"><a xlink:href="./compute/data-transfer.html" target="_blank">
<ellipse fill="#121212" stroke="#cfb87c" stroke-width="2" cx="606.54" cy="-450" rx="79.51" ry="18"/>
<text text-anchor="middle" x="606.54" y="-446.48" font-family="Verdana" font-size="12.00" fill="white">Transferring data</text>
</a>
</g>
</g>
<!-- filesystem&#45;&gt;data_transfer -->
<g id="gs-flowchart_edge6" class="edge">
<path fill="none" stroke="#cfb87c" stroke-width="1.5" d="M593.08,-503.34C594.86,-496.43 596.94,-488.31 598.94,-480.56"/>
<polygon fill="#121212" stroke="#cfb87c" stroke-width="1.5" points="602.27,-481.66 601.37,-471.1 595.49,-479.91 602.27,-481.66"/>
</g>
<!-- petalibrary -->
<g id="clickable" class="node">
<g id="a_clickable"><a xlink:href="./storage/petalibrary/index.html" target="_blank">
<ellipse fill="#121212" stroke="#cfb87c" stroke-width="2" cx="759.54" cy="-450" rx="55.06" ry="18"/>
<text text-anchor="middle" x="759.54" y="-446.48" font-family="Verdana" font-size="12.00" fill="white">PetaLibrary</text>
</a>
</g>
</g>
<!-- filesystem&#45;&gt;petalibrary -->
<g id="gs-flowchart_edge7" class="edge">
<path fill="none" stroke="#cfb87c" stroke-width="1.5" d="M626.49,-505.46C652.4,-494.86 686.86,-480.75 714.22,-469.55"/>
<polygon fill="#121212" stroke="#cfb87c" stroke-width="1.5" points="715.43,-472.84 723.36,-465.81 712.78,-466.36 715.43,-472.84"/>
</g>
<!-- alpine&#45;&gt;running_jobs -->
<g id="gs-flowchart_edge12" class="edge">
<path fill="none" stroke="#cfb87c" stroke-width="1.5" d="M351.43,-360.05C356.19,-352.66 361.89,-343.78 367.27,-335.42"/>
<polygon fill="#121212" stroke="#cfb87c" stroke-width="1.5" points="370.11,-337.47 372.57,-327.17 364.22,-333.69 370.11,-337.47"/>
</g>
<!-- blanca&#45;&gt;running_jobs -->
<g id="gs-flowchart_edge13" class="edge">
<path fill="none" stroke="#cfb87c" stroke-width="1.5" d="M419.64,-360.05C414.89,-352.66 409.18,-343.78 403.81,-335.42"/>
<polygon fill="#121212" stroke="#cfb87c" stroke-width="1.5" points="406.85,-333.69 398.5,-327.17 400.97,-337.47 406.85,-333.69"/>
</g>
<!-- interactive -->
<g id="clickable" class="node">
<g id="a_clickable"><a xlink:href="./running-jobs/interactive-jobs.html" target="_blank">
<ellipse fill="#121212" stroke="#cfb87c" stroke-width="2" cx="241.54" cy="-162" rx="73.02" ry="18"/>
<text text-anchor="middle" x="241.54" y="-158.47" font-family="Verdana" font-size="12.00" fill="white">Interactive jobs</text>
</a>
</g>
</g>
<!-- slurm&#45;&gt;interactive -->
<g id="gs-flowchart_edge15" class="edge">
<path fill="none" stroke="#cfb87c" stroke-width="1.5" d="M360.45,-220.81C339.77,-210.75 309.94,-196.25 285.33,-184.29"/>
<polygon fill="#121212" stroke="#cfb87c" stroke-width="1.5" points="287,-181.21 276.48,-179.99 283.94,-187.51 287,-181.21"/>
</g>
<!-- batch -->
<g id="clickable" class="node">
<g id="a_clickable"><a xlink:href="./running-jobs/batch-jobs.html" target="_blank">
<ellipse fill="#121212" stroke="#cfb87c" stroke-width="2" cx="385.54" cy="-162" rx="53.06" ry="18"/>
<text text-anchor="middle" x="385.54" y="-158.47" font-family="Verdana" font-size="12.00" fill="white">Batch jobs</text>
</a>
</g>
</g>
<!-- slurm&#45;&gt;batch -->
<g id="gs-flowchart_edge16" class="edge">
<path fill="none" stroke="#cfb87c" stroke-width="1.5" d="M385.54,-215.34C385.54,-208.59 385.54,-200.69 385.54,-193.11"/>
<polygon fill="#121212" stroke="#cfb87c" stroke-width="1.5" points="389.04,-193.17 385.54,-183.17 382.04,-193.17 389.04,-193.17"/>
</g>
<!-- ood -->
<g id="clickable" class="node">
<g id="a_clickable"><a xlink:href="./open_ondemand/index.html" target="_blank">
<ellipse fill="#121212" stroke="#cfb87c" stroke-width="2" cx="537.54" cy="-162" rx="80.5" ry="18"/>
<text text-anchor="middle" x="537.54" y="-158.47" font-family="Verdana" font-size="12.00" fill="white">Open OnDemand</text>
</a>
</g>
</g>
<!-- slurm&#45;&gt;ood -->
<g id="gs-flowchart_edge17" class="edge">
<path fill="none" stroke="#cfb87c" stroke-width="1.5" d="M411.32,-221.13C433.26,-211.02 465.3,-196.27 491.61,-184.15"/>
<polygon fill="#121212" stroke="#cfb87c" stroke-width="1.5" points="492.8,-187.45 500.42,-180.09 489.88,-181.1 492.8,-187.45"/>
</g>
<!-- using_software -->
<g id="gs-flowchart_node17" class="node">
<ellipse fill="#121212" stroke="#cfb87c" stroke-width="3" stroke-dasharray="5,2" cx="385.54" cy="-90" rx="106.45" ry="18"/>
<text text-anchor="middle" x="385.54" y="-86.47" font-family="Verdana" font-size="12.00" fill="white">How do I run software?</text>
</g>
<!-- interactive&#45;&gt;using_software -->
<g id="gs-flowchart_edge18" class="edge">
<path fill="none" stroke="#cfb87c" stroke-width="1.5" d="M274.21,-145.12C293.34,-135.82 317.82,-123.92 338.95,-113.65"/>
<polygon fill="#121212" stroke="#cfb87c" stroke-width="1.5" points="340.46,-116.8 347.92,-109.28 337.4,-110.51 340.46,-116.8"/>
</g>
<!-- batch&#45;&gt;using_software -->
<g id="gs-flowchart_edge19" class="edge">
<path fill="none" stroke="#cfb87c" stroke-width="1.5" d="M385.54,-143.34C385.54,-136.69 385.54,-128.94 385.54,-121.46"/>
<polygon fill="#121212" stroke="#cfb87c" stroke-width="1.5" points="389.04,-121.66 385.54,-111.66 382.04,-121.66 389.04,-121.66"/>
</g>
<!-- ood&#45;&gt;using_software -->
<g id="gs-flowchart_edge20" class="edge">
<path fill="none" stroke="#cfb87c" stroke-width="1.5" d="M502.66,-144.94C482.27,-135.55 456.22,-123.55 433.87,-113.26"/>
<polygon fill="#121212" stroke="#cfb87c" stroke-width="1.5" points="435.51,-110.16 424.96,-109.16 432.58,-116.52 435.51,-110.16"/>
</g>
<!-- modules -->
<g id="clickable" class="node">
<g id="a_clickable"><a xlink:href="./compute/modules.html" target="_blank">
<ellipse fill="#121212" stroke="#cfb87c" stroke-width="2" cx="137.54" cy="-18" rx="89.99" ry="18"/>
<text text-anchor="middle" x="137.54" y="-14.47" font-family="Verdana" font-size="12.00" fill="white">The module system</text>
</a>
</g>
</g>
<!-- using_software&#45;&gt;modules -->
<g id="gs-flowchart_edge21" class="edge">
<path fill="none" stroke="#cfb87c" stroke-width="1.5" d="M330.19,-73.38C291.94,-62.58 240.97,-48.19 201.06,-36.93"/>
<polygon fill="#121212" stroke="#cfb87c" stroke-width="1.5" points="202.09,-33.58 191.51,-34.23 200.19,-40.32 202.09,-33.58"/>
</g>
<!-- container -->
<g id="clickable" class="node">
<g id="a_clickable"><a xlink:href="./software/containerization.html" target="_blank">
<ellipse fill="#121212" stroke="#cfb87c" stroke-width="2" cx="321.54" cy="-18" rx="75.51" ry="18"/>
<text text-anchor="middle" x="321.54" y="-14.47" font-family="Verdana" font-size="12.00" fill="white">Containerization</text>
</a>
</g>
</g>
<!-- using_software&#45;&gt;container -->
<g id="gs-flowchart_edge22" class="edge">
<path fill="none" stroke="#cfb87c" stroke-width="1.5" d="M369.06,-70.97C361.87,-63.12 353.32,-53.76 345.46,-45.16"/>
<polygon fill="#121212" stroke="#cfb87c" stroke-width="1.5" points="348.16,-42.94 338.83,-37.92 343,-47.66 348.16,-42.94"/>
</g>
<!-- spack -->
<g id="clickable" class="node">
<g id="a_clickable"><a xlink:href="./software/spack.html" target="_blank">
<ellipse fill="#121212" stroke="#cfb87c" stroke-width="2" cx="449.54" cy="-18" rx="34.6" ry="18"/>
<text text-anchor="middle" x="449.54" y="-14.47" font-family="Verdana" font-size="12.00" fill="white">Spack</text>
</a>
</g>
</g>
<!-- using_software&#45;&gt;spack -->
<g id="gs-flowchart_edge23" class="edge">
<path fill="none" stroke="#cfb87c" stroke-width="1.5" d="M402.02,-70.97C409.61,-62.68 418.73,-52.7 426.94,-43.71"/>
<polygon fill="#121212" stroke="#cfb87c" stroke-width="1.5" points="429.38,-46.24 433.54,-36.5 424.21,-41.52 429.38,-46.24"/>
</g>
<!-- conda -->
<g id="clickable" class="node">
<g id="a_clickable"><a xlink:href="./software/python.html" target="_blank">
<ellipse fill="#121212" stroke="#cfb87c" stroke-width="2" cx="596.54" cy="-18" rx="93.98" ry="18"/>
<text text-anchor="middle" x="596.54" y="-14.47" font-family="Verdana" font-size="12.00" fill="white">Conda environments</text>
</a>
</g>
</g>
<!-- using_software&#45;&gt;conda -->
<g id="gs-flowchart_edge24" class="edge">
<path fill="none" stroke="#cfb87c" stroke-width="1.5" d="M434.74,-72.68C465.65,-62.42 505.68,-49.14 538.19,-38.36"/>
<polygon fill="#121212" stroke="#cfb87c" stroke-width="1.5" points="539.25,-41.69 547.64,-35.22 537.04,-35.05 539.25,-41.69"/>
</g>
</g>
</svg>