<!DOCTYPE svg PUBLIC "-//W3C//DTD SVG 1.1//EN" "http://www.w3.org/Graphics/SVG/1.1/DTD/svg11.dtd">
<!-- Generated by graphviz version 12.0.0 (0)
 --><!-- Pages: 1 --><svg xmlns="http://www.w3.org/2000/svg" xmlns:xlink="http://www.w3.org/1999/xlink" width="823pt" height="692pt" viewBox="0.00 0.00 822.59 692.00">
<g id="graph0" class="graph gs-hpc-flowchart" transform="scale(1 1) rotate(0) translate(4 688)">
<!-- logging_in -->
<g id="node1" class="node">
<g id="a_node1"><a xlink:href="./access/logging-in.html" target="_blank">
<ellipse fill="black" stroke="#cfb87c" stroke-width="2" cx="236.54" cy="-666" rx="71.52" ry="18"/>
<text text-anchor="middle" x="236.54" y="-662.48" font-family="Verdana" font-size="12.00" fill="white">Get an account</text>
</a>
</g>
</g>
<!-- policies -->
<g id="node2" class="node">
<g id="a_node2"><a xlink:href="./additional-resources/policies.html" target="_blank">
<ellipse fill="black" stroke="#cfb87c" stroke-width="2" cx="64.54" cy="-594" rx="64.54" ry="18"/>
<text text-anchor="middle" x="64.54" y="-590.48" font-family="Verdana" font-size="12.00" fill="white">CURC Policies</text>
</a>
</g>
</g>
<!-- logging_in&#45;&gt;policies -->
<g id="edge1" class="edge">
<path fill="none" stroke="#cfb87c" stroke-width="1.5" d="M199.22,-649.81C173.71,-639.43 139.69,-625.59 112.23,-614.41"/>
<polygon fill="black" stroke="#cfb87c" stroke-width="1.5" points="113.58,-611.18 103,-610.65 110.95,-617.67 113.58,-611.18"/>
</g>
<!-- duo -->
<g id="node3" class="node">
<g id="a_node3"><a xlink:href="./access/duo-2-factor-authentication.html" target="_blank">
<ellipse fill="black" stroke="#cfb87c" stroke-width="2" cx="236.54" cy="-594" rx="89.49" ry="18"/>
<text text-anchor="middle" x="236.54" y="-590.48" font-family="Verdana" font-size="12.00" fill="white">DUO Authentication</text>
</a>
</g>
</g>
<!-- logging_in&#45;&gt;duo -->
<g id="edge2" class="edge">
<path fill="none" stroke="#cfb87c" stroke-width="1.5" d="M236.54,-647.34C236.54,-640.59 236.54,-632.69 236.54,-625.11"/>
<polygon fill="black" stroke="#cfb87c" stroke-width="1.5" points="240.04,-625.17 236.54,-615.17 233.04,-625.17 240.04,-625.17"/>
</g>
<!-- compute_env -->
<g id="node4" class="node">
<g id="a_node4"><a>
<ellipse fill="black" stroke="#cfb87c" stroke-width="3" stroke-dasharray="5,2" cx="504.54" cy="-594" rx="160.34" ry="18"/>
<text text-anchor="middle" x="504.54" y="-590.48" font-family="Verdana" font-size="12.00" fill="white">What does the HPC system look like?</text>
</a>
</g>
</g>
<!-- logging_in&#45;&gt;compute_env -->
<g id="edge3" class="edge">
<path fill="none" stroke="#cfb87c" stroke-width="1.5" d="M285.69,-652.16C325.59,-641.74 382.53,-626.87 428.33,-614.9"/>
<polygon fill="black" stroke="#cfb87c" stroke-width="1.5" points="429.03,-618.34 437.82,-612.43 427.26,-611.57 429.03,-618.34"/>
</g>
<!-- node_type -->
<g id="node7" class="node">
<g id="a_node7"><a xlink:href="./compute/node-types.html" target="_blank">
<ellipse fill="black" stroke="#cfb87c" stroke-width="2" cx="420.54" cy="-522" rx="56.05" ry="18"/>
<text text-anchor="middle" x="420.54" y="-518.48" font-family="Verdana" font-size="12.00" fill="white">Node types</text>
</a>
</g>
</g>
<!-- compute_env&#45;&gt;node_type -->
<g id="edge4" class="edge">
<path fill="none" stroke="#cfb87c" stroke-width="1.5" d="M482.9,-574.97C472.83,-566.58 460.69,-556.46 449.81,-547.39"/>
<polygon fill="black" stroke="#cfb87c" stroke-width="1.5" points="452.32,-544.93 442.4,-541.22 447.84,-550.31 452.32,-544.93"/>
</g>
<!-- filesystem -->
<g id="node8" class="node">
<g id="a_node8"><a xlink:href="./compute/filesystems.html" target="_blank">
<ellipse fill="black" stroke="#cfb87c" stroke-width="2" cx="588.54" cy="-522" rx="76.51" ry="18"/>
<text text-anchor="middle" x="588.54" y="-518.48" font-family="Verdana" font-size="12.00" fill="white">CURC filesystem</text>
</a>
</g>
</g>
<!-- compute_env&#45;&gt;filesystem -->
<g id="edge5" class="edge">
<path fill="none" stroke="#cfb87c" stroke-width="1.5" d="M526.17,-574.97C535.99,-566.79 547.78,-556.96 558.45,-548.07"/>
<polygon fill="black" stroke="#cfb87c" stroke-width="1.5" points="560.66,-550.79 566.1,-541.7 556.18,-545.41 560.66,-550.79"/>
</g>
<!-- running_jobs -->
<g id="node5" class="node">
<ellipse fill="black" stroke="#cfb87c" stroke-width="2" cx="385.54" cy="-306" rx="92.48" ry="18"/>
<text text-anchor="middle" x="385.54" y="-302.48" font-family="Verdana" font-size="12.00" fill="white">How do I run a job?</text>
</g>
<!-- slurm -->
<g id="node13" class="node">
<g id="a_node13"><a xlink:href="./running-jobs/job-resources.html" target="_blank">
<ellipse fill="black" stroke="#cfb87c" stroke-width="2" cx="385.54" cy="-234" rx="34.6" ry="18"/>
<text text-anchor="middle" x="385.54" y="-230.47" font-family="Verdana" font-size="12.00" fill="white">Slurm</text>
</a>
</g>
</g>
<!-- running_jobs&#45;&gt;slurm -->
<g id="edge14" class="edge">
<path fill="none" stroke="#cfb87c" stroke-width="1.5" d="M385.54,-287.34C385.54,-280.59 385.54,-272.69 385.54,-265.11"/>
<polygon fill="black" stroke="#cfb87c" stroke-width="1.5" points="389.04,-265.17 385.54,-255.17 382.04,-265.17 389.04,-265.17"/>
</g>
<!-- clusters -->
<g id="node6" class="node">
<ellipse fill="black" stroke="#cfb87c" stroke-width="2" cx="385.54" cy="-450" rx="123.92" ry="18"/>
<text text-anchor="middle" x="385.54" y="-446.48" font-family="Verdana" font-size="12.00" fill="white">What clusters are available?</text>
</g>
<!-- alpine -->
<g id="node11" class="node">
<g id="a_node11"><a xlink:href="./clusters/alpine/index.html" target="_blank">
<ellipse fill="black" stroke="#cfb87c" stroke-width="2" cx="340.54" cy="-378" rx="35.1" ry="18"/>
<text text-anchor="middle" x="340.54" y="-374.48" font-family="Verdana" font-size="12.00" fill="white">Alpine</text>
</a>
</g>
</g>
<!-- clusters&#45;&gt;alpine -->
<g id="edge10" class="edge">
<path fill="none" stroke="#cfb87c" stroke-width="1.5" d="M374.18,-431.34C369.28,-423.7 363.42,-414.6 357.99,-406.14"/>
<polygon fill="black" stroke="#cfb87c" stroke-width="1.5" points="361,-404.36 352.65,-397.84 355.11,-408.15 361,-404.36"/>
</g>
<!-- blanca -->
<g id="node12" class="node">
<g id="a_node12"><a xlink:href="./clusters/blanca/blanca.html" target="_blank">
<ellipse fill="black" stroke="#cfb87c" stroke-width="2" cx="430.54" cy="-378" rx="37.09" ry="18"/>
<text text-anchor="middle" x="430.54" y="-374.48" font-family="Verdana" font-size="12.00" fill="white">Blanca</text>
</a>
</g>
</g>
<!-- clusters&#45;&gt;blanca -->
<g id="edge11" class="edge">
<path fill="none" stroke="#cfb87c" stroke-width="1.5" d="M396.89,-431.34C401.8,-423.7 407.65,-414.6 413.09,-406.14"/>
<polygon fill="black" stroke="#cfb87c" stroke-width="1.5" points="415.96,-408.15 418.42,-397.84 410.07,-404.36 415.96,-408.15"/>
</g>
<!-- node_type&#45;&gt;clusters -->
<g id="edge9" class="edge">
<path fill="none" stroke="#cfb87c" stroke-width="1.5" d="M411.7,-503.34C408.13,-496.18 403.9,-487.73 399.9,-479.73"/>
<polygon fill="black" stroke="#cfb87c" stroke-width="1.5" points="403.11,-478.31 395.5,-470.93 396.84,-481.44 403.11,-478.31"/>
</g>
<!-- filesystem&#45;&gt;clusters -->
<g id="edge8" class="edge">
<path fill="none" stroke="#cfb87c" stroke-width="1.5" d="M545.98,-506.33C516.68,-496.22 477.34,-482.66 444.96,-471.49"/>
<polygon fill="black" stroke="#cfb87c" stroke-width="1.5" points="446.11,-468.19 435.52,-468.23 443.83,-474.8 446.11,-468.19"/>
</g>
<!-- data_transfer -->
<g id="node9" class="node">
<g id="a_node9"><a xlink:href="./compute/data-transfer.html" target="_blank">
<ellipse fill="black" stroke="#cfb87c" stroke-width="2" cx="606.54" cy="-450" rx="79.51" ry="18"/>
<text text-anchor="middle" x="606.54" y="-446.48" font-family="Verdana" font-size="12.00" fill="white">Transferring data</text>
</a>
</g>
</g>
<!-- filesystem&#45;&gt;data_transfer -->
<g id="edge6" class="edge">
<path fill="none" stroke="#cfb87c" stroke-width="1.5" d="M593.08,-503.34C594.86,-496.43 596.94,-488.31 598.94,-480.56"/>
<polygon fill="black" stroke="#cfb87c" stroke-width="1.5" points="602.27,-481.66 601.37,-471.1 595.49,-479.91 602.27,-481.66"/>
</g>
<!-- petalibrary -->
<g id="node10" class="node">
<g id="a_node10"><a xlink:href="./storage/petalibrary/index.html" target="_blank">
<ellipse fill="black" stroke="#cfb87c" stroke-width="2" cx="759.54" cy="-450" rx="55.06" ry="18"/>
<text text-anchor="middle" x="759.54" y="-446.48" font-family="Verdana" font-size="12.00" fill="white">PetaLibrary</text>
</a>
</g>
</g>
<!-- filesystem&#45;&gt;petalibrary -->
<g id="edge7" class="edge">
<path fill="none" stroke="#cfb87c" stroke-width="1.5" d="M626.49,-505.46C652.4,-494.86 686.86,-480.75 714.22,-469.55"/>
<polygon fill="black" stroke="#cfb87c" stroke-width="1.5" points="715.43,-472.84 723.36,-465.81 712.78,-466.36 715.43,-472.84"/>
</g>
<!-- alpine&#45;&gt;running_jobs -->
<g id="edge12" class="edge">
<path fill="none" stroke="#cfb87c" stroke-width="1.5" d="M351.43,-360.05C356.26,-352.54 362.07,-343.51 367.51,-335.03"/>
<polygon fill="black" stroke="#cfb87c" stroke-width="1.5" points="370.42,-336.98 372.89,-326.68 364.54,-333.19 370.42,-336.98"/>
</g>
<!-- blanca&#45;&gt;running_jobs -->
<g id="edge13" class="edge">
<path fill="none" stroke="#cfb87c" stroke-width="1.5" d="M419.64,-360.05C414.82,-352.54 409,-343.51 403.56,-335.03"/>
<polygon fill="black" stroke="#cfb87c" stroke-width="1.5" points="406.54,-333.19 398.19,-326.68 400.65,-336.98 406.54,-333.19"/>
</g>
<!-- interactive -->
<g id="node14" class="node">
<g id="a_node14"><a xlink:href="./running-jobs/interactive-jobs.html" target="_blank">
<ellipse fill="black" stroke="#cfb87c" stroke-width="2" cx="241.54" cy="-162" rx="73.02" ry="18"/>
<text text-anchor="middle" x="241.54" y="-158.47" font-family="Verdana" font-size="12.00" fill="white">Interactive jobs</text>
</a>
</g>
</g>
<!-- slurm&#45;&gt;interactive -->
<g id="edge15" class="edge">
<path fill="none" stroke="#cfb87c" stroke-width="1.5" d="M360.45,-220.81C339.77,-210.75 309.94,-196.25 285.33,-184.29"/>
<polygon fill="black" stroke="#cfb87c" stroke-width="1.5" points="287,-181.21 276.48,-179.99 283.94,-187.51 287,-181.21"/>
</g>
<!-- batch -->
<g id="node15" class="node">
<g id="a_node15"><a xlink:href="./running-jobs/batch-jobs.html" target="_blank">
<ellipse fill="black" stroke="#cfb87c" stroke-width="2" cx="385.54" cy="-162" rx="53.06" ry="18"/>
<text text-anchor="middle" x="385.54" y="-158.47" font-family="Verdana" font-size="12.00" fill="white">Batch jobs</text>
</a>
</g>
</g>
<!-- slurm&#45;&gt;batch -->
<g id="edge16" class="edge">
<path fill="none" stroke="#cfb87c" stroke-width="1.5" d="M385.54,-215.34C385.54,-208.59 385.54,-200.69 385.54,-193.11"/>
<polygon fill="black" stroke="#cfb87c" stroke-width="1.5" points="389.04,-193.17 385.54,-183.17 382.04,-193.17 389.04,-193.17"/>
</g>
<!-- ood -->
<g id="node16" class="node">
<g id="a_node16"><a xlink:href="./open_ondemand/index.html" target="_blank">
<ellipse fill="black" stroke="#cfb87c" stroke-width="2" cx="537.54" cy="-162" rx="80.5" ry="18"/>
<text text-anchor="middle" x="537.54" y="-158.47" font-family="Verdana" font-size="12.00" fill="white">Open OnDemand</text>
</a>
</g>
</g>
<!-- slurm&#45;&gt;ood -->
<g id="edge17" class="edge">
<path fill="none" stroke="#cfb87c" stroke-width="1.5" d="M411.32,-221.13C433.26,-211.02 465.3,-196.27 491.61,-184.15"/>
<polygon fill="black" stroke="#cfb87c" stroke-width="1.5" points="492.8,-187.45 500.42,-180.09 489.88,-181.1 492.8,-187.45"/>
</g>
<!-- using_software -->
<g id="node17" class="node">
<ellipse fill="black" stroke="#cfb87c" stroke-width="2" cx="385.54" cy="-90" rx="106.45" ry="18"/>
<text text-anchor="middle" x="385.54" y="-86.47" font-family="Verdana" font-size="12.00" fill="white">How do I run software?</text>
</g>
<!-- interactive&#45;&gt;using_software -->
<g id="edge18" class="edge">
<path fill="none" stroke="#cfb87c" stroke-width="1.5" d="M274.21,-145.12C293.64,-135.67 318.59,-123.54 339.94,-113.17"/>
<polygon fill="black" stroke="#cfb87c" stroke-width="1.5" points="341.22,-116.43 348.69,-108.91 338.16,-110.14 341.22,-116.43"/>
</g>
<!-- batch&#45;&gt;using_software -->
<g id="edge19" class="edge">
<path fill="none" stroke="#cfb87c" stroke-width="1.5" d="M385.54,-143.34C385.54,-136.59 385.54,-128.69 385.54,-121.11"/>
<polygon fill="black" stroke="#cfb87c" stroke-width="1.5" points="389.04,-121.17 385.54,-111.17 382.04,-121.17 389.04,-121.17"/>
</g>
<!-- ood&#45;&gt;using_software -->
<g id="edge20" class="edge">
<path fill="none" stroke="#cfb87c" stroke-width="1.5" d="M502.66,-144.94C482.05,-135.44 455.65,-123.29 433.13,-112.92"/>
<polygon fill="black" stroke="#cfb87c" stroke-width="1.5" points="434.71,-109.79 424.16,-108.79 431.78,-116.15 434.71,-109.79"/>
</g>
<!-- modules -->
<g id="node18" class="node">
<g id="a_node18"><a xlink:href="./compute/modules.html" target="_blank">
<ellipse fill="black" stroke="#cfb87c" stroke-width="2" cx="137.54" cy="-18" rx="89.99" ry="18"/>
<text text-anchor="middle" x="137.54" y="-14.47" font-family="Verdana" font-size="12.00" fill="white">The module system</text>
</a>
</g>
</g>
<!-- using_software&#45;&gt;modules -->
<g id="edge21" class="edge">
<path fill="none" stroke="#cfb87c" stroke-width="1.5" d="M331.11,-73.64C292.7,-62.8 241.12,-48.24 200.86,-36.87"/>
<polygon fill="black" stroke="#cfb87c" stroke-width="1.5" points="202.05,-33.57 191.47,-34.22 200.15,-40.31 202.05,-33.57"/>
</g>
<!-- container -->
<g id="node19" class="node">
<g id="a_node19"><a xlink:href="./software/containerization.html" target="_blank">
<ellipse fill="black" stroke="#cfb87c" stroke-width="2" cx="321.54" cy="-18" rx="75.51" ry="18"/>
<text text-anchor="middle" x="321.54" y="-14.47" font-family="Verdana" font-size="12.00" fill="white">Containerization</text>
</a>
</g>
</g>
<!-- using_software&#45;&gt;container -->
<g id="edge22" class="edge">
<path fill="none" stroke="#cfb87c" stroke-width="1.5" d="M369.39,-71.34C362.21,-63.48 353.6,-54.07 345.69,-45.41"/>
<polygon fill="black" stroke="#cfb87c" stroke-width="1.5" points="348.32,-43.11 338.99,-38.09 343.16,-47.83 348.32,-43.11"/>
</g>
<!-- spack -->
<g id="node20" class="node">
<g id="a_node20"><a xlink:href="./software/spack.html" target="_blank">
<ellipse fill="black" stroke="#cfb87c" stroke-width="2" cx="449.54" cy="-18" rx="34.6" ry="18"/>
<text text-anchor="middle" x="449.54" y="-14.47" font-family="Verdana" font-size="12.00" fill="white">Spack</text>
</a>
</g>
</g>
<!-- using_software&#45;&gt;spack -->
<g id="edge23" class="edge">
<path fill="none" stroke="#cfb87c" stroke-width="1.5" d="M401.69,-71.34C409.27,-63.04 418.45,-53 426.73,-43.95"/>
<polygon fill="black" stroke="#cfb87c" stroke-width="1.5" points="429.23,-46.4 433.39,-36.66 424.06,-41.68 429.23,-46.4"/>
</g>
<!-- conda -->
<g id="node21" class="node">
<g id="a_node21"><a xlink:href="./software/python.html" target="_blank">
<ellipse fill="black" stroke="#cfb87c" stroke-width="2" cx="596.54" cy="-18" rx="93.98" ry="18"/>
<text text-anchor="middle" x="596.54" y="-14.47" font-family="Verdana" font-size="12.00" fill="white">Conda environments</text>
</a>
</g>
</g>
<!-- using_software&#45;&gt;conda -->
<g id="edge24" class="edge">
<path fill="none" stroke="#cfb87c" stroke-width="1.5" d="M433.68,-73.03C464.91,-62.67 505.76,-49.11 538.74,-38.17"/>
<polygon fill="black" stroke="#cfb87c" stroke-width="1.5" points="539.51,-41.61 547.9,-35.14 537.3,-34.96 539.51,-41.61"/>
</g>
</g>
</svg>