<!DOCTYPE svg PUBLIC "-//W3C//DTD SVG 1.1//EN" "http://www.w3.org/Graphics/SVG/1.1/DTD/svg11.dtd">
<!-- Generated by graphviz version 12.0.0 (0)
 --><!-- Pages: 1 --><svg xmlns="http://www.w3.org/2000/svg" xmlns:xlink="http://www.w3.org/1999/xlink" width="100%" height="100%" viewBox="0.00 0.00 866.37 116.00" href="#hpc-flow-chart">
<g id="gs-flowchart" class="graph" transform="scale(1 1) rotate(0) translate(4 112)">
<!-- cloud -->
<g id="gs-flowchart_node1" class="node">
<ellipse fill="#121212" stroke="#cfb87c" stroke-width="3" stroke-dasharray="5,2" cx="385.47" cy="-90" rx="121.92" ry="18"/>
<text text-anchor="middle" x="385.47" y="-86.47" font-family="Verdana" font-size="12.00" fill="white">Cloud computing assistance</text>
</g>
<!-- aws -->
<g id="clickable" class="node">
<g id="a_clickable"><a xlink:href="./cloud/aws/index.html" target="_blank">
<ellipse fill="#121212" stroke="#cfb87c" stroke-width="2" cx="99.47" cy="-18" rx="99.47" ry="18"/>
<text text-anchor="middle" x="99.47" y="-14.47" font-family="Verdana" font-size="12.00" fill="white">Amazon Web Services</text>
</a>
</g>
</g>
<!-- cloud&#45;&gt;aws -->
<g id="gs-flowchart_edge1" class="edge">
<path fill="none" stroke="#cfb87c" stroke-width="1.5" d="M321.64,-73.38C276.66,-62.37 216.42,-47.62 170.01,-36.27"/>
<polygon fill="#121212" stroke="#cfb87c" stroke-width="1.5" points="170.98,-32.9 160.43,-33.92 169.31,-39.7 170.98,-32.9"/>
</g>
<!-- azure -->
<g id="clickable" class="node">
<g id="a_clickable"><a xlink:href="./cloud/azure/index.html" target="_blank">
<ellipse fill="#121212" stroke="#cfb87c" stroke-width="2" cx="289.47" cy="-18" rx="72.52" ry="18"/>
<text text-anchor="middle" x="289.47" y="-14.47" font-family="Verdana" font-size="12.00" fill="white">Microsoft Azure</text>
</a>
</g>
</g>
<!-- cloud&#45;&gt;azure -->
<g id="gs-flowchart_edge2" class="edge">
<path fill="none" stroke="#cfb87c" stroke-width="1.5" d="M360.74,-70.97C349.08,-62.47 335,-52.21 322.45,-43.05"/>
<polygon fill="#121212" stroke="#cfb87c" stroke-width="1.5" points="324.76,-40.4 314.62,-37.34 320.64,-46.06 324.76,-40.4"/>
</g>
<!-- gcp -->
<g id="clickable" class="node">
<g id="a_clickable"><a xlink:href="./cloud/gcp/index.html" target="_blank">
<ellipse fill="#121212" stroke="#cfb87c" stroke-width="2" cx="481.47" cy="-18" rx="101.46" ry="18"/>
<text text-anchor="middle" x="481.47" y="-14.47" font-family="Verdana" font-size="12.00" fill="white">Google Cloud Platform</text>
</a>
</g>
</g>
<!-- cloud&#45;&gt;gcp -->
<g id="gs-flowchart_edge3" class="edge">
<path fill="none" stroke="#cfb87c" stroke-width="1.5" d="M410.19,-70.97C421.76,-62.53 435.72,-52.36 448.2,-43.26"/>
<polygon fill="#121212" stroke="#cfb87c" stroke-width="1.5" points="449.97,-46.3 455.99,-37.58 445.84,-40.64 449.97,-46.3"/>
</g>
<!-- cumulus -->
<g id="clickable" class="node">
<g id="a_clickable"><a xlink:href="./cloud/cumulus/index.html" target="_blank">
<ellipse fill="#121212" stroke="#cfb87c" stroke-width="2" cx="729.47" cy="-18" rx="128.91" ry="18"/>
<text text-anchor="middle" x="729.47" y="-14.47" font-family="Verdana" font-size="12.00" fill="white">CUmulus (On-Premise Cloud)</text>
</a>
</g>
</g>
<!-- cloud&#45;&gt;cumulus -->
<g id="gs-flowchart_edge4" class="edge">
<path fill="none" stroke="#cfb87c" stroke-width="1.5" d="M458,-74.24C512.66,-63.12 587.73,-47.84 645.08,-36.17"/>
<polygon fill="#121212" stroke="#cfb87c" stroke-width="1.5" points="645.71,-39.62 654.81,-34.19 644.31,-32.76 645.71,-39.62"/>
</g>
</g>
</svg>